<?xml version="1.0" encoding="iso-8859-1"?>
<!-- Generator: Adobe Illustrator 19.0.0, SVG Export Plug-In . SVG Version: 6.00 Build 0)  -->
<svg version="1.1" id="Capa_1" xmlns="http://www.w3.org/2000/svg" xmlns:xlink="http://www.w3.org/1999/xlink" x="0px" y="0px"
	 viewBox="0 0 511.998 511.998" style="enable-background:new 0 0 511.998 511.998;" xml:space="preserve">
<g>
	<g>
		<polygon style="fill:#C68F7B;" points="256,61.001 36,61.001 36,126.001 146,126.001 256,126.001 		"/>
		<polygon style="fill:#C68F7B;" points="146,126.001 36,126.001 10,126.001 10,190.999 36,190.999 146,190.999 		"/>
	</g>
	<polygon style="fill:#8E6A5C;" points="146,126.001 146,190.999 256,190.999 366,190.999 366,126.001 256,126.001 	"/>
	<polygon style="fill:#FCC8A4;" points="256,190.999 146,190.999 36,190.999 36,255.998 146,255.998 256,255.998 	"/>
	<g>
		<polygon style="fill:#C68F7B;" points="256,190.999 256,255.998 366,255.998 476.002,255.998 476.002,190.999 366,190.999 		"/>
		<polygon style="fill:#C68F7B;" points="146,321 146,255.998 36,255.998 10,255.998 10,321 36,321 		"/>
	</g>
	<polygon style="fill:#8E6A5C;" points="146,255.998 146,321 256,321 366,321 366,255.998 256,255.998 	"/>
	<g>
		<polygon style="fill:#C68F7B;" points="366,255.998 366,321 476.002,321 501.998,321 501.998,255.998 476.002,255.998 		"/>
		<polygon style="fill:#C68F7B;" points="256,321 146,321 36,321 36,385.999 146,385.999 256,385.999 		"/>
	</g>
	<polygon style="fill:#FCC8A4;" points="256,321 256,385.999 366,385.999 476.002,385.999 476.002,321 366,321 	"/>
	<polygon style="fill:#C68F7B;" points="366,385.999 366,450.997 501.998,450.997 501.998,385.999 476.002,385.999 	"/>
	<polygon style="fill:#8E6A5C;" points="366,450.997 366,385.999 256,385.999 146,385.999 146,450.997 	"/>
	<polygon style="fill:#FCC8A4;" points="146,450.997 146,385.999 36,385.999 10,385.999 10,450.997 	"/>
</g>
<g>
	<path style="fill:#000001;" d="M334.125,375.999h-0.419c-5.522,0-10,4.478-10,10c0,5.523,4.478,10,10,10h0.419
		c5.523,0,10-4.477,10-10C344.125,380.476,339.648,375.999,334.125,375.999z"/>
	<path style="fill:#000001;" d="M501.998,331c5.523,0,10-4.477,10-10v-65.002c0-5.523-4.477-10-10-10h-15.996v-54.999
		c0-5.523-4.478-10-10-10H376V126c0-5.523-4.477-10-10-10H266V61c0-5.524-4.477-10-10-10H36c-5.522,0-10,4.476-10,10v55H10
		c-5.523,0-10,4.477-10,10v64.999c0,5.523,4.477,10,10,10h16v44.999H10c-5.523,0-10,4.477-10,10V321c0,5.523,4.477,10,10,10h16
		v44.999H10c-5.523,0-10,4.478-10,10v64.999c0,5.523,4.477,10,10,10h136h220h135.998c5.523,0,10-4.477,10-10v-64.999
		c0-5.522-4.477-10-10-10h-15.996V331H501.998z M491.998,311h-15.996H376v-45.003h100.002h15.996L491.998,311L491.998,311z M256,311
		H156v-45.003h100h100V311H256z M466.002,245.998H366H266v-44.999h100h100.002V245.998z M356,180.999H256H156V136h100h100V180.999z
		 M46,71.001h200v45H146H46V71.001z M20,136.001h16h100V181H36H20V136.001z M46,200.999h100h100v44.999H146H46V200.999z M20,265.998
		h16h100V311H36H20V265.998z M46,331h100h100v44.999H146H46V331z M20,395.999h16h100v44.999H20V395.999z M491.998,440.997H376
		v-44.999h115.998V440.997z M466.002,375.999H366c-5.523,0-10,4.478-10,10v54.999H156v-44.999h100h50.517c5.523,0,10-4.477,10-10
		c0-5.522-4.477-10-10-10H266V331h100h100.002V375.999z"/>
</g>
<g>
</g>
<g>
</g>
<g>
</g>
<g>
</g>
<g>
</g>
<g>
</g>
<g>
</g>
<g>
</g>
<g>
</g>
<g>
</g>
<g>
</g>
<g>
</g>
<g>
</g>
<g>
</g>
<g>
</g>
</svg>
