<?xml version="1.0" encoding="iso-8859-1"?>
<!-- Generator: Adobe Illustrator 19.0.0, SVG Export Plug-In . SVG Version: 6.00 Build 0)  -->
<svg version="1.1" id="Capa_1" xmlns="http://www.w3.org/2000/svg" xmlns:xlink="http://www.w3.org/1999/xlink" x="0px" y="0px"
	 viewBox="0 0 512 512" style="enable-background:new 0 0 512 512;" xml:space="preserve">
<path style="fill:#AA4141;" d="M426.973,504.429H85.027c-9.622,0-17.422-7.8-17.422-17.422V24.993c0-9.622,7.8-17.422,17.422-17.422
	h341.946c9.622,0,17.422,7.8,17.422,17.422v462.013C444.395,496.628,436.595,504.429,426.973,504.429z"/>
<path style="fill:#FFCF65;" d="M251.311,139.483L150.293,306.414c-2.21,3.653,0.42,8.318,4.689,8.318h202.036
	c4.269,0,6.899-4.665,4.689-8.318L260.689,139.483C258.556,135.959,253.444,135.959,251.311,139.483z"/>
<path style="fill:#FF915A;" d="M251.313,372.519L150.787,206.627c-2.213-3.652,0.416-8.321,4.687-8.321h201.053
	c4.271,0,6.9,4.668,4.687,8.321L260.687,372.519C258.554,376.039,253.446,376.039,251.313,372.519z"/>
<polygon style="fill:#FFB864;" points="180.762,256.079 216.304,314.733 295.713,314.733 331.255,256.079 296.294,198.306 
	215.723,198.306 "/>
<circle style="fill:#FF554D;" cx="256" cy="255.89" r="19.281"/>
<path style="fill:#963737;" d="M426.973,7.571h-43.999c12.285,46.521,18.84,95.369,18.84,145.751
	c0,132.476-45.252,254.381-121.138,351.107h146.297c9.622,0,17.422-7.8,17.422-17.423V24.993
	C444.395,15.371,436.595,7.571,426.973,7.571z"/>
<path style="fill:#772C2C;" d="M356.815,84.799h-201.63c-9.967,0-18.047-8.08-18.047-18.047l0,0c0-9.967,8.08-18.047,18.047-18.047
	h201.63c9.967,0,18.047,8.08,18.047,18.047l0,0C374.862,76.719,366.782,84.799,356.815,84.799z"/>
<path d="M426.973,0H180.762c-4.181,0-7.571,3.389-7.571,7.571s3.39,7.571,7.571,7.571h246.212c5.432,0,9.85,4.419,9.85,9.85v462.013
	c0,5.432-4.419,9.851-9.85,9.851H85.027c-5.432,0-9.851-4.419-9.851-9.851V24.993c0-5.432,4.419-9.85,9.851-9.85h52.11
	c4.181,0,7.571-3.389,7.571-7.571S141.319,0,137.137,0h-52.11C71.246,0,60.034,11.212,60.034,24.993v462.013
	c0,13.782,11.212,24.994,24.993,24.994h341.946c13.781,0,24.993-11.212,24.993-24.994V24.993C451.966,11.212,440.754,0,426.973,0z"
	/>
<path d="M368.808,315.634c2.31-4.107,2.225-9.16-0.223-13.187l-28.175-46.365l27.678-45.483c2.451-4.027,2.538-9.082,0.228-13.191
	c-2.309-4.11-6.672-6.662-11.386-6.662h-56.223l-33.542-55.197c-2.39-3.932-6.563-6.28-11.164-6.28c-4.6,0-8.774,2.348-11.162,6.28
	l-33.543,55.197h-56.223c-4.714,0-9.077,2.552-11.387,6.662c-2.31,4.109-2.223,9.163,0.228,13.19l27.678,45.484l-28.176,46.365
	c-2.447,4.027-2.533,9.08-0.223,13.187c2.31,4.108,6.673,6.659,11.385,6.659h57.303l32.961,54.166
	c2.39,3.928,6.562,6.273,11.159,6.273c4.597-0.001,8.768-2.345,11.158-6.273l32.961-54.166h57.303
	C362.135,322.293,366.498,319.741,368.808,315.634z M353.228,205.888l-21.675,35.619l-21.645-35.619H353.228z M256,146.338
	l26.986,44.408h-53.973L256,146.338z M158.772,205.888h43.321l-0.89,1.464c-2.172,3.573-1.035,8.23,2.538,10.402
	c3.574,2.17,8.23,1.035,10.402-2.539l5.668-9.327h72.377l30.499,50.189l-31.079,51.073h-71.216l-31.079-51.074l8.068-13.277
	c2.172-3.573,1.035-8.23-2.538-10.402c-3.576-2.172-8.232-1.036-10.402,2.539l-3.993,6.571L158.772,205.888z M158.276,307.15
	l22.18-36.499l22.211,36.499H158.276z M256,365.666l-26.394-43.374h52.788L256,365.666z M309.334,307.15l22.21-36.499l22.18,36.499
	H309.334z"/>
<path d="M256,282.747c14.807,0,26.853-12.046,26.853-26.852c0-14.807-12.046-26.853-26.853-26.853
	c-14.806,0-26.852,12.046-26.852,26.853C229.148,270.701,241.193,282.747,256,282.747z M256,244.184
	c6.457,0,11.711,5.254,11.711,11.711c0,6.457-5.254,11.71-11.711,11.71c-6.457,0-11.71-5.253-11.71-11.71
	S249.543,244.184,256,244.184z"/>
<path d="M382.433,66.752c0-14.126-11.492-25.618-25.618-25.618h-201.63c-14.126,0-25.618,11.492-25.618,25.618
	s11.492,25.619,25.618,25.619h201.631C370.941,92.371,382.433,80.878,382.433,66.752z M356.815,77.228h-201.63
	c-5.776,0-10.475-4.699-10.475-10.476c0-5.776,4.699-10.475,10.475-10.475h201.631c5.776,0,10.475,4.699,10.475,10.475
	C367.291,72.529,362.591,77.228,356.815,77.228z"/>
<path d="M340.747,418.517c0-4.182-3.389-7.571-7.571-7.571h-57.894c-4.182,0-7.571,3.389-7.571,7.571s3.389,7.571,7.571,7.571
	h57.894C337.358,426.088,340.747,422.699,340.747,418.517z"/>
<path d="M244.29,418.517c0-4.182-3.39-7.571-7.571-7.571h-57.895c-4.181,0-7.571,3.389-7.571,7.571s3.39,7.571,7.571,7.571h57.895
	C240.9,426.088,244.29,422.699,244.29,418.517z"/>
<path d="M220.061,460.075h71.878c4.182,0,7.571-3.389,7.571-7.571s-3.389-7.571-7.571-7.571h-71.878
	c-4.181,0-7.571,3.389-7.571,7.571S215.88,460.075,220.061,460.075z"/>
<g>
</g>
<g>
</g>
<g>
</g>
<g>
</g>
<g>
</g>
<g>
</g>
<g>
</g>
<g>
</g>
<g>
</g>
<g>
</g>
<g>
</g>
<g>
</g>
<g>
</g>
<g>
</g>
<g>
</g>
</svg>
