<svg xmlns="http://www.w3.org/2000/svg" viewBox="0 0 512 512"><path fill="#c6c5ca" d="M337.96 211.116V243.9h-32.784v-32.784h-32.784V243.9h-32.784v-32.784h-32.784V243.9H174.04v-32.784h-32.784v222.335h229.488V211.116z"/><g fill="#898890"><path d="M324.894 433.451h-97.008V319.236l22.453-22.453h52.102l22.453 22.453v114.215zM337.96 211.12h16.478v32.784H337.96zM272.39 211.12h16.478v32.784H272.39zM141.26 211.12h16.478v222.34H141.26zM206.82 211.12h16.478v32.784H206.82z"/></g><g fill="#c6c5ca"><path d="M138.636 133.233v32.784h-32.784v-32.784H73.068v32.784H40.284v-32.784H7.5v77.883h30.165v222.335h103.591V211.116h30.164v-77.883zM471.716 133.233v32.784h-32.784v-32.784h-32.784v32.784h-32.784v-32.784H340.58v77.883h30.164v222.335h103.591V211.116H504.5v-77.883z"/></g><g fill="#898890"><path d="M92.19 254.77h35.33v35.33H92.19zM425.26 254.77h35.33v35.33h-35.33zM138.64 133.23h18.18v32.784h-18.18zM471.72 133.23h18.18v32.784h-18.18zM73.07 133.23h18.18v32.784H73.07zM406.15 133.23h18.18v32.784h-18.18zM370.74 211.12h18.18v222.34h-18.18zM340.58 133.23h18.18v77.883h-18.18zM37.665 211.12h18.18v222.34h-18.18zM7.5 133.23h18.18v77.883H7.5z"/><path d="M71.794 254.77h35.33v35.33h-35.33zM404.87 254.77h35.33v35.33h-35.33z"/></g><path d="M304.504 433.451h-97.008V319.236l22.453-22.453h52.102l22.453 22.453v114.215z" fill="#ffb655"/><g fill="#ff7956"><path d="M254.926 296.784h-24.977l-22.453 22.452v114.215h24.978V319.236zM299.67 85.503H256V49.276h43.67V67.39z"/></g><path fill="#ff3f62" d="M274.333 85.503H256V49.276h18.333V67.39z"/><path fill="#ff7956" d="M299.67 67.39h43.67v36.23h-43.67z"/><path fill="#ff3f62" d="M299.67 67.39h18.663v36.23H299.67z"/><path fill="#b6e892" d="M7.5 433.45h497v29.27H7.5z"/><path fill="#95d6a6" d="M7.5 433.45H130v29.27H7.5z"/><g fill="#fff"><path d="M96.46 183.02h56.789v15H96.46zM46.46 183.02h15v15h-15zM71.46 183.02h15v15h-15zM425.31 183.02h56.789v15H425.31zM400.31 183.02h15v15h-15zM375.31 183.02h15v15h-15zM241.68 266.85h15v15h-15zM266.68 266.85h15v15h-15zM291.68 266.85h56.789v15H291.68z"/></g><g fill="#1d1d1f"><path d="M414.92 391.98h15v15h-15zM389.92 391.98h15v15h-15zM439.92 391.98h15v15h-15zM56.843 378.97h15v15h-15zM81.84 378.97h15v15h-15zM106.84 378.97h15v15h-15z"/><path d="M30.165 442.87h118.591V299.519h32.128v-15h-32.128v-63.984h30.165v-92.883h-47.784v32.784h-17.784v-32.784H65.568v32.784H47.784v-32.784H0v92.883h30.165V442.87zM15 205.535v-62.883h17.784v32.784h47.784v-32.784h17.784v32.784h47.784v-32.784h17.784v62.883h-30.165V427.87h-88.59v-98.843h26.63v-15h-26.63v-93.492h54.688v-15H15zM464.216 127.651v32.784h-17.784v-32.784h-47.784v32.784h-17.784v-32.784H333.08v92.883h30.165v176.273h-32.128v15h32.128v31.062h118.591V220.535H512v-92.883l-47.784-.001zM497 205.535h-30.165V343.6h-41.084v15h41.084v69.27h-88.591v-98.843h20.299v-15h-20.299v-93.492h54.013v-15h-84.178v-62.883h17.784v32.784h47.784v-32.784h17.784v32.784h47.784v-32.784H497v62.883z"/><path d="M114.626 249.187H64.294v50.332h50.332v-50.332zm-15 35.332H79.294v-20.332h20.332v20.332zM397.374 299.519h50.331v-50.332h-50.331v50.332zm15-35.332h20.331v20.332h-20.331v-20.332zM330.13 358.6v-15h-18.126v-25.552l-26.847-26.846h-58.315l-26.846 26.846v76.674h-31.927v15h31.927v18.147h-38.74v15h189.488v-15h-38.74V358.6h18.126zm-83.107 69.27v-86.334h-15v86.334h-17.027V324.261l18.059-18.059h45.889l18.06 18.059V427.87h-49.981z"/><path d="M264.98 374.2h15v15h-15zM264.98 324.2h15v15h-15zM264.98 349.2h15v15h-15zM263.5 94.921h28.67v18.114h58.67V61.808h-43.67V43.694H263.5v-3.837h-15v153.177h15V94.921zm72.34-18.113v21.227h-28.67V76.808h28.67zm-43.67-18.114v21.227H263.5V58.694h28.67zM497 457.143H15V435.37H0v36.773h512V435.37h-15zM166.54 233.035v20.283h47.784v-32.783h17.784v32.783h47.784v-32.783h17.784v32.783h47.784v-20.283h-15v5.283h-17.784v-32.783h-47.784v32.783h-17.784v-32.783h-47.784v32.783H181.54v-5.283z"/></g></svg>