<svg xmlns="http://www.w3.org/2000/svg" viewBox="0 0 512 512"><path d="M10.442 501.051h490.103V374.417c-43.529-17.31-87.524-38.379-121.263-62.585-77.281 47.377-143.349 113.38-368.84 115.1v74.119z" fill="#d1934c"/><g fill="#ffd21d"><path d="M162.47 163.587L10.442 426.932c139.774-1.065 218.284-26.834 276.187-57.553L162.47 163.587z"/><circle cx="55.267" cy="55.788" r="44.839"/></g><g fill="#ffad00"><path d="M328.975 119.9L208.686 240.19l77.93 129.17c35.51-18.832 63.294-39.521 92.665-57.528 33.728 24.199 77.705 45.261 121.22 62.568L328.975 119.9zM272.21 376.689c-.03.016-.062.029-.093.045.03-.015.063-.029.093-.045zM280.078 372.778l-.485.247.485-.247z"/></g><path d="M330.397 448.581c1.57-5.541-1.65-11.306-7.191-12.876-5.541-1.568-11.306 1.651-12.875 7.191-2.025 7.148-2.892 21.717 3.021 32.561a10.426 10.426 0 0 0 14.146 4.163c5.056-2.758 6.921-9.092 4.163-14.148-2.466-4.525-2.398-12.887-1.264-16.891zM55.267.521C24.792.521 0 25.313 0 55.788s24.792 55.267 55.267 55.267 55.267-24.792 55.267-55.267S85.742.521 55.267.521zm0 89.679c-18.974 0-34.411-15.437-34.411-34.411s15.437-34.411 34.411-34.411 34.411 15.437 34.411 34.411S74.241 90.2 55.267 90.2zM413.98 53.703h-4.171v-4.171c0-5.759-4.669-10.428-10.428-10.428s-10.428 4.668-10.428 10.428v4.171h-4.171c-5.758 0-10.428 4.668-10.428 10.428s4.67 10.428 10.428 10.428h4.171v4.171c0 5.759 4.67 10.428 10.428 10.428s10.428-4.668 10.428-10.428v-4.171h4.171c5.758 0 10.428-4.668 10.428-10.428s-4.67-10.428-10.428-10.428zM501.572 130.868h-4.171v-4.171c0-5.759-4.67-10.428-10.428-10.428s-10.428 4.668-10.428 10.428v4.171h-4.171c-5.758 0-10.428 4.668-10.428 10.428s4.669 10.428 10.428 10.428h4.171v4.171c0 5.759 4.67 10.428 10.428 10.428s10.428-4.668 10.428-10.428v-4.171h4.171c5.758 0 10.428-4.668 10.428-10.428s-4.669-10.428-10.428-10.428zM69.866 174.55h-4.171v-4.171c0-5.759-4.67-10.428-10.428-10.428s-10.428 4.668-10.428 10.428v4.171h-4.171c-5.758 0-10.428 4.668-10.428 10.428 0 5.759 4.67 10.428 10.428 10.428h4.171v4.171c0 5.759 4.67 10.428 10.428 10.428s10.428-4.668 10.428-10.428v-4.171h4.171c5.758 0 10.428-4.668 10.428-10.428-.001-5.76-4.67-10.428-10.428-10.428zM171.014 77.686h-4.171v-4.171c0-5.759-4.668-10.428-10.428-10.428-5.759 0-10.428 4.668-10.428 10.428v4.171h-4.171c-5.759 0-10.428 4.668-10.428 10.428 0 5.759 4.668 10.428 10.428 10.428h4.171v4.171c0 5.759 4.668 10.428 10.428 10.428 5.759 0 10.428-4.668 10.428-10.428v-4.171h4.171c5.759 0 10.428-4.668 10.428-10.428 0-5.759-4.669-10.428-10.428-10.428z"/><path d="M508.785 368.033l-171.163-253.96a10.42 10.42 0 0 0-7.646-4.551 10.406 10.406 0 0 0-8.374 3.005L210.733 223.395 171.398 158.2a10.43 10.43 0 0 0-8.929-5.041h-.101a10.43 10.43 0 0 0-8.93 5.214L1.798 421.049c-.057.099-.101.2-.153.3a10.381 10.381 0 0 0-1.63 5.582v74.12c0 5.759 4.668 10.428 10.428 10.428h490.103c5.759 0 10.428-4.668 10.428-10.428V374.417a10.426 10.426 0 0 0-2.189-6.384zM327.402 136.222l144.933 215.042c-35.224-15.645-64.391-31.701-86.973-47.904a10.426 10.426 0 0 0-11.529-.417c-10.439 6.401-20.415 12.963-30.979 19.912-16.378 10.776-33.301 21.909-52.462 32.574l-68.56-113.636 105.57-105.571zm-55.491 228.947c-20.83 10.359-44.453 19.985-72.595 28.039l-21.024-183.209 93.619 155.17zm-116.2-169.019l23.227 202.403c-40.147 9.632-88.9 16.17-150.268 17.659L155.711 196.15zm334.407 294.473H20.87v-53.389c190.88-3.171 266.552-52.949 333.447-96.957 8.032-5.285 15.722-10.337 23.476-15.23 13.091 13.76 25.33 32.121 22.407 45.103-1.782 7.919-9.841 14.27-23.95 18.878-16.029 5.236-29.448 11.504-39.885 18.632-4.756 3.248-5.977 9.737-2.729 14.492a10.417 10.417 0 0 0 8.621 4.546c2.025 0 4.073-.589 5.873-1.818 8.804-6.014 20.446-11.407 34.596-16.029 21.587-7.05 34.312-18.531 37.822-34.124 2.027-9.005.614-18.169-2.64-26.86 21.137 11.415 45.249 22.645 72.213 33.594V490.62h-.003z"/></svg>