<?xml version="1.0" encoding="iso-8859-1"?>
<!-- Generator: Adobe Illustrator 19.0.0, SVG Export Plug-In . SVG Version: 6.00 Build 0)  -->
<svg version="1.1" id="Layer_1" xmlns="http://www.w3.org/2000/svg" xmlns:xlink="http://www.w3.org/1999/xlink" x="0px" y="0px"
	 viewBox="0 0 512 512" style="enable-background:new 0 0 512 512;" xml:space="preserve">
<path style="fill:#D1934C;" d="M10.442,501.051h490.103V374.417c-43.529-17.31-87.524-38.379-121.263-62.585
	c-77.281,47.377-143.349,113.38-368.84,115.1C10.442,426.932,10.442,501.051,10.442,501.051z"/>
<g>
	<path style="fill:#FFD21D;" d="M162.47,163.587L10.442,426.932c139.774-1.065,218.284-26.834,276.187-57.553L162.47,163.587z"/>
	<circle style="fill:#FFD21D;" cx="55.267" cy="55.788" r="44.839"/>
</g>
<g>
	<path style="fill:#FFAD00;" d="M328.975,119.9L208.686,240.19l77.93,129.17c35.51-18.832,63.294-39.521,92.665-57.528
		c33.728,24.199,77.705,45.261,121.22,62.568L328.975,119.9z"/>
	<path style="fill:#FFAD00;" d="M272.21,376.689c-0.03,0.016-0.062,0.029-0.093,0.045
		C272.147,376.719,272.18,376.705,272.21,376.689z"/>
	<path style="fill:#FFAD00;" d="M280.078,372.778c-0.162,0.083-0.324,0.165-0.485,0.247
		C279.753,372.944,279.916,372.861,280.078,372.778z"/>
</g>
<path d="M330.397,448.581c1.57-5.541-1.65-11.306-7.191-12.876c-5.541-1.568-11.306,1.651-12.875,7.191
	c-2.025,7.148-2.892,21.717,3.021,32.561c1.893,3.47,5.47,5.437,9.164,5.437c1.686,0,3.398-0.411,4.982-1.274
	c5.056-2.758,6.921-9.092,4.163-14.148C329.195,460.947,329.263,452.585,330.397,448.581z"/>
<path d="M55.267,0.521C24.792,0.521,0,25.313,0,55.788s24.792,55.267,55.267,55.267s55.267-24.792,55.267-55.267
	S85.742,0.521,55.267,0.521z M55.267,90.2c-18.974,0-34.411-15.437-34.411-34.411s15.437-34.411,34.411-34.411
	s34.411,15.437,34.411,34.411S74.241,90.2,55.267,90.2z"/>
<path d="M413.98,53.703h-4.171v-4.171c0-5.759-4.669-10.428-10.428-10.428s-10.428,4.668-10.428,10.428v4.171h-4.171
	c-5.758,0-10.428,4.668-10.428,10.428s4.67,10.428,10.428,10.428h4.171v4.171c0,5.759,4.67,10.428,10.428,10.428
	s10.428-4.668,10.428-10.428v-4.171h4.171c5.758,0,10.428-4.668,10.428-10.428S419.738,53.703,413.98,53.703z"/>
<path d="M501.572,130.868h-4.171v-4.171c0-5.759-4.67-10.428-10.428-10.428s-10.428,4.668-10.428,10.428v4.171h-4.171
	c-5.758,0-10.428,4.668-10.428,10.428s4.669,10.428,10.428,10.428h4.171v4.171c0,5.759,4.67,10.428,10.428,10.428
	s10.428-4.668,10.428-10.428v-4.171h4.171c5.758,0,10.428-4.668,10.428-10.428S507.331,130.868,501.572,130.868z"/>
<path d="M69.866,174.55h-4.171v-4.171c0-5.759-4.67-10.428-10.428-10.428s-10.428,4.668-10.428,10.428v4.171h-4.171
	c-5.758,0-10.428,4.668-10.428,10.428c0,5.759,4.67,10.428,10.428,10.428h4.171v4.171c0,5.759,4.67,10.428,10.428,10.428
	s10.428-4.668,10.428-10.428v-4.171h4.171c5.758,0,10.428-4.668,10.428-10.428C80.293,179.218,75.624,174.55,69.866,174.55z"/>
<path d="M171.014,77.686h-4.171v-4.171c0-5.759-4.668-10.428-10.428-10.428c-5.759,0-10.428,4.668-10.428,10.428v4.171h-4.171
	c-5.759,0-10.428,4.668-10.428,10.428c0,5.759,4.668,10.428,10.428,10.428h4.171v4.171c0,5.759,4.668,10.428,10.428,10.428
	c5.759,0,10.428-4.668,10.428-10.428v-4.171h4.171c5.759,0,10.428-4.668,10.428-10.428
	C181.442,82.355,176.773,77.686,171.014,77.686z"/>
<path d="M508.785,368.033l-171.163-253.96c-1.74-2.584-4.544-4.252-7.646-4.551c-3.098-0.306-6.172,0.803-8.374,3.005
	L210.733,223.395L171.398,158.2c-1.889-3.13-5.277-5.041-8.929-5.041c-0.032,0-0.067,0-0.101,0c-3.689,0.036-7.086,2.019-8.93,5.214
	L1.798,421.049c-0.057,0.099-0.101,0.2-0.153,0.3c-1.026,1.616-1.63,3.528-1.63,5.582v74.12c0,5.759,4.668,10.428,10.428,10.428
	h490.103c5.759,0,10.428-4.668,10.428-10.428V374.417C510.973,372.053,510.171,369.823,508.785,368.033z M327.402,136.222
	l144.933,215.042c-35.224-15.645-64.391-31.701-86.973-47.904c-3.41-2.447-7.952-2.61-11.529-0.417
	c-10.439,6.401-20.415,12.963-30.979,19.912c-16.378,10.776-33.301,21.909-52.462,32.574l-68.56-113.636L327.402,136.222z
	 M271.911,365.169c-20.83,10.359-44.453,19.985-72.595,28.039l-21.024-183.209L271.911,365.169z M155.711,196.15l23.227,202.403
	c-40.147,9.632-88.9,16.17-150.268,17.659L155.711,196.15z M490.118,490.623H20.87v-53.389
	c190.88-3.171,266.552-52.949,333.447-96.957c8.032-5.285,15.722-10.337,23.476-15.23c13.091,13.76,25.33,32.121,22.407,45.103
	c-1.782,7.919-9.841,14.27-23.95,18.878c-16.029,5.236-29.448,11.504-39.885,18.632c-4.756,3.248-5.977,9.737-2.729,14.492
	c2.019,2.956,5.291,4.546,8.621,4.546c2.025,0,4.073-0.589,5.873-1.818c8.804-6.014,20.446-11.407,34.596-16.029
	c21.587-7.05,34.312-18.531,37.822-34.124c2.027-9.005,0.614-18.169-2.64-26.86c21.137,11.415,45.249,22.645,72.213,33.594v109.159
	H490.118z"/>
<g>
</g>
<g>
</g>
<g>
</g>
<g>
</g>
<g>
</g>
<g>
</g>
<g>
</g>
<g>
</g>
<g>
</g>
<g>
</g>
<g>
</g>
<g>
</g>
<g>
</g>
<g>
</g>
<g>
</g>
</svg>
