<svg xmlns="http://www.w3.org/2000/svg" viewBox="0 0 512.008 512.008"><path d="M501.548 477.655c-64.441-34.952-150.715-56.333-245.542-56.333-94.826 0-181.101 21.381-245.542 56.333h491.084z" fill="#90de3f"/><g fill="#ffad00"><path d="M256.12 384.04l-.005-.013c-.137.027-31.867 4.1-49.034-12.957-17.167-17.068-13.289-48.81-13.275-48.946l-.003-.006.011.002v-.008l.004.006c.263-.031 31.893-4.063 49.03 12.967 17.208 17.098 13.272 48.955 13.272 48.955z"/><path d="M269.43 335.085c17.137-17.03 48.767-12.998 49.03-12.967l.004-.006v.008l.011-.002-.003.006c.014.137 3.892 31.879-13.275 48.946-17.166 17.057-48.897 12.986-49.034 12.957l-.005.013s-3.937-31.857 13.272-48.955zM256.12 299.696l-.005-.013c-.137.027-31.867 4.1-49.034-12.957-17.167-17.068-13.289-48.81-13.275-48.946l-.003-.006.011.002v-.008l.004.006c.263-.031 31.893-4.063 49.03 12.967 17.208 17.099 13.272 48.955 13.272 48.955z"/><path d="M269.43 250.742c17.137-17.03 48.767-12.998 49.03-12.967l.004-.006v.008l.011-.002-.003.006c.014.137 3.892 31.879-13.275 48.946-17.166 17.057-48.897 12.986-49.034 12.957l-.005.013c0-.001-3.937-31.857 13.272-48.955zM256.12 215.354l-.005-.013c-.137.027-31.867 4.1-49.034-12.957-17.167-17.068-13.289-48.81-13.275-48.946l-.003-.006.011.002v-.008l.004.006c.263-.031 31.893-4.063 49.03 12.967 17.208 17.099 13.272 48.955 13.272 48.955z"/><path d="M269.43 166.398c17.137-17.03 48.767-12.998 49.03-12.967l.004-.006v.008l.011-.002-.003.006c.014.137 3.892 31.879-13.275 48.946-17.166 17.057-48.897 12.986-49.034 12.957l-.005.013c0 .001-3.937-31.855 13.272-48.955zM438.815 413.068l-.005-.013c-.137.027-31.867 4.1-49.034-12.957-17.167-17.068-13.289-48.81-13.275-48.946l-.003-.006.012.002v-.008l.004.006c.263-.031 31.892-4.063 49.03 12.967 17.208 17.098 13.271 48.955 13.271 48.955z"/><path d="M452.125 364.113c17.137-17.03 48.767-12.998 49.03-12.967l.004-.006v.008l.012-.002-.003.006c.014.137 3.892 31.879-13.275 48.946-17.166 17.057-48.897 12.986-49.034 12.957l-.005.013c-.001 0-3.937-31.857 13.271-48.955zM438.815 328.726l-.005-.013c-.137.027-31.867 4.1-49.034-12.957-17.167-17.068-13.289-48.81-13.275-48.946l-.003-.006.012.002v-.008l.004.006c.263-.031 31.892-4.063 49.03 12.967 17.208 17.097 13.271 48.955 13.271 48.955z"/><path d="M452.125 279.77c17.137-17.03 48.767-12.998 49.03-12.967l.004-.006v.008l.012-.002-.003.006c.014.137 3.892 31.879-13.275 48.946-17.166 17.057-48.897 12.986-49.034 12.957l-.005.013c-.001.001-3.937-31.857 13.271-48.955zM438.815 244.383l-.005-.013c-.137.027-31.867 4.1-49.034-12.957-17.167-17.068-13.289-48.81-13.275-48.946l-.003-.006.012.002v-.008l.004.006c.263-.031 31.892-4.063 49.03 12.967 17.208 17.098 13.271 48.955 13.271 48.955z"/><path d="M452.125 195.427c17.137-17.03 48.767-12.998 49.03-12.967l.004-.006v.008l.012-.002-.003.006c.014.137 3.892 31.879-13.275 48.946-17.166 17.057-48.897 12.986-49.034 12.957l-.005.013c-.001.001-3.937-31.856 13.271-48.955zM73.162 413.068l-.005-.013c-.137.027-31.867 4.1-49.034-12.957-17.167-17.068-13.289-48.81-13.275-48.946l-.003-.006.011.002v-.008l.004.006c.263-.031 31.892-4.063 49.03 12.967 17.209 17.098 13.272 48.955 13.272 48.955z"/><path d="M86.472 364.113c17.137-17.03 48.767-12.998 49.03-12.967l.004-.006v.008l.012-.002-.003.006c.014.137 3.892 31.879-13.275 48.946-17.166 17.057-48.897 12.986-49.034 12.957l-.005.013c-.001 0-3.937-31.857 13.271-48.955zM73.162 328.726l-.005-.013c-.137.027-31.867 4.1-49.034-12.957-17.167-17.068-13.289-48.81-13.275-48.946l-.003-.006.011.002v-.008l.004.006c.263-.031 31.892-4.063 49.03 12.967 17.209 17.097 13.272 48.955 13.272 48.955z"/><path d="M86.472 279.77c17.137-17.03 48.767-12.998 49.03-12.967l.004-.006v.008l.012-.002-.003.006c.014.137 3.892 31.879-13.275 48.946-17.166 17.057-48.897 12.986-49.034 12.957l-.005.013c-.001.001-3.937-31.857 13.271-48.955zM73.162 244.383l-.005-.013c-.137.027-31.867 4.1-49.034-12.957-17.167-17.068-13.289-48.81-13.275-48.946l-.003-.006.011.002v-.008l.004.006c.263-.031 31.892-4.063 49.03 12.967 17.209 17.098 13.272 48.955 13.272 48.955z"/><path d="M86.472 195.427c17.137-17.03 48.767-12.998 49.03-12.967l.004-.006v.008l.012-.002-.003.006c.014.137 3.892 31.879-13.275 48.946-17.166 17.057-48.897 12.986-49.034 12.957l-.005.013c-.001.001-3.937-31.856 13.271-48.955z"/></g><path d="M386.993 467.206h-12.791c-5.77 0-10.449 4.678-10.449 10.449s4.679 10.449 10.449 10.449h12.791c5.77 0 10.449-4.678 10.449-10.449 0-5.772-4.678-10.449-10.449-10.449zM247.569 310.578h17.14c11.692 0 33.458-2.135 47.855-16.44 19.773-19.659 16.794-53.012 16.304-57.406-.998-9.84-11.647-9.843-18.941-9.843-11.695 0-33.466 2.136-47.862 16.441-2.268 2.253-4.22 4.698-5.926 7.253-1.707-2.556-3.659-5-5.926-7.252-13.675-13.589-33.577-16.442-47.863-16.442-7.248 0-17.954-.11-18.942 9.855-.493 4.426-3.454 37.748 16.307 57.396 14.397 14.303 36.162 16.439 47.854 16.438 3.511 0-11.692.001 0 0zm29.226-52.425c8.546-8.492 22.849-10.183 31.57-10.352-.23 9.098-2.083 23.114-10.533 31.515-8.337 8.286-22.145 10.091-30.908 10.331-.04-1.798-.132-3.751-.299-5.822.85-8.536 3.376-18.921 10.17-25.672zm-41.31.001c6.525 6.484 9.232 16.77 10.172 25.637a99.827 99.827 0 0 0-.302 5.854c-8.763-.238-22.569-2.044-30.906-10.328-8.451-8.402-10.305-22.42-10.535-31.517 8.719.17 23.024 1.861 31.571 10.354zM247.569 226.236h17.14c11.692 0 33.458-2.137 47.855-16.442 19.773-19.658 16.794-53.012 16.304-57.406-.998-9.839-11.647-9.843-18.941-9.843-11.695 0-33.466 2.137-47.862 16.442-2.268 2.253-4.22 4.698-5.926 7.252-1.707-2.555-3.659-5-5.926-7.252-13.675-13.589-33.577-16.442-47.863-16.442-7.021 0-17.995.295-18.942 9.856-.493 4.425-3.454 37.748 16.307 57.396 14.397 14.304 36.162 16.439 47.854 16.439zm29.226-52.425c8.546-8.492 22.849-10.183 31.57-10.352-.23 9.097-2.083 23.113-10.533 31.515-8.337 8.285-22.145 10.089-30.908 10.331a100.28 100.28 0 0 0-.299-5.823c.85-8.537 3.376-18.921 10.17-25.671zm-41.31 0c6.525 6.483 9.232 16.769 10.172 25.636a99.846 99.846 0 0 0-.302 5.856c-8.763-.24-22.569-2.045-30.906-10.328-8.451-8.403-10.305-22.421-10.535-31.517 8.719.17 23.024 1.861 31.571 10.353z"/><path d="M256.006 146.565c5.77 0 10.449-4.678 10.449-10.449V98.371c0-5.771-4.679-10.449-10.449-10.449-5.771 0-10.449 4.678-10.449 10.449v37.746c0 5.77 4.679 10.448 10.449 10.448zM256.006 73.294c5.77 0 10.449-4.678 10.449-10.449v-9.49c0-5.77-4.679-10.449-10.449-10.449-5.771 0-10.449 4.679-10.449 10.449v9.49c0 5.771 4.679 10.449 10.449 10.449zM297.8 127.692c5.771 0 10.449-4.678 10.449-10.449V79.498c0-5.771-4.678-10.449-10.449-10.449-5.77 0-10.449 4.678-10.449 10.449v37.746c0 5.771 4.679 10.448 10.449 10.448zM297.8 54.421c5.771 0 10.449-4.678 10.449-10.449v-9.49c0-5.77-4.678-10.449-10.449-10.449-5.77 0-10.449 4.678-10.449 10.449v9.49c0 5.772 4.679 10.449 10.449 10.449zM214.211 127.56c5.77 0 10.449-4.679 10.449-10.449V79.366c0-5.77-4.679-10.449-10.449-10.449-5.771 0-10.449 4.679-10.449 10.449v37.746c.001 5.77 4.679 10.448 10.449 10.448zM214.211 54.289c5.77 0 10.449-4.679 10.449-10.449v-9.49c0-5.771-4.679-10.449-10.449-10.449-5.771 0-10.449 4.678-10.449 10.449v9.49c.001 5.771 4.679 10.449 10.449 10.449zM495.26 407.508c19.773-19.659 16.794-53.012 16.304-57.406-.998-9.84-11.647-9.843-18.941-9.843-11.695 0-33.466 2.136-47.862 16.441-2.268 2.253-4.22 4.698-5.926 7.253-1.707-2.556-3.659-5-5.926-7.252-13.675-13.589-33.577-16.442-47.863-16.442-7.247 0-17.955-.11-18.942 9.855-.493 4.426-3.454 37.748 16.307 57.396 13.669 13.581 33.973 16.19 45.998 16.42v12.032c-49.613-15.418-104.813-24.036-161.799-24.989v-16.072c12.033-.236 32.302-2.857 45.952-16.422 19.773-19.658 16.794-53.012 16.304-57.406-.998-9.839-11.647-9.843-18.941-9.843-11.695 0-33.466 2.137-47.862 16.442-2.268 2.253-4.22 4.698-5.926 7.252-1.707-2.555-3.659-5-5.926-7.252-13.675-13.589-33.577-16.442-47.863-16.442-7.247 0-17.955-.108-18.942 9.856-.493 4.425-3.454 37.748 16.307 57.396 13.669 13.58 33.973 16.19 45.998 16.419v16.065c-57.078.927-112.369 9.545-162.061 24.98V423.93c12.033-.235 32.302-2.856 45.952-16.42 19.773-19.659 16.794-53.012 16.305-57.406-.998-9.84-11.647-9.843-18.941-9.843-11.695 0-33.466 2.136-47.862 16.441-2.267 2.253-4.22 4.698-5.926 7.253-1.707-2.556-3.659-5-5.926-7.252-13.675-13.589-33.577-16.442-47.863-16.442-7.247 0-17.955-.11-18.942 9.855-.493 4.426-3.454 37.748 16.307 57.396 13.669 13.581 33.973 16.19 45.998 16.42v19.037c-20.281 7.333-39.475 15.849-57.274 25.503a10.448 10.448 0 0 0 4.981 19.633h328.213c5.77 0 10.449-4.678 10.449-10.449s-4.679-10.449-10.449-10.449H57.678c58.118-23.015 126.885-35.435 198.329-35.435s140.21 12.42 198.328 35.435H422.52c-5.77 0-10.449 4.678-10.449 10.449s4.679 10.449 10.449 10.449h79.029c4.78 0 8.951-3.244 10.127-7.879a10.444 10.444 0 0 0-5.146-11.754c-17.785-9.646-36.961-18.155-57.223-25.485V423.93c12.032-.237 32.301-2.857 45.953-16.422 19.771-19.659-13.652 13.565 0 0zM93.837 371.524c8.546-8.492 22.849-10.183 31.57-10.352-.23 9.098-2.083 23.114-10.533 31.515-8.337 8.286-22.145 10.091-30.908 10.331-.04-1.798-.132-3.751-.299-5.822.85-8.536 3.375-18.921 10.17-25.672zm-72.882-10.353c8.721.169 23.025 1.861 31.571 10.354 6.525 6.484 9.231 16.77 10.172 25.637a99.827 99.827 0 0 0-.302 5.854c-8.763-.238-22.569-2.044-30.906-10.328-8.451-8.402-10.305-22.42-10.535-31.517zm255.84-18.675c8.546-8.492 22.849-10.183 31.57-10.352-.23 9.097-2.083 23.113-10.533 31.515-8.337 8.285-22.145 10.089-30.908 10.331a100.28 100.28 0 0 0-.299-5.823c.85-8.535 3.376-18.921 10.17-25.671zm-72.882-10.352c8.721.169 23.025 1.861 31.571 10.352 6.525 6.483 9.232 16.769 10.172 25.636a99.846 99.846 0 0 0-.302 5.856c-8.763-.24-22.569-2.045-30.906-10.328-8.45-8.402-10.306-22.42-10.535-31.516zm255.577 39.38c8.546-8.492 22.849-10.183 31.57-10.352-.23 9.098-2.083 23.114-10.533 31.515-8.337 8.286-22.145 10.091-30.908 10.331-.04-1.798-.132-3.751-.299-5.822.85-8.536 3.376-18.921 10.17-25.672zm-72.882-10.353c8.721.169 23.025 1.861 31.571 10.354 6.525 6.484 9.232 16.77 10.172 25.637a99.827 99.827 0 0 0-.302 5.854c-8.763-.238-22.569-2.044-30.906-10.328-8.451-8.402-10.305-22.42-10.535-31.517z"/><path d="M509.521 260.532c-3.879-5.169-11.272-4.616-16.898-4.616-11.695 0-33.466 2.137-47.862 16.442-2.268 2.253-4.22 4.698-5.926 7.252-1.707-2.555-3.659-5-5.926-7.252-13.675-13.589-33.577-16.442-47.863-16.442-7.247 0-17.955-.109-18.942 9.856-.493 4.425-3.454 37.748 16.307 57.396 14.396 14.304 36.161 16.439 47.854 16.439h17.14c11.692 0 33.458-2.137 47.855-16.442 19.773-19.659 16.794-53.012 16.304-57.406a10.472 10.472 0 0 0-2.043-5.227c-.54-.719 1.166 1.554 0 0zM386.608 276.83c8.721.169 23.025 1.861 31.571 10.352 6.525 6.483 9.232 16.769 10.172 25.636a99.846 99.846 0 0 0-.302 5.856c-8.763-.239-22.569-2.045-30.906-10.328-8.451-8.402-10.305-22.42-10.535-31.516zm93.919 31.515c-8.337 8.285-22.145 10.089-30.908 10.331a100.28 100.28 0 0 0-.299-5.823c.851-8.534 3.377-18.92 10.17-25.669 8.546-8.492 22.849-10.183 31.57-10.352-.23 9.094-2.083 23.111-10.533 31.513zM430.264 255.263h17.14c11.692 0 33.458-2.135 47.855-16.44 19.773-19.659 16.794-53.012 16.304-57.406-.998-9.84-11.647-9.843-18.941-9.843-11.695 0-33.466 2.136-47.862 16.441-2.268 2.253-4.22 4.698-5.926 7.253-1.707-2.556-3.659-5-5.926-7.252-13.675-13.589-33.577-16.442-47.863-16.442-7.247 0-17.955-.11-18.942 9.855-.493 4.426-3.454 37.748 16.307 57.396 14.398 14.303 36.162 16.439 47.854 16.438 3.512 0-11.692.001 0 0zm29.226-52.425c8.546-8.492 22.849-10.183 31.57-10.352-.23 9.098-2.083 23.114-10.533 31.515-8.337 8.286-22.145 10.091-30.908 10.331-.04-1.798-.132-3.751-.299-5.822.85-8.535 3.376-18.921 10.17-25.672zm-41.311.001c6.525 6.484 9.232 16.77 10.172 25.637a99.815 99.815 0 0 0-.302 5.855c-8.763-.239-22.569-2.044-30.906-10.328-8.451-8.402-10.305-22.42-10.535-31.517 8.721.169 23.024 1.86 31.571 10.353z"/><path d="M438.701 175.593c5.77 0 10.449-4.679 10.449-10.449v-37.746c0-5.77-4.679-10.449-10.449-10.449-5.771 0-10.449 4.679-10.449 10.449v37.746c.001 5.771 4.679 10.449 10.449 10.449zM438.701 102.322c5.77 0 10.449-4.679 10.449-10.449v-9.49c0-5.771-4.679-10.449-10.449-10.449-5.771 0-10.449 4.678-10.449 10.449v9.49c.001 5.772 4.679 10.449 10.449 10.449zM480.496 156.721c5.77 0 10.449-4.679 10.449-10.449v-37.746c0-5.77-4.679-10.449-10.449-10.449-5.771 0-10.449 4.679-10.449 10.449v37.746c0 5.77 4.678 10.449 10.449 10.449zM480.496 83.45c5.77 0 10.449-4.679 10.449-10.449v-9.49c0-5.771-4.679-10.449-10.449-10.449-5.771 0-10.449 4.678-10.449 10.449v9.49c0 5.77 4.678 10.449 10.449 10.449zM396.907 156.589c5.77 0 10.449-4.678 10.449-10.449v-37.746c0-5.771-4.679-10.449-10.449-10.449-5.771 0-10.449 4.678-10.449 10.449v37.746c0 5.772 4.678 10.449 10.449 10.449zM396.907 83.319c5.77 0 10.449-4.678 10.449-10.449v-9.49c0-5.77-4.679-10.449-10.449-10.449-5.771 0-10.449 4.679-10.449 10.449v9.49c0 5.771 4.678 10.449 10.449 10.449zM64.611 339.607h17.14c11.692 0 33.457-2.137 47.855-16.442 19.773-19.659 16.794-53.012 16.305-57.406-.998-9.839-11.648-9.843-18.941-9.843-11.695 0-33.466 2.137-47.862 16.442-2.267 2.253-4.22 4.698-5.926 7.252-1.707-2.555-3.659-5-5.926-7.252-13.675-13.589-33.577-16.442-47.863-16.442-7.247 0-17.955-.109-18.942 9.856-.493 4.425-3.454 37.748 16.307 57.396 14.397 14.304 36.161 16.439 47.853 16.439zm29.226-52.425c8.546-8.492 22.849-10.183 31.57-10.352-.23 9.097-2.083 23.113-10.533 31.515-8.337 8.285-22.145 10.089-30.908 10.331a100.28 100.28 0 0 0-.299-5.823c.85-8.536 3.375-18.921 10.17-25.671zm-41.311 0c6.525 6.483 9.231 16.769 10.172 25.636a99.846 99.846 0 0 0-.302 5.856c-8.763-.239-22.569-2.045-30.906-10.328-8.451-8.403-10.305-22.421-10.535-31.517 8.721.17 23.025 1.862 31.571 10.353zM64.611 255.263h17.14c11.692 0 33.457-2.135 47.855-16.44 19.773-19.659 16.794-53.012 16.305-57.406-.998-9.84-11.647-9.843-18.941-9.843-11.695 0-33.466 2.136-47.862 16.441-2.267 2.253-4.22 4.698-5.926 7.253-1.707-2.556-3.659-5-5.926-7.252-13.675-13.589-33.577-16.442-47.863-16.442-7.247 0-17.955-.11-18.942 9.855-.493 4.426-3.454 37.748 16.307 57.396 14.397 14.303 36.161 16.439 47.853 16.438 3.512 0-11.692.001 0 0zm29.226-52.425c8.546-8.492 22.849-10.183 31.57-10.352-.23 9.098-2.083 23.114-10.533 31.515-8.337 8.286-22.145 10.091-30.908 10.331-.04-1.798-.132-3.751-.299-5.822.85-8.535 3.375-18.921 10.17-25.672zm-41.311.001c6.525 6.484 9.231 16.77 10.172 25.637a99.815 99.815 0 0 0-.302 5.855c-8.763-.239-22.569-2.044-30.906-10.328-8.451-8.402-10.305-22.42-10.535-31.517 8.721.169 23.025 1.86 31.571 10.353z"/><path d="M73.155 175.593c5.77 0 10.449-4.679 10.449-10.449v-37.746c0-5.77-4.679-10.449-10.449-10.449s-10.449 4.679-10.449 10.449v37.746c.001 5.771 4.679 10.449 10.449 10.449zM73.155 102.322c5.77 0 10.449-4.679 10.449-10.449v-9.49c0-5.771-4.679-10.449-10.449-10.449s-10.449 4.678-10.449 10.449v9.49c.001 5.772 4.679 10.449 10.449 10.449zM114.95 156.721c5.77 0 10.449-4.679 10.449-10.449v-37.746c0-5.77-4.679-10.449-10.449-10.449s-10.449 4.679-10.449 10.449v37.746c0 5.77 4.679 10.449 10.449 10.449zM114.95 83.45c5.77 0 10.449-4.679 10.449-10.449v-9.49c0-5.771-4.679-10.449-10.449-10.449s-10.449 4.678-10.449 10.449v9.49c0 5.77 4.679 10.449 10.449 10.449zM31.361 156.589c5.771 0 10.449-4.678 10.449-10.449v-37.746c0-5.771-4.679-10.449-10.449-10.449s-10.449 4.678-10.449 10.449v37.746c0 5.772 4.679 10.449 10.449 10.449zM31.361 83.319c5.771 0 10.449-4.678 10.449-10.449v-9.49c0-5.77-4.679-10.449-10.449-10.449S20.912 57.61 20.912 63.38v9.49c0 5.771 4.679 10.449 10.449 10.449z"/></svg>