<?xml version="1.0" encoding="iso-8859-1"?>
<!-- Generator: Adobe Illustrator 19.0.0, SVG Export Plug-In . SVG Version: 6.00 Build 0)  -->
<svg version="1.1" id="Layer_1" xmlns="http://www.w3.org/2000/svg" xmlns:xlink="http://www.w3.org/1999/xlink" x="0px" y="0px"
	 viewBox="0 0 512.003 512.003" style="enable-background:new 0 0 512.003 512.003;" xml:space="preserve">
<path style="fill:#EFBB6A;" d="M434.493,77.673c64.715,64.715,87.061,147.283,49.924,184.431
	c-37.148,37.137-119.716,14.79-184.431-49.925c-64.703-64.703-87.061-147.283-49.913-184.419
	C287.21-9.388,369.778,12.97,434.493,77.673z M460.379,238.066c8.724-8.724,10.393-27.03,4.457-48.959
	c-7.782-28.77-27.602-60.615-54.382-87.395c-26.768-26.768-58.625-46.587-87.395-54.37c-21.917-5.947-40.223-4.279-48.947,4.457
	c-8.736,8.724-10.404,27.03-4.469,48.947c7.794,28.77,27.614,60.627,54.382,87.395c26.78,26.78,58.625,46.599,87.395,54.382
	C433.349,248.458,451.655,246.79,460.379,238.066z"/>
<path style="fill:#F97C64;" d="M464.836,189.107c5.935,21.929,4.267,40.235-4.457,48.959c-8.724,8.724-27.03,10.393-48.959,4.457
	c-28.77-7.782-60.615-27.602-87.395-54.382c-26.768-26.768-46.587-58.625-54.382-87.395c-5.935-21.917-4.267-40.223,4.469-48.947
	c8.724-8.736,27.03-10.404,48.947-4.457c28.77,7.782,60.627,27.602,87.395,54.37C437.234,128.492,457.053,160.337,464.836,189.107z"
	/>
<path style="fill:#D88948;" d="M299.986,212.18c64.715,64.715,147.283,87.061,184.431,49.925
	C377.989,368.532,248.739,416.717,175.073,382.858c-10.142-4.66-19.236-10.869-27.066-18.699
	c-7.83-7.83-14.039-16.912-18.687-27.054c-33.859-73.665,14.325-202.916,120.753-309.344
	C212.925,64.897,235.283,147.477,299.986,212.18z"/>
<path style="fill:#C4783F;" d="M221.554,382.858c-10.142-4.66-19.236-10.869-27.066-18.699c-7.83-7.83-14.039-16.912-18.687-27.054
	c-26.37-57.372-2.969-148.46,58.946-236.224c-6.171-29.816-1.608-56.19,15.327-73.119
	C143.646,134.189,95.461,263.439,129.32,337.105c4.648,10.142,10.857,19.224,18.687,27.054s16.924,14.039,27.066,18.699
	c21.817,10.028,48.51,12.857,78.04,9.111C241.763,390.293,231.18,387.283,221.554,382.858z"/>
<path style="fill:#E6E6E6;" d="M175.073,382.858l-54.823,54.811c14.635,15.374,14.421,39.675-0.667,54.763
	c-15.315,15.303-40.152,15.315-55.466,0c-9.07-9.07-12.764-21.488-11.096-33.287c-11.787,1.68-24.205-2.014-33.275-11.084
	c-15.315-15.315-15.303-40.152,0-55.466c15.088-15.088,39.389-15.303,54.763-0.679l54.811-54.811
	c4.648,10.142,10.857,19.224,18.687,27.054C155.838,371.989,164.931,378.198,175.073,382.858z"/>
<path style="fill:#CCCCCC;" d="M86.761,481.706c-9.07-9.07-12.764-21.488-11.096-33.287c-11.787,1.68-24.205-2.014-33.275-11.084
	c-15.315-15.315-15.303-40.152,0-55.466c0.167-0.167,0.341-0.322,0.509-0.485c-8.461,0.987-16.66,4.717-23.153,11.211
	c-15.303,15.315-15.315,40.152,0,55.466c9.07,9.07,21.488,12.764,33.275,11.084c-1.669,11.799,2.026,24.217,11.096,33.287
	c15.15,15.15,39.615,15.291,54.965,0.476C107.576,494.257,95.587,490.532,86.761,481.706z"/>
<path d="M506.933,177.061c-9.83-36.318-33.078-74.153-65.464-106.539c-32.387-32.381-70.222-55.627-106.536-65.457
	c-38.058-10.301-70.204-4.779-90.523,15.545l0,0l0,0c-26.783,26.783-50.466,55.5-70.391,85.352
	c-2.741,4.106-1.633,9.656,2.472,12.397c1.525,1.018,3.25,1.505,4.954,1.505c2.887,0,5.721-1.396,7.443-3.977
	c10.627-15.921,22.375-31.511,35.12-46.649c-0.796,12.808,0.795,26.893,4.857,41.903c9.831,36.317,33.077,74.15,65.458,106.531
	c32.386,32.385,70.221,55.633,106.539,65.464c12.523,3.389,24.403,5.065,35.437,5.065c2.185,0,4.325-0.086,6.44-0.217
	c-40.975,34.435-85.207,61.515-127.835,77.934c-53.618,20.653-101.717,23.488-135.441,7.989
	c-9.306-4.275-17.541-9.961-24.478-16.899c-6.949-6.949-12.63-15.178-16.885-24.465c-20.381-44.34-8.515-113.725,31.741-185.606
	c2.411-4.307,0.875-9.754-3.431-12.166c-4.308-2.412-9.755-0.877-12.167,3.431c-42.035,75.057-54.533,145.99-34.838,196.006
	L74.462,379.15c-18.779-12.373-43.873-10.213-60.384,6.299c-18.767,18.783-18.766,49.335,0.004,68.105
	c8.16,8.16,19.031,13.055,30.383,13.942c0.827,11.403,5.684,22.123,13.987,30.429c9.387,9.385,21.715,14.079,34.047,14.078
	c12.332,0,24.668-4.693,34.06-14.078c16.512-16.515,18.67-41.606,6.286-60.383l27.616-27.61c3.492-3.49,3.492-9.149,0.001-12.64
	c-3.491-3.491-9.151-3.491-12.64-0.001l-33.237,33.23c-0.03,0.03-0.055,0.062-0.083,0.093l-16.549,16.551
	c-3.491,3.491-3.491,9.151,0.001,12.641c1.745,1.745,4.033,2.617,6.32,2.617s4.575-0.872,6.321-2.618l9.169-9.169
	c5.567,11.317,3.594,25.209-5.84,34.644c-11.814,11.804-31.027,11.805-42.829,0.002c-6.794-6.794-9.916-16.167-8.567-25.715
	c0.393-2.783-0.545-5.588-2.534-7.575c-1.989-1.987-4.793-2.922-7.577-2.524c-9.537,1.359-18.896-1.759-25.693-8.555
	c-11.802-11.802-11.801-31.015,0-42.826c9.435-9.437,23.329-11.411,34.649-5.848l-9.174,9.174c-3.491,3.491-3.491,9.151,0,12.64
	c1.746,1.745,4.034,2.618,6.321,2.618c2.287,0,4.575-0.872,6.321-2.618l16.64-16.64c0.001-0.001,0.001-0.002,0.002-0.002
	c0.001-0.001,0.002-0.001,0.004-0.002l46.298-46.297c4.15,6.778,9.011,12.992,14.559,18.54c8.442,8.442,18.418,15.338,29.654,20.501
	c16.632,7.645,36.088,11.446,57.574,11.446c27.787,0,58.962-6.362,91.758-18.995c57.751-22.244,118.147-63.087,170.065-115.004l0,0
	c0,0,0.001-0.001,0.002-0.002C511.717,247.267,517.233,215.115,506.933,177.061z M478.754,254.954
	c-15.607,15.602-41.607,19.484-73.223,10.925c-33.35-9.028-68.355-30.638-98.567-60.849c-30.209-30.209-51.817-65.212-60.844-98.562
	c-8.558-31.614-4.677-57.615,10.93-73.218c10.18-10.183,24.788-15.373,42.495-15.373c9.427,0,19.735,1.472,30.716,4.444
	c33.347,9.027,68.353,30.635,98.565,60.843c30.212,30.212,51.822,65.218,60.85,98.568
	C498.234,213.344,494.353,239.348,478.754,254.954z"/>
<path d="M417.431,94.562c-27.842-27.842-61.15-48.5-91.375-56.676c-25.426-6.901-46.427-4.433-57.604,6.759
	c-11.196,11.181-13.666,32.179-6.78,57.609c8.192,30.236,28.855,63.541,56.689,91.377c27.851,27.852,61.158,48.515,91.381,56.69
	c5.861,1.586,11.591,2.693,17.032,3.291c0.331,0.037,0.661,0.054,0.987,0.054c4.499,0,8.371-3.387,8.874-7.962
	c0.539-4.908-3.002-9.322-7.909-9.861c-4.526-0.497-9.342-1.431-14.317-2.778c-27.297-7.384-57.699-26.365-83.407-52.075
	c-25.696-25.695-44.676-56.097-52.076-83.409c-4.938-18.233-4.09-34.047,2.165-40.296c6.243-6.251,22.054-7.092,40.29-2.145
	c27.308,7.387,57.708,26.363,83.407,52.061c25.71,25.71,44.69,56.111,52.075,83.409c4.938,18.241,4.094,34.06-2.15,40.303
	c-3.492,3.491-3.492,9.151-0.001,12.641c3.491,3.49,9.151,3.491,12.64,0c11.184-11.183,13.65-32.183,6.767-57.614
	C465.944,155.721,445.282,122.414,417.431,94.562z"/>
<path d="M346.663,110.474c-3.544-2.357-8.258-1.884-11.268,1.124c-3.008,3.009-3.479,7.723-1.123,11.268
	c7.007,10.543,15.34,20.668,24.767,30.094c9.428,9.428,19.554,17.761,30.095,24.769c1.511,1.003,3.233,1.495,4.945,1.495
	c2.309,0,4.596-0.89,6.324-2.617c3.009-3.009,3.48-7.724,1.124-11.268c-7.005-10.54-15.338-20.666-24.769-30.097
	C367.326,125.81,357.201,117.477,346.663,110.474z"/>
<circle cx="279.097" cy="350.187" r="8.939"/>
<circle cx="243.26" cy="361.235" r="8.939"/>
<circle cx="209.889" cy="190.402" r="8.939"/>
<circle cx="172.55" cy="189.616" r="8.939"/>
<circle cx="194.789" cy="157.83" r="8.939"/>
<g>
</g>
<g>
</g>
<g>
</g>
<g>
</g>
<g>
</g>
<g>
</g>
<g>
</g>
<g>
</g>
<g>
</g>
<g>
</g>
<g>
</g>
<g>
</g>
<g>
</g>
<g>
</g>
<g>
</g>
</svg>
