<svg xmlns="http://www.w3.org/2000/svg" viewBox="0 0 512.003 512.003"><path d="M434.493 77.673c64.715 64.715 87.061 147.283 49.924 184.431-37.148 37.137-119.716 14.79-184.431-49.925-64.703-64.703-87.061-147.283-49.913-184.419 37.137-37.148 119.705-14.79 184.42 49.913zm25.886 160.393c8.724-8.724 10.393-27.03 4.457-48.959-7.782-28.77-27.602-60.615-54.382-87.395-26.768-26.768-58.625-46.587-87.395-54.37-21.917-5.947-40.223-4.279-48.947 4.457-8.736 8.724-10.404 27.03-4.469 48.947 7.794 28.77 27.614 60.627 54.382 87.395 26.78 26.78 58.625 46.599 87.395 54.382 21.929 5.935 40.235 4.267 48.959-4.457z" fill="#efbb6a"/><path d="M464.836 189.107c5.935 21.929 4.267 40.235-4.457 48.959-8.724 8.724-27.03 10.393-48.959 4.457-28.77-7.782-60.615-27.602-87.395-54.382-26.768-26.768-46.587-58.625-54.382-87.395-5.935-21.917-4.267-40.223 4.469-48.947 8.724-8.736 27.03-10.404 48.947-4.457 28.77 7.782 60.627 27.602 87.395 54.37 26.78 26.78 46.599 58.625 54.382 87.395z" fill="#f97c64"/><path d="M299.986 212.18c64.715 64.715 147.283 87.061 184.431 49.925-106.428 106.427-235.678 154.612-309.344 120.753-10.142-4.66-19.236-10.869-27.066-18.699-7.83-7.83-14.039-16.912-18.687-27.054-33.859-73.665 14.325-202.916 120.753-309.344-37.148 37.136-14.79 119.716 49.913 184.419z" fill="#d88948"/><path d="M221.554 382.858c-10.142-4.66-19.236-10.869-27.066-18.699-7.83-7.83-14.039-16.912-18.687-27.054-26.37-57.372-2.969-148.46 58.946-236.224-6.171-29.816-1.608-56.19 15.327-73.119C143.646 134.189 95.461 263.439 129.32 337.105c4.648 10.142 10.857 19.224 18.687 27.054s16.924 14.039 27.066 18.699c21.817 10.028 48.51 12.857 78.04 9.111-11.35-1.676-21.933-4.686-31.559-9.111z" fill="#c4783f"/><path d="M175.073 382.858l-54.823 54.811c14.635 15.374 14.421 39.675-.667 54.763-15.315 15.303-40.152 15.315-55.466 0-9.07-9.07-12.764-21.488-11.096-33.287-11.787 1.68-24.205-2.014-33.275-11.084-15.315-15.315-15.303-40.152 0-55.466 15.088-15.088 39.389-15.303 54.763-.679l54.811-54.811c4.648 10.142 10.857 19.224 18.687 27.054 7.831 7.83 16.924 14.039 27.066 18.699z" fill="#e6e6e6"/><path d="M86.761 481.706c-9.07-9.07-12.764-21.488-11.096-33.287-11.787 1.68-24.205-2.014-33.275-11.084-15.315-15.315-15.303-40.152 0-55.466.167-.167.341-.322.509-.485a39.017 39.017 0 0 0-23.153 11.211c-15.303 15.315-15.315 40.152 0 55.466 9.07 9.07 21.488 12.764 33.275 11.084-1.669 11.799 2.026 24.217 11.096 33.287 15.15 15.15 39.615 15.291 54.965.476-11.506 1.349-23.495-2.376-32.321-11.202z" fill="#ccc"/><path d="M506.933 177.061c-9.83-36.318-33.078-74.153-65.464-106.539-32.387-32.381-70.222-55.627-106.536-65.457C296.875-5.236 264.729.286 244.41 20.61c-26.783 26.783-50.466 55.5-70.391 85.352-2.741 4.106-1.633 9.656 2.472 12.397a8.898 8.898 0 0 0 4.954 1.505 8.93 8.93 0 0 0 7.443-3.977c10.627-15.921 22.375-31.511 35.12-46.649-.796 12.808.795 26.893 4.857 41.903 9.831 36.317 33.077 74.15 65.458 106.531 32.386 32.385 70.221 55.633 106.539 65.464 12.523 3.389 24.403 5.065 35.437 5.065 2.185 0 4.325-.086 6.44-.217-40.975 34.435-85.207 61.515-127.835 77.934-53.618 20.653-101.717 23.488-135.441 7.989-9.306-4.275-17.541-9.961-24.478-16.899-6.949-6.949-12.63-15.178-16.885-24.465-20.381-44.34-8.515-113.725 31.741-185.606a8.938 8.938 0 1 0-15.598-8.735c-42.035 75.057-54.533 145.99-34.838 196.006L74.462 379.15c-18.779-12.373-43.873-10.213-60.384 6.299-18.767 18.783-18.766 49.335.004 68.105 8.16 8.16 19.031 13.055 30.383 13.942.827 11.403 5.684 22.123 13.987 30.429 9.387 9.385 21.715 14.079 34.047 14.078 12.332 0 24.668-4.693 34.06-14.078 16.512-16.515 18.67-41.606 6.286-60.383l27.616-27.61a8.936 8.936 0 0 0 .001-12.64c-3.491-3.491-9.151-3.491-12.64-.001l-33.237 33.23c-.03.03-.055.062-.083.093l-16.549 16.551a8.937 8.937 0 0 0 .001 12.641c1.745 1.745 4.033 2.617 6.32 2.617s4.575-.872 6.321-2.618l9.169-9.169c5.567 11.317 3.594 25.209-5.84 34.644-11.814 11.804-31.027 11.805-42.829.002-6.794-6.794-9.916-16.167-8.567-25.715a8.939 8.939 0 0 0-10.111-10.099c-9.537 1.359-18.896-1.759-25.693-8.555-11.802-11.802-11.801-31.015 0-42.826 9.435-9.437 23.329-11.411 34.649-5.848l-9.174 9.174c-3.491 3.491-3.491 9.151 0 12.64a8.915 8.915 0 0 0 6.321 2.618 8.911 8.911 0 0 0 6.321-2.618l16.64-16.64.002-.002.004-.002 46.298-46.297c4.15 6.778 9.011 12.992 14.559 18.54 8.442 8.442 18.418 15.338 29.654 20.501 16.632 7.645 36.088 11.446 57.574 11.446 27.787 0 58.962-6.362 91.758-18.995 57.751-22.244 118.147-63.087 170.065-115.004l.002-.002c20.32-20.331 25.836-52.483 15.536-90.537zm-28.179 77.893c-15.607 15.602-41.607 19.484-73.223 10.925-33.35-9.028-68.355-30.638-98.567-60.849-30.209-30.209-51.817-65.212-60.844-98.562-8.558-31.614-4.677-57.615 10.93-73.218 10.18-10.183 24.788-15.373 42.495-15.373 9.427 0 19.735 1.472 30.716 4.444 33.347 9.027 68.353 30.635 98.565 60.843 30.212 30.212 51.822 65.218 60.85 98.568 8.558 31.612 4.677 57.616-10.922 73.222z"/><path d="M417.431 94.562c-27.842-27.842-61.15-48.5-91.375-56.676-25.426-6.901-46.427-4.433-57.604 6.759-11.196 11.181-13.666 32.179-6.78 57.609 8.192 30.236 28.855 63.541 56.689 91.377 27.851 27.852 61.158 48.515 91.381 56.69 5.861 1.586 11.591 2.693 17.032 3.291a8.94 8.94 0 0 0 1.952-17.769c-4.526-.497-9.342-1.431-14.317-2.778-27.297-7.384-57.699-26.365-83.407-52.075-25.696-25.695-44.676-56.097-52.076-83.409-4.938-18.233-4.09-34.047 2.165-40.296 6.243-6.251 22.054-7.092 40.29-2.145 27.308 7.387 57.708 26.363 83.407 52.061 25.71 25.71 44.69 56.111 52.075 83.409 4.938 18.241 4.094 34.06-2.15 40.303a8.937 8.937 0 0 0-.001 12.641c3.491 3.49 9.151 3.491 12.64 0 11.184-11.183 13.65-32.183 6.767-57.614-8.175-30.219-28.837-63.526-56.688-91.378z"/><path d="M346.663 110.474a8.939 8.939 0 0 0-12.391 12.392c7.007 10.543 15.34 20.668 24.767 30.094 9.428 9.428 19.554 17.761 30.095 24.769a8.926 8.926 0 0 0 4.945 1.495 8.939 8.939 0 0 0 7.448-13.885c-7.005-10.54-15.338-20.666-24.769-30.097-9.432-9.432-19.557-17.765-30.095-24.768z"/><circle cx="279.097" cy="350.187" r="8.939"/><circle cx="243.26" cy="361.235" r="8.939"/><circle cx="209.889" cy="190.402" r="8.939"/><circle cx="172.55" cy="189.616" r="8.939"/><circle cx="194.789" cy="157.83" r="8.939"/></svg>