<svg xmlns="http://www.w3.org/2000/svg" viewBox="0 0 511.999 511.999"><g fill="#16a50a"><path d="M233.242 285.349l-59.094-101.662-59.093 101.662 35.938 62.245h-16.08l28.178 48.803h-15.44l26.498 45.896 26.498-45.896h-15.441l28.178-48.803h-16.08zM396.92 285.349l-59.095-101.662-59.093 101.662 35.938 62.245h-16.08l28.178 48.803h-15.439l26.498 45.896 26.498-45.896h-15.441l28.178-48.803h-16.081z"/></g><g fill="#92e03f"><path d="M501.552 442.293l-26.498-45.896h15.439l-28.177-48.803h16.078l-58.692-101.663-58.697 101.663h16.08l-28.177 48.803h15.44l-26.497 45.896z"/><path d="M337.851 442.293l-26.499-45.896h15.439l-28.177-48.803h16.079l-58.692-101.663-58.697 101.663h16.08l-28.178 48.803h15.441l-26.498 45.896z"/><path d="M174.149 442.293l-26.498-45.896h15.44l-28.178-48.803h16.08L92.298 245.931 33.604 347.594h16.08l-28.178 48.803h15.44l-26.498 45.896z"/></g><path fill="#158e07" d="M314.905 223.12l-58.72-101.017-58.916 101.359 35.973 61.887 22.759-39.418 22.731 39.418z"/><path d="M230.269 97.768c0-27.402-22.302-49.698-49.72-49.698-1.713 0-3.42.092-5.118.263-8.623-22.518-30.341-37.73-54.967-37.73-24.622 0-46.341 15.211-54.963 37.73a51.12 51.12 0 0 0-5.12-.263c-27.418 0-49.72 22.296-49.72 49.698h219.608z" fill="#fff"/><path d="M443.22 490.948h-13.07v-38.205h71.401a10.451 10.451 0 0 0 9.049-15.673l-17.617-30.516c4.579-1.11 7.98-5.235 7.98-10.155 0-2.131-.637-4.113-1.732-5.765l-18.916-32.762c4.864-.892 8.549-5.154 8.549-10.276 0-2.131-.636-4.113-1.731-5.765L428.75 240.708a10.451 10.451 0 0 0-18.098 0l-13.751 23.817-50.043-86.089a10.448 10.448 0 0 0-18.068 0l-13.888 23.891-49.685-85.476a10.447 10.447 0 0 0-18.067 0l-49.884 85.817-14.087-24.233a10.447 10.447 0 0 0-18.067 0l-50.029 86.068-13.738-23.796a10.448 10.448 0 0 0-18.098 0L24.554 342.37a10.452 10.452 0 0 0 7.132 15.497l-19.229 33.306a10.452 10.452 0 0 0 6.563 15.374L1.4 437.068a10.448 10.448 0 1 0 9.049 15.673H81.85v38.205H69.151c-5.77 0-10.449 4.679-10.449 10.449 0 5.771 4.679 10.449 10.449 10.449H443.22c5.771 0 10.449-4.678 10.449-10.449 0-5.769-4.678-10.447-10.449-10.447zm-33.967 0h-60.977v-38.205h60.977v38.205zm-224.656-38.207h60.954v38.205h-60.954v-38.205zm25.098-61.568a10.453 10.453 0 0 0-6.564-4.925l19.302-33.43a10.452 10.452 0 0 0-7.133-15.497l40.7-70.492 13.438 23.277a9.8 9.8 0 0 0 .525.908l26.733 46.307a10.452 10.452 0 0 0-7.131 15.496l19.301 33.43a10.449 10.449 0 0 0-6.562 15.374l17.449 30.222H192.247l17.449-30.222a10.447 10.447 0 0 0-.001-10.448zm56.754 61.568h60.928v38.205h-60.928v-38.205zm153.253-185.912l40.697 70.493a10.452 10.452 0 0 0-7.131 15.496l19.301 33.43a10.449 10.449 0 0 0-6.562 15.374l17.447 30.222H355.948l17.449-30.222a10.452 10.452 0 0 0-6.564-15.374l19.302-33.43a10.452 10.452 0 0 0-7.133-15.497l40.7-70.492zm-81.877-62.35l47.03 80.909-32.899 56.983a10.452 10.452 0 0 0 7.132 15.497l-19.23 33.307a10.452 10.452 0 0 0 6.564 15.375l-8.572 14.848-8.569-14.843c4.58-1.11 7.98-5.235 7.98-10.155 0-2.131-.637-4.113-1.732-5.765l-18.916-32.762c4.863-.892 8.549-5.154 8.549-10.276 0-2.131-.636-4.113-1.731-5.765l-32.61-56.484 47.004-80.869zm-81.64-61.585l46.633 80.225-24.044 41.363-13.727-23.775a10.451 10.451 0 0 0-18.098 0l-13.739 23.796-23.858-41.042 46.833-80.567zm-82.037 61.585l47.019 80.888-32.912 57.004a10.452 10.452 0 0 0 7.132 15.497l-19.23 33.307a10.452 10.452 0 0 0 6.564 15.375l-8.572 14.848-8.569-14.842c4.58-1.109 7.981-5.236 7.981-10.156 0-2.131-.636-4.113-1.731-5.765l-18.917-32.762c4.864-.892 8.55-5.154 8.55-10.276 0-2.131-.637-4.113-1.732-5.765l-32.598-56.464 47.015-80.889zM45.994 401.621a10.452 10.452 0 0 0-6.563-15.374l19.301-33.43A10.452 10.452 0 0 0 51.6 337.32l40.698-70.492 40.698 70.492a10.452 10.452 0 0 0-7.132 15.497l19.302 33.43a10.448 10.448 0 0 0-6.563 15.374l17.449 30.222H28.546l17.448-30.222zm56.753 51.12H163.7v38.205h-60.952v-38.205z"/><path d="M33.625 490.948H10.637c-5.77 0-10.449 4.679-10.449 10.449 0 5.771 4.678 10.449 10.449 10.449h22.987c5.771 0 10.449-4.678 10.449-10.449.001-5.771-4.677-10.449-10.448-10.449zM500.718 490.948h-21.971c-5.77 0-10.449 4.679-10.449 10.449 0 5.771 4.679 10.449 10.449 10.449h21.971c5.77 0 10.449-4.678 10.449-10.449s-4.679-10.449-10.449-10.449zM10.661 108.218h219.608c5.771 0 10.449-4.679 10.449-10.449 0-32.66-26.171-59.323-58.651-60.13C170.309 14.944 146.431.154 120.465.154s-49.841 14.79-61.598 37.485C26.387 38.445.213 65.109.213 97.769c0 5.77 4.678 10.449 10.448 10.449zm49.72-49.7c1.318 0 2.686.07 4.072.21a10.457 10.457 0 0 0 10.807-6.659c7.104-18.553 25.271-31.018 45.205-31.018 19.935 0 38.104 12.465 45.209 31.018a10.438 10.438 0 0 0 10.808 6.659c1.382-.14 2.752-.21 4.068-.21 18.036 0 33.27 12.215 37.858 28.801H22.522c4.589-16.586 19.824-28.801 37.859-28.801z"/></svg>