<?xml version="1.0" encoding="iso-8859-1"?>
<!-- Generator: Adobe Illustrator 19.0.0, SVG Export Plug-In . SVG Version: 6.00 Build 0)  -->
<svg version="1.1" id="Layer_1" xmlns="http://www.w3.org/2000/svg" xmlns:xlink="http://www.w3.org/1999/xlink" x="0px" y="0px"
	 viewBox="0 0 511.999 511.999" style="enable-background:new 0 0 511.999 511.999;" xml:space="preserve">
<g>
	<polygon style="fill:#16A50A;" points="233.242,285.349 174.148,183.687 115.055,285.349 150.993,347.594 134.913,347.594 
		163.091,396.397 147.651,396.397 174.149,442.293 200.647,396.397 185.206,396.397 213.384,347.594 197.304,347.594 	"/>
	<polygon style="fill:#16A50A;" points="396.92,285.349 337.825,183.687 278.732,285.349 314.67,347.594 298.59,347.594 
		326.768,396.397 311.329,396.397 337.827,442.293 364.325,396.397 348.884,396.397 377.062,347.594 360.981,347.594 	"/>
</g>
<g>
	<polygon style="fill:#92E03F;" points="501.552,442.293 475.054,396.397 490.493,396.397 462.316,347.594 478.394,347.594 
		419.702,245.931 361.005,347.594 377.085,347.594 348.908,396.397 364.348,396.397 337.851,442.293 	"/>
	<polygon style="fill:#92E03F;" points="337.851,442.293 311.352,396.397 326.791,396.397 298.614,347.594 314.693,347.594 
		256.001,245.931 197.304,347.594 213.384,347.594 185.206,396.397 200.647,396.397 174.149,442.293 	"/>
	<polygon style="fill:#92E03F;" points="174.149,442.293 147.651,396.397 163.091,396.397 134.913,347.594 150.993,347.594 
		92.298,245.931 33.604,347.594 49.684,347.594 21.506,396.397 36.946,396.397 10.448,442.293 	"/>
</g>
<polygon style="fill:#158E07;" points="314.905,223.12 256.185,122.103 197.269,223.462 233.242,285.349 256.001,245.931 
	278.732,285.349 "/>
<path style="fill:#FFFFFF;" d="M230.269,97.768c0-27.402-22.302-49.698-49.72-49.698c-1.713,0-3.42,0.092-5.118,0.263
	c-8.623-22.518-30.341-37.73-54.967-37.73c-24.622,0-46.341,15.211-54.963,37.73c-1.699-0.171-3.407-0.263-5.12-0.263
	c-27.418,0-49.72,22.296-49.72,49.698H230.269z"/>
<path d="M443.22,490.948h-13.07v-38.205h71.401c3.732,0,7.183-1.992,9.049-5.224c1.866-3.233,1.866-7.216,0-10.449l-17.617-30.516
	c4.579-1.11,7.98-5.235,7.98-10.155c0-2.131-0.637-4.113-1.732-5.765l-18.916-32.762c4.864-0.892,8.549-5.154,8.549-10.276
	c0-2.131-0.636-4.113-1.731-5.765L428.75,240.708c-1.866-3.233-5.315-5.224-9.049-5.224c-3.732,0-7.183,1.992-9.049,5.224
	l-13.751,23.817l-50.043-86.089c-1.87-3.218-5.311-5.198-9.034-5.198s-7.163,1.98-9.034,5.198l-13.888,23.891l-49.685-85.476
	c-1.87-3.218-5.311-5.198-9.033-5.198c-3.722,0-7.163,1.98-9.034,5.198l-49.884,85.817l-14.087-24.233
	c-1.87-3.218-5.311-5.198-9.033-5.198s-7.163,1.98-9.034,5.198l-50.029,86.068l-13.738-23.796c-1.866-3.233-5.316-5.224-9.049-5.224
	s-7.183,1.992-9.049,5.224L24.554,342.37c-1.866,3.233-1.866,7.216,0,10.449c1.542,2.671,4.163,4.494,7.132,5.048l-19.229,33.306
	c-1.866,3.233-1.866,7.216,0,10.449c1.443,2.498,3.83,4.255,6.563,4.925L1.4,437.068c-1.866,3.233-1.866,7.216,0,10.449
	s5.316,5.224,9.049,5.224H81.85v38.205H69.151c-5.77,0-10.449,4.679-10.449,10.449c0,5.771,4.679,10.449,10.449,10.449H443.22
	c5.771,0,10.449-4.678,10.449-10.449C453.669,495.626,448.991,490.948,443.22,490.948z M409.253,490.948h-60.977v-38.205h60.977
	V490.948z M184.597,452.741h60.954v38.205h-60.954V452.741z M209.695,391.173c-1.443-2.499-3.831-4.255-6.564-4.925l19.302-33.43
	c1.866-3.233,1.866-7.216,0-10.449c-1.542-2.671-4.163-4.494-7.133-5.048l40.7-70.492l13.438,23.277
	c0.158,0.311,0.333,0.613,0.525,0.908l26.733,46.307c-2.969,0.553-5.59,2.376-7.131,5.047c-1.866,3.233-1.866,7.216,0,10.449
	l19.301,33.43c-2.732,0.67-5.12,2.426-6.562,4.925c-1.866,3.233-1.866,7.216,0,10.449l17.449,30.222H192.247l17.449-30.222
	C211.562,398.39,211.562,394.405,209.695,391.173z M266.449,452.741h60.928v38.205h-60.928V452.741z M419.702,266.829l40.697,70.493
	c-2.97,0.553-5.59,2.376-7.131,5.047c-1.866,3.233-1.866,7.216,0,10.449l19.301,33.43c-2.732,0.67-5.12,2.426-6.562,4.925
	c-1.866,3.233-1.866,7.216,0,10.449l17.447,30.222H355.948l17.449-30.222c1.866-3.233,1.866-7.216,0-10.449
	c-1.443-2.499-3.831-4.255-6.564-4.925l19.302-33.43c1.866-3.233,1.866-7.216,0-10.449c-1.542-2.671-4.163-4.494-7.133-5.048
	L419.702,266.829z M337.825,204.479l47.03,80.909l-32.899,56.983c-1.866,3.233-1.866,7.216,0,10.449
	c1.541,2.671,4.163,4.494,7.132,5.048l-19.23,33.307c-1.866,3.233-1.866,7.216,0,10.449c1.443,2.499,3.831,4.256,6.564,4.926
	l-8.572,14.848l-8.569-14.843c4.58-1.11,7.98-5.235,7.98-10.155c0-2.131-0.637-4.113-1.732-5.765l-18.916-32.762
	c4.863-0.892,8.549-5.154,8.549-10.276c0-2.131-0.636-4.113-1.731-5.765l-32.61-56.484L337.825,204.479z M256.185,142.894
	l46.633,80.225l-24.044,41.363l-13.727-23.775c-1.866-3.233-5.315-5.224-9.049-5.224c-3.732,0-7.183,1.992-9.049,5.224
	l-13.739,23.796l-23.858-41.042L256.185,142.894z M174.148,204.479l47.019,80.888l-32.912,57.004c-1.866,3.233-1.866,7.216,0,10.449
	c1.542,2.671,4.163,4.494,7.132,5.048l-19.23,33.307c-1.866,3.233-1.866,7.216,0,10.449c1.443,2.499,3.831,4.256,6.564,4.926
	l-8.572,14.848l-8.569-14.842c4.58-1.109,7.981-5.236,7.981-10.156c0-2.131-0.636-4.113-1.731-5.765l-18.917-32.762
	c4.864-0.892,8.55-5.154,8.55-10.276c0-2.131-0.637-4.113-1.732-5.765l-32.598-56.464L174.148,204.479z M45.994,401.621
	c1.866-3.233,1.866-7.216,0-10.449c-1.442-2.498-3.831-4.255-6.563-4.925l19.301-33.43c1.866-3.233,1.866-7.216,0-10.449
	c-1.542-2.671-4.163-4.494-7.132-5.048l40.698-70.492l40.698,70.492c-2.97,0.554-5.591,2.377-7.132,5.048
	c-1.866,3.233-1.866,7.216,0,10.449l19.302,33.43c-2.733,0.67-5.121,2.426-6.563,4.925c-1.866,3.233-1.866,7.216,0,10.449
	l17.449,30.222H28.546L45.994,401.621z M102.747,452.741H163.7v38.205h-60.952V452.741z"/>
<path d="M33.625,490.948H10.637c-5.77,0-10.449,4.679-10.449,10.449c0,5.771,4.678,10.449,10.449,10.449h22.987
	c5.771,0,10.449-4.678,10.449-10.449C44.074,495.626,39.396,490.948,33.625,490.948z"/>
<path d="M500.718,490.948h-21.971c-5.77,0-10.449,4.679-10.449,10.449c0,5.771,4.679,10.449,10.449,10.449h21.971
	c5.77,0,10.449-4.678,10.449-10.449C511.167,495.626,506.488,490.948,500.718,490.948z"/>
<path d="M10.661,108.218h219.608c5.771,0,10.449-4.679,10.449-10.449c0-32.66-26.171-59.323-58.651-60.13
	c-11.758-22.695-35.636-37.485-61.602-37.485s-49.841,14.79-61.598,37.485c-32.48,0.806-58.654,27.47-58.654,60.13
	C0.213,103.539,4.891,108.218,10.661,108.218z M60.381,58.518c1.318,0,2.686,0.07,4.072,0.21c4.687,0.471,9.121-2.256,10.807-6.659
	c7.104-18.553,25.271-31.018,45.205-31.018c19.935,0,38.104,12.465,45.209,31.018c1.686,4.404,6.096,7.13,10.808,6.659
	c1.382-0.14,2.752-0.21,4.068-0.21c18.036,0,33.27,12.215,37.858,28.801H22.522C27.111,70.733,42.346,58.518,60.381,58.518z"/>
<g>
</g>
<g>
</g>
<g>
</g>
<g>
</g>
<g>
</g>
<g>
</g>
<g>
</g>
<g>
</g>
<g>
</g>
<g>
</g>
<g>
</g>
<g>
</g>
<g>
</g>
<g>
</g>
<g>
</g>
</svg>
