<svg xmlns="http://www.w3.org/2000/svg" viewBox="0 0 512 512"><path d="M256.001 403.79a16.214 16.214 0 0 1-12.545-5.965L94.872 216.244c-4.555-5.565-4.978-13.477-1.04-19.504l53.028-81.183c3.008-4.606 8.117-7.38 13.583-7.38h191.119c5.466 0 10.571 2.773 13.585 7.38l53.022 81.183c3.937 6.027 3.517 13.939-1.037 19.504l-148.588 181.58a16.208 16.208 0 0 1-12.543 5.966z" fill="#bf6060"/><g fill="#f5bfb6"><path d="M418.168 196.739l-53.031-81.183a16.202 16.202 0 0 0-6.189-5.565l-50.836 77.823 12.454 19.065h100.249a16.485 16.485 0 0 0-2.647-10.14zM146.862 115.555l-53.031 81.183a16.512 16.512 0 0 0-2.645 10.139h100.248l12.452-19.063-50.835-77.824a16.254 16.254 0 0 0-6.189 5.565z"/></g><path fill="#e28883" d="M256.001 403.825l64.565-196.948H191.834z"/><path fill="#f5bfb6" d="M255.907 108.175l-64.472 98.702h129.131l-64.473-98.702z"/><path d="M138.198 216.243c-4.553-5.565-4.975-13.477-1.04-19.504l53.031-81.183c3.008-4.606 8.117-7.38 13.582-7.38h-43.329c-5.466 0-10.574 2.773-13.583 7.38l-53.028 81.183c-3.937 6.027-3.515 13.939 1.04 19.504l148.584 181.581A16.214 16.214 0 0 0 256 403.789c4.851 0 9.452-2.188 12.543-5.965L138.198 216.243z" opacity=".1"/><path d="M256 50.074a7.836 7.836 0 0 0 7.837-7.837v-34.4A7.836 7.836 0 0 0 256 0a7.836 7.836 0 0 0-7.837 7.837v34.4A7.837 7.837 0 0 0 256 50.074zM256 461.926a7.836 7.836 0 0 0-7.837 7.837v34.4A7.836 7.836 0 0 0 256 512a7.836 7.836 0 0 0 7.837-7.837v-34.4a7.836 7.836 0 0 0-7.837-7.837zM45.386 248.163H11.494A7.836 7.836 0 0 0 3.657 256a7.836 7.836 0 0 0 7.837 7.837h33.892A7.836 7.836 0 0 0 53.223 256a7.837 7.837 0 0 0-7.837-7.837zM500.506 248.163h-33.891a7.836 7.836 0 0 0-7.837 7.837 7.836 7.836 0 0 0 7.837 7.837h33.891a7.836 7.836 0 0 0 7.837-7.837 7.836 7.836 0 0 0-7.837-7.837zM101.491 401.655l-23.966 24.324a7.837 7.837 0 0 0 11.166 11.001l23.966-24.324a7.837 7.837 0 0 0-.083-11.083 7.836 7.836 0 0 0-11.083.082zM423.312 75.024l-23.968 24.322a7.836 7.836 0 1 0 11.163 11l23.968-24.322a7.836 7.836 0 0 0-11.163-11zM410.508 401.655a7.832 7.832 0 0 0-11.082-.082 7.836 7.836 0 0 0-.08 11.081l23.968 24.322a7.81 7.81 0 0 0 5.582 2.336 7.836 7.836 0 0 0 5.581-13.336l-23.969-24.321zM101.491 110.345a7.812 7.812 0 0 0 5.583 2.336 7.837 7.837 0 0 0 5.583-13.336L88.691 75.022a7.834 7.834 0 0 0-11.082-.083 7.837 7.837 0 0 0-.083 11.082l23.965 24.324zM424.729 192.453l-53.025-81.188c-4.475-6.842-12.006-10.926-20.142-10.926h-112.28a7.837 7.837 0 0 0-7.837 7.837 7.836 7.836 0 0 0 7.837 7.837h2.146l-37.541 57.471-37.541-57.471h40.544a7.836 7.836 0 0 0 7.837-7.837 7.837 7.837 0 0 0-7.837-7.837h-46.448c-8.144 0-15.673 4.087-20.144 10.931l-53.026 81.182c-5.842 8.94-5.224 20.495 1.535 28.755L237.39 402.786c4.595 5.618 11.379 8.841 18.612 8.841 7.23 0 14.012-3.221 18.609-8.839l84.218-102.918a7.839 7.839 0 0 0-12.131-9.927l-75.269 91.983 54.819-167.212h82.011l-39.975 48.851a7.839 7.839 0 0 0 12.131 9.927l42.784-52.286c6.755-8.258 7.37-19.812 1.53-28.753zm-79.075-76.441l-37.542 57.47-37.54-57.47h75.082zm-193.882 6.351l42.754 65.451-7.334 11.226h-85.504l50.084-76.677zm104.252 256.235l-31.543-96.813c-1.341-4.116-5.769-6.367-9.878-5.024a7.837 7.837 0 0 0-5.024 9.878l31.079 95.39-136.912-167.315h82.399l13.904 42.674a7.839 7.839 0 0 0 7.449 5.412c.805 0 1.624-.124 2.429-.388a7.837 7.837 0 0 0 5.024-9.878l-12.322-37.818h39.423a7.836 7.836 0 0 0 7.837-7.837 7.836 7.836 0 0 0-7.837-7.837h-36.138L256 122.363l50.087 76.678h-26.549a7.836 7.836 0 0 0-7.837 7.837 7.836 7.836 0 0 0 7.837 7.837h30.212l-53.726 163.883zm68.785-179.557l-7.335-11.228 42.756-65.453 50.082 76.682h-85.503z"/></svg>