<?xml version="1.0" encoding="iso-8859-1"?>
<!-- Generator: Adobe Illustrator 19.0.0, SVG Export Plug-In . SVG Version: 6.00 Build 0)  -->
<svg version="1.1" id="Layer_1" xmlns="http://www.w3.org/2000/svg" xmlns:xlink="http://www.w3.org/1999/xlink" x="0px" y="0px"
	 viewBox="0 0 512 512" style="enable-background:new 0 0 512 512;" xml:space="preserve">
<path style="fill:#BF6060;" d="M256.001,403.79c-4.852,0-9.455-2.188-12.545-5.965L94.872,216.244
	c-4.555-5.565-4.978-13.477-1.04-19.504l53.028-81.183c3.008-4.606,8.117-7.38,13.583-7.38h191.119
	c5.466,0,10.571,2.773,13.585,7.38l53.022,81.183c3.937,6.027,3.517,13.939-1.037,19.504l-148.588,181.58
	C265.453,401.602,260.854,403.79,256.001,403.79z"/>
<g>
	<path style="fill:#F5BFB6;" d="M418.168,196.739l-53.031-81.183c-1.57-2.408-3.718-4.296-6.189-5.565l-50.836,77.823l12.454,19.065
		h100.249C421.046,203.38,420.182,199.813,418.168,196.739z"/>
	<path style="fill:#F5BFB6;" d="M146.862,115.555l-53.031,81.183c-2.008,3.073-2.877,6.64-2.645,10.139h100.248l12.452-19.063
		l-50.835-77.824C150.584,111.26,148.434,113.147,146.862,115.555z"/>
</g>
<polygon style="fill:#E28883;" points="256.001,403.825 320.566,206.877 191.834,206.877 "/>
<polygon style="fill:#F5BFB6;" points="255.907,108.175 191.435,206.877 320.566,206.877 256.093,108.175 "/>
<path style="opacity:0.1;enable-background:new    ;" d="M138.198,216.243c-4.553-5.565-4.975-13.477-1.04-19.504l53.031-81.183
	c3.008-4.606,8.117-7.38,13.582-7.38h-43.329c-5.466,0-10.574,2.773-13.583,7.38l-53.028,81.183
	c-3.937,6.027-3.515,13.939,1.04,19.504l148.584,181.581c3.09,3.777,7.693,5.965,12.545,5.965c4.851,0,9.452-2.188,12.543-5.965
	L138.198,216.243z"/>
<path d="M256,50.074c4.329,0,7.837-3.508,7.837-7.837v-34.4C263.837,3.508,260.329,0,256,0c-4.329,0-7.837,3.508-7.837,7.837v34.4
	C248.163,46.565,251.671,50.074,256,50.074z"/>
<path d="M256,461.926c-4.329,0-7.837,3.508-7.837,7.837v34.4c0,4.329,3.508,7.837,7.837,7.837c4.329,0,7.837-3.508,7.837-7.837
	v-34.4C263.837,465.434,260.329,461.926,256,461.926z"/>
<path d="M45.386,248.163H11.494c-4.329,0-7.837,3.508-7.837,7.837c0,4.329,3.508,7.837,7.837,7.837h33.892
	c4.329,0,7.837-3.508,7.837-7.837C53.223,251.671,49.714,248.163,45.386,248.163z"/>
<path d="M500.506,248.163h-33.891c-4.329,0-7.837,3.508-7.837,7.837c0,4.329,3.508,7.837,7.837,7.837h33.891
	c4.329,0,7.837-3.508,7.837-7.837C508.343,251.671,504.835,248.163,500.506,248.163z"/>
<path d="M101.491,401.655l-23.966,24.324c-3.038,3.082-3,8.045,0.083,11.083c1.527,1.504,3.513,2.254,5.5,2.254
	c2.025,0,4.049-0.781,5.583-2.336l23.966-24.324c3.038-3.082,3-8.045-0.083-11.083C109.492,398.535,104.53,398.571,101.491,401.655z
	"/>
<path d="M423.312,75.024l-23.968,24.322c-3.038,3.082-3.002,8.044,0.08,11.081c1.528,1.505,3.514,2.255,5.501,2.255
	c2.025,0,4.049-0.781,5.582-2.336l23.968-24.322c3.038-3.082,3.002-8.044-0.08-11.081C431.312,71.904,426.35,71.941,423.312,75.024z
	"/>
<path d="M410.508,401.655c-3.039-3.086-7.999-3.121-11.082-0.082c-3.082,3.038-3.118,7.999-0.08,11.081l23.968,24.322
	c1.534,1.557,3.557,2.336,5.582,2.336c1.986,0,3.974-0.75,5.501-2.255c3.082-3.038,3.118-7.999,0.08-11.081L410.508,401.655z"/>
<path d="M101.491,110.345c1.534,1.557,3.558,2.336,5.583,2.336c1.986,0,3.974-0.75,5.5-2.254c3.083-3.038,3.12-8,0.083-11.082
	L88.691,75.022c-3.04-3.086-8.001-3.12-11.082-0.083c-3.083,3.038-3.12,8-0.083,11.082L101.491,110.345z"/>
<path d="M424.729,192.453l-53.025-81.188c-4.475-6.842-12.006-10.926-20.142-10.926h-112.28c-4.329,0-7.837,3.509-7.837,7.837
	c0,4.329,3.508,7.837,7.837,7.837h2.146l-37.541,57.471l-37.541-57.471h40.544c4.329,0,7.837-3.508,7.837-7.837
	c0-4.328-3.508-7.837-7.837-7.837h-46.448c-8.144,0-15.673,4.087-20.144,10.931l-53.026,81.182
	c-5.842,8.94-5.224,20.495,1.535,28.755L237.39,402.786c4.595,5.618,11.379,8.841,18.612,8.841c7.23,0,14.012-3.221,18.609-8.839
	l84.218-102.918c2.741-3.35,2.247-8.288-1.102-11.029c-3.35-2.74-8.286-2.248-11.029,1.102l-75.269,91.983l54.819-167.212h82.011
	l-39.975,48.851c-2.741,3.35-2.247,8.288,1.102,11.029c1.458,1.192,3.213,1.771,4.959,1.771c2.268,0,4.52-0.98,6.07-2.873
	l42.784-52.286C429.954,212.948,430.569,201.394,424.729,192.453z M345.654,116.012l-37.542,57.47l-37.54-57.47H345.654z
	 M151.772,122.363l42.754,65.451l-7.334,11.226h-85.504L151.772,122.363z M256.024,378.598l-31.543-96.813
	c-1.341-4.116-5.769-6.367-9.878-5.024c-4.116,1.341-6.364,5.764-5.024,9.878l31.079,95.39L103.746,214.714h82.399l13.904,42.674
	c1.077,3.309,4.148,5.412,7.449,5.412c0.805,0,1.624-0.124,2.429-0.388c4.116-1.341,6.364-5.764,5.024-9.878l-12.322-37.818h39.423
	c4.329,0,7.837-3.508,7.837-7.837c0-4.329-3.508-7.837-7.837-7.837h-36.138L256,122.363l50.087,76.678h-26.549
	c-4.329,0-7.837,3.508-7.837,7.837c0,4.329,3.508,7.837,7.837,7.837h30.212L256.024,378.598z M324.809,199.041l-7.335-11.228
	l42.756-65.453l50.082,76.682H324.809z"/>
<g>
</g>
<g>
</g>
<g>
</g>
<g>
</g>
<g>
</g>
<g>
</g>
<g>
</g>
<g>
</g>
<g>
</g>
<g>
</g>
<g>
</g>
<g>
</g>
<g>
</g>
<g>
</g>
<g>
</g>
</svg>
