<svg xmlns="http://www.w3.org/2000/svg" viewBox="0 0 512 512"><path d="M258.354 330.242c-2.963-3.639-3.237-8.816-.676-12.756l34.51-53.096c1.958-3.013 5.282-4.827 8.839-4.827h99.152l19.897-24.437c5.263-6.463 5.75-15.652 1.202-22.649l-61.261-94.258c-3.481-5.352-9.375-8.572-15.694-8.572H123.517c-6.318 0-12.214 3.22-15.693 8.572l-61.262 94.258c-4.548 6.997-4.06 16.187 1.201 22.649l171.666 210.837c3.57 4.386 8.885 6.926 14.491 6.926 5.609 0 10.921-2.539 14.494-6.926l52.081-63.966-42.141-51.755z" fill="#53e7d3"/><path d="M258.354 330.242c-2.963-3.639-3.237-8.816-.676-12.756l34.51-53.096a10.627 10.627 0 0 1 4.034-3.645l11.83-36.494h116.28a19.245 19.245 0 0 0-3.055-11.775l-61.261-94.258c-3.481-5.352-9.375-8.572-15.694-8.572H123.517c-6.318 0-12.214 3.22-15.693 8.572l-61.262 94.258a19.25 19.25 0 0 0-3.055 11.775h116.28l74.12 228.637.014.001.014-.001 35.392-109.172-10.973-13.474z" fill="#b9f5ed"/><path fill="#53e7d3" d="M233.813 109.645l-74.487 114.604h149.188l-74.487-114.604z"/><path d="M114.98 111.748a18.834 18.834 0 0 0-7.149 6.464l-61.268 94.262a19.25 19.25 0 0 0-3.054 11.775h115.818l14.386-22.135-58.733-90.366z" fill="#37c4b3"/><g fill="#ffc753"><path d="M100.645 51.073c-25.232-7.07-29.687-11.588-36.654-37.19-.877-3.224-3.767-5.456-7.062-5.456s-6.187 2.233-7.064 5.456c-6.967 25.602-11.421 30.12-36.653 37.19-3.174.889-5.375 3.821-5.375 7.166 0 3.344 2.201 6.277 5.377 7.166 25.232 7.07 29.685 11.588 36.653 37.19.877 3.222 3.768 5.455 7.064 5.455s6.186-2.233 7.062-5.455c6.967-25.602 11.421-30.12 36.654-37.19 3.176-.89 5.376-3.822 5.376-7.166-.002-3.345-2.202-6.277-5.378-7.166zM499.707 456.36c-20.906-5.857-24.597-9.601-30.369-30.814-.727-2.671-3.121-4.519-5.852-4.519s-5.126 1.849-5.854 4.519c-5.771 21.215-9.464 24.957-30.37 30.814-2.633.739-4.457 3.167-4.457 5.939 0 2.771 1.823 5.2 4.457 5.939 20.906 5.856 24.598 9.6 30.37 30.814.726 2.671 3.121 4.52 5.854 4.52 2.73 0 5.124-1.85 5.852-4.52 5.772-21.214 9.464-24.958 30.369-30.814 2.633-.739 4.457-3.167 4.457-5.939s-1.824-5.201-4.457-5.939z"/></g><path d="M363.214 452.904a10.53 10.53 0 0 1-8.164-3.902l-96.697-118.761c-2.963-3.639-3.237-8.816-.676-12.756l34.51-53.096c1.958-3.013 5.282-4.827 8.839-4.827h124.375c3.559 0 6.88 1.814 8.841 4.827l34.507 53.096c2.562 3.941 2.288 9.117-.675 12.756l-96.696 118.761a10.526 10.526 0 0 1-8.164 3.902z" fill="#d69ef0"/><path d="M468.75 317.485l-34.507-53.096c-1.961-3.013-5.282-4.827-8.841-4.827H301.027c-3.557 0-6.881 1.814-8.839 4.827l-34.51 53.096a10.842 10.842 0 0 0-1.72 6.631h65.498l41.758 128.811 41.758-128.811h65.498a10.83 10.83 0 0 0-1.72-6.631z" fill="#efc7ff"/><g fill="#bc81e2"><path d="M296.216 260.747a10.621 10.621 0 0 0-4.027 3.639l-34.512 53.098a10.838 10.838 0 0 0-1.72 6.631h65.238l8.104-12.469-33.083-50.899zM468.75 317.485l-34.511-53.098a10.57 10.57 0 0 0-4.028-3.639l-33.084 50.899 8.104 12.47h65.239a10.821 10.821 0 0 0-1.72-6.632z"/></g><path d="M349.863 411.745l-66.36-81.503c-2.963-3.639-3.237-8.816-.676-12.756l25.076-38.581-11.819-18.086a10.595 10.595 0 0 0-3.886 3.559l-.006.01.002-.005-.004.006-34.51 53.096c-2.561 3.941-2.286 9.117.676 12.756l96.697 118.761a10.536 10.536 0 0 0 8.156 3.902l-13.346-41.159z" opacity=".1"/><path d="M421.278 212.475l-61.267-94.262a18.85 18.85 0 0 0-7.152-6.464l-58.732 90.366 14.387 22.135h115.821a19.268 19.268 0 0 0-3.057-11.775z" fill="#37c4b3"/><path d="M220.806 412.476L76.404 235.123c-5.261-6.463-5.749-15.652-1.201-22.649l52.833-81.29-12.656-19.653a18.865 18.865 0 0 0-7.557 6.685l-61.262 94.258c-4.548 6.997-4.06 16.187 1.201 22.649l171.666 210.838c3.57 4.386 8.885 6.926 14.491 6.926l-.014-.001-13.099-40.41z" opacity=".1"/><path fill="#d69ef0" d="M363.153 259.56l-41.957 64.556h84.036l-41.958-64.556z"/><path d="M56.929 115.887c6.812 0 12.825-4.619 14.624-11.235 6.258-22.995 8.591-25.365 31.206-31.701 6.535-1.831 11.099-7.881 11.099-14.713s-4.564-12.882-11.099-14.712c-22.615-6.336-24.948-8.706-31.206-31.7C69.754 5.21 63.741.59 56.929.59S44.103 5.211 42.304 11.825c-6.259 22.996-8.591 25.366-31.205 31.701C4.564 45.357 0 51.407 0 58.239s4.564 12.883 11.099 14.712c22.614 6.335 24.947 8.706 31.205 31.701 1.799 6.616 7.813 11.235 14.625 11.235zm-40.26-57.648c26.046-7.455 32.928-14.325 40.26-40.491C64.26 43.913 71.142 50.784 97.19 58.239 71.143 65.694 64.26 72.563 56.929 98.73c-7.332-26.164-14.214-33.035-40.26-40.491zM501.822 448.813c-18.242-5.111-19.872-6.768-24.923-25.328-1.652-6.063-7.167-10.296-13.413-10.296-6.249 0-11.766 4.235-13.414 10.3-5.049 18.557-6.679 20.215-24.925 25.326-5.991 1.681-10.175 7.227-10.175 13.484s4.184 11.803 10.179 13.485c18.242 5.11 19.872 6.767 24.922 25.325 1.65 6.065 7.166 10.301 13.414 10.301 6.245 0 11.761-4.234 13.413-10.3 5.051-18.559 6.681-20.217 24.925-25.326C507.816 474.103 512 468.558 512 462.3c0-6.26-4.184-11.804-10.178-13.487zm-38.337 42.283c-5.407-17.343-11.39-23.312-28.692-28.797 17.305-5.487 23.284-11.455 28.692-28.798 5.408 17.343 11.39 23.312 28.692 28.798-17.304 5.486-23.283 11.453-28.692 28.797zM475.321 313.215l-34.51-53.102c-3.419-5.253-9.179-8.389-15.409-8.389h-8.736l9.487-11.651a26.992 26.992 0 0 0 2.819-29.98c-.348-.641-62.386-96.148-62.386-96.148-4.941-7.6-13.265-12.136-22.264-12.136H123.517c-9 0-17.322 4.537-22.265 12.139L39.99 208.205c-6.44 9.907-5.758 22.714 1.695 31.868l63.793 78.349a7.837 7.837 0 1 0 12.153-9.895l-62.237-76.438h98.695l65.292 201.404-83.034-101.979a7.837 7.837 0 0 0-12.155 9.895l89.157 109.5c5.076 6.238 12.574 9.816 20.57 9.816 7.993 0 15.491-3.577 20.571-9.815l46.004-56.502 48.479 59.541c3.513 4.316 8.704 6.793 14.241 6.793s10.729-2.475 14.24-6.791l96.697-118.761a18.623 18.623 0 0 0 1.17-21.975zm-165.436-45.818h38.827l-19.412 29.87-19.415-29.87zm10.068 44.251l-3.01 4.632h-49.134l27.578-42.429 24.566 37.797zm-12.569-59.924l6.367-19.638h98.693l-15.989 19.638h-89.071zm55.83 22.124l27.578 42.431h-55.157l27.579-42.431zm14.501-6.451h38.827l-19.414 29.868-19.413-29.868zM354.334 123.86l60.156 92.554H312.767l-9.292-14.298 50.859-78.256zm-14.547-6.378l-45.659 70.253-45.661-70.253h91.32zm-120.415 0l-45.66 70.253-45.661-70.253h91.321zm-64.3 98.93H53.349l60.156-92.552 50.86 78.253-9.293 14.299zm15.493 15.674h55.133a7.837 7.837 0 0 0 0-15.674h-51.932l60.155-92.553 60.155 92.553h-37.03a7.837 7.837 0 0 0 0 15.674h40.23l-7.66 23.628a18.588 18.588 0 0 0-3.998 4.402l-34.511 53.098a18.624 18.624 0 0 0 1.171 21.974l8.277 10.166-26.634 82.16-63.356-195.428zm77.892 201.409l23.881-73.666 18.049 22.167-41.93 51.499zm21.396-101.542h45.904l30.369 93.677-76.273-93.677zm110.448 93.678l12.205-37.648a7.837 7.837 0 0 0-14.908-4.834l-14.383 44.366-30.98-95.563h61.96l-6.774 20.895a7.837 7.837 0 0 0 5.037 9.871c.804.26 1.617.385 2.419.385a7.84 7.84 0 0 0 7.453-5.422l8.34-25.728h45.906l-76.275 93.678zm29.185-109.351l-3.01-4.633 24.567-37.797 27.578 42.43h-49.135z"/></svg>