<?xml version="1.0" encoding="iso-8859-1"?>
<!-- Generator: Adobe Illustrator 19.0.0, SVG Export Plug-In . SVG Version: 6.00 Build 0)  -->
<svg version="1.1" id="Layer_1" xmlns="http://www.w3.org/2000/svg" xmlns:xlink="http://www.w3.org/1999/xlink" x="0px" y="0px"
	 viewBox="0 0 512 512" style="enable-background:new 0 0 512 512;" xml:space="preserve">
<path style="fill:#53E7D3;" d="M258.354,330.242c-2.963-3.639-3.237-8.816-0.676-12.756l34.51-53.096
	c1.958-3.013,5.282-4.827,8.839-4.827h99.152l19.897-24.437c5.263-6.463,5.75-15.652,1.202-22.649l-61.261-94.258
	c-3.481-5.352-9.375-8.572-15.694-8.572H123.517c-6.318,0-12.214,3.22-15.693,8.572l-61.262,94.258
	c-4.548,6.997-4.06,16.187,1.201,22.649l171.666,210.837c3.57,4.386,8.885,6.926,14.491,6.926c5.609,0,10.921-2.539,14.494-6.926
	l52.081-63.966L258.354,330.242z"/>
<path style="fill:#B9F5ED;" d="M258.354,330.242c-2.963-3.639-3.237-8.816-0.676-12.756l34.51-53.096
	c1.024-1.576,2.426-2.812,4.034-3.645l11.83-36.494h116.28c0.269-4.06-0.733-8.202-3.055-11.775l-61.261-94.258
	c-3.481-5.352-9.375-8.572-15.694-8.572H123.517c-6.318,0-12.214,3.22-15.693,8.572l-61.262,94.258
	c-2.322,3.573-3.323,7.714-3.055,11.775h116.28l74.12,228.637c0.004,0,0.009,0.001,0.014,0.001s0.008-0.001,0.014-0.001
	l35.392-109.172L258.354,330.242z"/>
<polygon style="fill:#53E7D3;" points="233.813,109.645 159.326,224.249 308.514,224.249 234.027,109.645 "/>
<path style="fill:#37C4B3;" d="M114.98,111.748c-2.852,1.476-5.333,3.671-7.149,6.464l-61.268,94.262
	c-2.321,3.571-3.322,7.713-3.054,11.775h115.818l14.386-22.135L114.98,111.748z"/>
<g>
	<path style="fill:#FFC753;" d="M100.645,51.073c-25.232-7.07-29.687-11.588-36.654-37.19c-0.877-3.224-3.767-5.456-7.062-5.456
		s-6.187,2.233-7.064,5.456c-6.967,25.602-11.421,30.12-36.653,37.19c-3.174,0.889-5.375,3.821-5.375,7.166
		c0,3.344,2.201,6.277,5.377,7.166c25.232,7.07,29.685,11.588,36.653,37.19c0.877,3.222,3.768,5.455,7.064,5.455
		s6.186-2.233,7.062-5.455c6.967-25.602,11.421-30.12,36.654-37.19c3.176-0.89,5.376-3.822,5.376-7.166
		C106.021,54.894,103.821,51.962,100.645,51.073z"/>
	<path style="fill:#FFC753;" d="M499.707,456.36c-20.906-5.857-24.597-9.601-30.369-30.814c-0.727-2.671-3.121-4.519-5.852-4.519
		s-5.126,1.849-5.854,4.519c-5.771,21.215-9.464,24.957-30.37,30.814c-2.633,0.739-4.457,3.167-4.457,5.939
		c0,2.771,1.823,5.2,4.457,5.939c20.906,5.856,24.598,9.6,30.37,30.814c0.726,2.671,3.121,4.52,5.854,4.52
		c2.73,0,5.124-1.85,5.852-4.52c5.772-21.214,9.464-24.958,30.369-30.814c2.633-0.739,4.457-3.167,4.457-5.939
		S502.34,457.098,499.707,456.36z"/>
</g>
<path style="fill:#D69EF0;" d="M363.214,452.904c-3.157,0-6.152-1.43-8.164-3.902l-96.697-118.761
	c-2.963-3.639-3.237-8.816-0.676-12.756l34.51-53.096c1.958-3.013,5.282-4.827,8.839-4.827h124.375c3.559,0,6.88,1.814,8.841,4.827
	l34.507,53.096c2.562,3.941,2.288,9.117-0.675,12.756l-96.696,118.761C369.366,451.474,366.373,452.904,363.214,452.904z"/>
<path style="fill:#EFC7FF;" d="M468.75,317.485l-34.507-53.096c-1.961-3.013-5.282-4.827-8.841-4.827H301.027
	c-3.557,0-6.881,1.814-8.839,4.827l-34.51,53.096c-1.307,2.011-1.871,4.344-1.72,6.631h65.498l41.758,128.811l41.758-128.811h65.498
	C470.622,321.829,470.058,319.497,468.75,317.485z"/>
<g>
	<path style="fill:#BC81E2;" d="M296.216,260.747c-1.604,0.831-3.004,2.066-4.027,3.639l-34.512,53.098
		c-1.307,2.01-1.871,4.343-1.72,6.631h65.238l8.104-12.469L296.216,260.747z"/>
	<path style="fill:#BC81E2;" d="M468.75,317.485l-34.511-53.098c-1.023-1.575-2.42-2.809-4.028-3.639l-33.084,50.899l8.104,12.47
		h65.239C470.622,321.828,470.059,319.496,468.75,317.485z"/>
</g>
<path style="opacity:0.1;enable-background:new    ;" d="M349.863,411.745l-66.36-81.503c-2.963-3.639-3.237-8.816-0.676-12.756
	l25.076-38.581l-11.819-18.086c-1.546,0.828-2.893,2.034-3.886,3.559l-0.006,0.01c0.001-0.001,0.001-0.004,0.002-0.005
	c-0.001,0.002-0.003,0.004-0.004,0.006l-34.51,53.096c-2.561,3.941-2.286,9.117,0.676,12.756l96.697,118.761
	c2.009,2.469,5.002,3.898,8.156,3.902L349.863,411.745z"/>
<path style="fill:#37C4B3;" d="M421.278,212.475l-61.267-94.262c-1.817-2.794-4.3-4.987-7.152-6.464l-58.732,90.366l14.387,22.135
	h115.821C424.6,220.188,423.6,216.047,421.278,212.475z"/>
<path style="opacity:0.1;enable-background:new    ;" d="M220.806,412.476L76.404,235.123c-5.261-6.463-5.749-15.652-1.201-22.649
	l52.833-81.29l-12.656-19.653c-3.024,1.473-5.653,3.757-7.557,6.685l-61.262,94.258c-4.548,6.997-4.06,16.187,1.201,22.649
	l171.666,210.838c3.57,4.386,8.885,6.926,14.491,6.926c-0.004,0-0.008-0.001-0.014-0.001L220.806,412.476z"/>
<polygon style="fill:#D69EF0;" points="363.153,259.56 321.196,324.116 405.232,324.116 363.274,259.56 "/>
<path d="M56.929,115.887c6.812,0,12.825-4.619,14.624-11.235c6.258-22.995,8.591-25.365,31.206-31.701
	c6.535-1.831,11.099-7.881,11.099-14.713s-4.564-12.882-11.099-14.712c-22.615-6.336-24.948-8.706-31.206-31.7
	C69.754,5.21,63.741,0.59,56.929,0.59c-6.812,0-12.826,4.621-14.625,11.235c-6.259,22.996-8.591,25.366-31.205,31.701
	C4.564,45.357,0,51.407,0,58.239s4.564,12.883,11.099,14.712c22.614,6.335,24.947,8.706,31.205,31.701
	C44.103,111.268,50.117,115.887,56.929,115.887z M16.669,58.239c26.046-7.455,32.928-14.325,40.26-40.491
	C64.26,43.913,71.142,50.784,97.19,58.239C71.143,65.694,64.26,72.563,56.929,98.73C49.597,72.566,42.715,65.695,16.669,58.239z"/>
<path d="M501.822,448.813c-18.242-5.111-19.872-6.768-24.923-25.328c-1.652-6.063-7.167-10.296-13.413-10.296
	c-6.249,0-11.766,4.235-13.414,10.3c-5.049,18.557-6.679,20.215-24.925,25.326c-5.991,1.681-10.175,7.227-10.175,13.484
	s4.184,11.803,10.179,13.485c18.242,5.11,19.872,6.767,24.922,25.325c1.65,6.065,7.166,10.301,13.414,10.301
	c6.245,0,11.761-4.234,13.413-10.3c5.051-18.559,6.681-20.217,24.925-25.326C507.816,474.103,512,468.558,512,462.3
	C512,456.04,507.816,450.496,501.822,448.813z M463.485,491.096c-5.407-17.343-11.39-23.312-28.692-28.797
	c17.305-5.487,23.284-11.455,28.692-28.798c5.408,17.343,11.39,23.312,28.692,28.798
	C474.873,467.785,468.894,473.752,463.485,491.096z"/>
<path d="M475.321,313.215l-34.51-53.102c-3.419-5.253-9.179-8.389-15.409-8.389h-8.736l9.487-11.651
	c6.99-8.582,8.025-20.376,2.819-29.98c-0.348-0.641-62.386-96.148-62.386-96.148c-4.941-7.6-13.265-12.136-22.264-12.136H234.027
	h-0.215H123.517c-9,0-17.322,4.537-22.265,12.139L39.99,208.205c-6.44,9.907-5.758,22.714,1.695,31.868l63.793,78.349
	c2.733,3.357,7.67,3.862,11.025,1.13c3.356-2.732,3.862-7.669,1.128-11.025l-62.237-76.438h98.695l65.292,201.404l-83.034-101.979
	c-2.732-3.356-7.669-3.861-11.025-1.13c-3.356,2.732-3.862,7.668-1.13,11.025l89.157,109.5c5.076,6.238,12.574,9.816,20.57,9.816
	c7.993,0,15.491-3.577,20.571-9.815l46.004-56.502l48.479,59.541c3.513,4.316,8.704,6.793,14.241,6.793s10.729-2.475,14.24-6.791
	l96.697-118.761C479.292,328.876,479.761,320.044,475.321,313.215z M309.885,267.397h38.827L329.3,297.267L309.885,267.397z
	 M319.953,311.648l-3.01,4.632h-49.134l27.578-42.429L319.953,311.648z M307.384,251.724l6.367-19.638h98.693l-15.989,19.638h-33.18
	h-0.121H307.384z M363.214,273.848l27.578,42.431h-55.157L363.214,273.848z M377.715,267.397h38.827l-19.414,29.868L377.715,267.397
	z M354.334,123.86l60.156,92.554H312.767l-9.292-14.298L354.334,123.86z M339.787,117.482l-45.659,70.253l-45.661-70.253H339.787z
	 M219.372,117.482l-45.66,70.253l-45.661-70.253H219.372z M155.072,216.412H53.349l60.156-92.552l50.86,78.253L155.072,216.412z
	 M170.565,232.086h55.133c4.328,0,7.837-3.509,7.837-7.837c0-4.328-3.509-7.837-7.837-7.837h-51.932l60.155-92.553l60.155,92.553
	h-37.03c-4.328,0-7.837,3.509-7.837,7.837c0,4.328,3.509,7.837,7.837,7.837h40.23l-7.66,23.628c-1.535,1.224-2.891,2.7-3.998,4.402
	l-34.511,53.098c-4.439,6.832-3.969,15.662,1.171,21.974l8.277,10.166l-26.634,82.16L170.565,232.086z M248.457,433.495
	l23.881-73.666l18.049,22.167L248.457,433.495z M269.853,331.953h45.904l30.369,93.677L269.853,331.953z M380.301,425.631
	l12.205-37.648c1.334-4.117-0.921-8.537-5.037-9.871c-4.116-1.335-8.537,0.921-9.871,5.037l-14.383,44.366l-30.98-95.563h61.96
	l-6.774,20.895c-1.334,4.117,0.921,8.537,5.037,9.871c0.804,0.26,1.617,0.385,2.419,0.385c3.306,0,6.379-2.109,7.453-5.422
	l8.34-25.728h45.906L380.301,425.631z M409.486,316.28l-3.01-4.633l24.567-37.797l27.578,42.43H409.486z"/>
<g>
</g>
<g>
</g>
<g>
</g>
<g>
</g>
<g>
</g>
<g>
</g>
<g>
</g>
<g>
</g>
<g>
</g>
<g>
</g>
<g>
</g>
<g>
</g>
<g>
</g>
<g>
</g>
<g>
</g>
</svg>
