<svg height="512pt" viewBox="0 -24 512.002 512" width="512pt" xmlns="http://www.w3.org/2000/svg"><g fill="#c9f3ff"><path d="M48.219 26.45l-34.5 130.538c-10.278 38.89.898 80.317 29.343 108.762 44.126 44.121 115.665 44.121 159.79 0 28.445-28.445 39.62-69.871 29.343-108.762L197.7 26.45zm0 0"/><path d="M104.465 299.215v84.7c0 9.089-5.457 17.292-13.844 20.8L47.97 422.563c-8.285 3.464-5.809 15.804 3.172 15.804h143.632c8.985 0 11.457-12.344 3.168-15.808l-42.574-17.786a22.544 22.544 0 0 1-13.855-20.804v-85.13zm0 0M463.785 26.45l34.496 130.538c10.278 38.89-.898 80.313-29.344 108.758-44.125 44.125-115.664 44.125-159.789 0-28.445-28.445-39.62-69.867-29.34-108.758L314.302 26.45zm0 0"/><path d="M407.535 299.215v84.7c0 9.089 5.457 17.292 13.844 20.8l42.652 17.848c8.285 3.464 5.809 15.804-3.172 15.804H317.227c-8.985 0-11.457-12.344-3.168-15.808l42.574-17.786a22.544 22.544 0 0 0 13.855-20.804v-85.13zm0 0M175.285 10l-37.25 140.965c-11.101 41.996.969 86.73 31.684 117.445 47.648 47.649 124.902 47.649 172.547 0 30.718-30.715 42.789-75.45 31.687-117.445L336.703 10zm0 0"/><path d="M236.027 304.55v91.462a24.352 24.352 0 0 1-14.953 22.46l-46.058 19.274c-8.946 3.746-6.27 17.07 3.425 17.07h155.106c9.7 0 12.371-13.332 3.422-17.07l-45.977-19.207a24.35 24.35 0 0 1-14.96-22.465v-91.926zm0 0"/></g><path d="M467.895 413.336l-42.657-17.848a12.514 12.514 0 0 1-7.703-11.574v-78.418c22.004-5.254 42.36-16.559 58.473-32.676 30.847-30.847 43.09-76.21 31.941-118.386l-34.496-130.54a9.999 9.999 0 0 0-9.672-7.445H348.75l-2.379-9.004A10.002 10.002 0 0 0 336.703 0H175.285c-4.539 0-8.512 3.059-9.672 7.445l-2.375 9.004H48.218a9.999 9.999 0 0 0-9.671 7.446L4.05 154.434c-11.145 42.175 1.094 87.539 31.941 118.386 16.117 16.114 36.473 27.422 58.473 32.676v78.418c0 5.07-3.024 9.617-7.703 11.574l-42.653 17.848c-8.109 3.39-12.562 11.781-10.832 20.398 1.73 8.618 9.075 14.637 17.864 14.637h108.593c.055.426.114.856.2 1.285 1.793 8.926 9.402 15.16 18.511 15.16h155.102c9.11 0 16.719-6.234 18.512-15.168.086-.425.144-.851.199-1.277h108.601c8.79 0 16.137-6.02 17.868-14.637 1.726-8.617-2.727-17.007-10.832-20.398zM456.082 36.449l32.527 123.094c9.336 35.316-.914 73.305-26.746 99.133-31.18 31.18-77.492 38.867-116.414 20.531a129.256 129.256 0 0 0 3.89-3.727c33.11-33.109 46.247-81.8 34.282-127.07L354.035 36.45zM307.836 414.74l-12.988-5.427a14.312 14.312 0 0 1-8.817-13.238v-85.347c15-3.473 29.219-9.551 42.117-18a122.758 122.758 0 0 0 32.34 12.726v78.516c0 5.078-3.027 9.62-7.71 11.578l-42.575 17.785a9.877 9.877 0 0 0-2.367 1.406zm21.168-394.735l35.281 133.516c10.149 38.414-.996 79.726-29.09 107.82-21.156 21.156-49.28 32.805-79.203 32.805-29.918 0-58.043-11.649-79.199-32.805-28.094-28.094-39.242-69.406-29.09-107.82l35.281-133.516zM204.14 414.719c-.7-.551-1.48-1.028-2.34-1.387l-42.578-17.785a12.512 12.512 0 0 1-7.707-11.578v-78.516c11.296-2.691 22.207-6.96 32.332-12.726a130.321 130.321 0 0 0 42.18 18.015v85.27c0 5.8-3.462 10.996-8.813 13.238zM23.39 159.543L55.918 36.449h102.031L128.363 148.41c-11.965 45.27 1.176 93.961 34.285 127.07a129.397 129.397 0 0 0 3.891 3.73c-38.918 18.33-85.227 10.642-116.402-20.534-25.832-25.828-36.082-63.817-26.746-99.133zm71.093 254.398a32.48 32.48 0 0 0 19.985-30.027V308.54c2.789.191 5.586.297 8.379.297 2.89 0 5.78-.102 8.664-.305v75.438a32.465 32.465 0 0 0 20 30.031l27.191 11.36-7.18 3.003H60.003zm89.551 30.872l40.902-17.114a34.262 34.262 0 0 0 21.09-31.687v-82.235a134.059 134.059 0 0 0 20.004-.004v82.301a34.259 34.259 0 0 0 21.11 31.692l40.804 17.046zm156.426-16.446l-7.18-3L360.488 414a32.468 32.468 0 0 0 20.004-30.031V308.53c2.88.203 5.77.305 8.664.305 2.79 0 5.586-.106 8.38-.297v75.375a32.473 32.473 0 0 0 19.984 30.027l34.476 14.426zm0 0"/><path d="M311.152 247.297a9.968 9.968 0 0 0 7.07-2.93c22.075-22.074 30.833-54.535 22.856-84.715-1.41-5.34-6.887-8.527-12.226-7.113-5.34 1.41-8.524 6.883-7.11 12.223 6.16 23.32-.605 48.402-17.664 65.46-3.902 3.907-3.902 10.239 0 14.145a9.976 9.976 0 0 0 7.074 2.93zm0 0M321.957 136.406c5.523 0 10.004-4.48 10.004-10.004 0-5.523-4.48-10-10.004-10h-.008c-5.523 0-9.996 4.477-9.996 10 0 5.524 4.48 10.004 10.004 10.004zm0 0M439.629 117.258c2.633 0 5.2-1.063 7.062-2.922a10.046 10.046 0 0 0 2.93-7.07 10.06 10.06 0 0 0-2.93-7.082 10.05 10.05 0 0 0-7.062-2.918c-2.64 0-5.223 1.058-7.082 2.918a10.082 10.082 0 0 0-2.918 7.082c0 2.629 1.058 5.21 2.918 7.07a10.079 10.079 0 0 0 7.082 2.922zm0 0M437.82 244.633a9.968 9.968 0 0 0 7.07-2.93c19.81-19.808 27.673-48.941 20.512-76.027l-6.105-23.106c-1.41-5.34-6.887-8.527-12.223-7.113-5.34 1.41-8.523 6.883-7.113 12.227l6.105 23.101c5.344 20.227-.523 41.985-15.32 56.774-3.902 3.906-3.902 10.238 0 14.144a9.976 9.976 0 0 0 7.074 2.93zm0 0"/></svg>