<svg height="512pt" viewBox="0 -24 512.00159 512" width="512pt" xmlns="http://www.w3.org/2000/svg"><g fill="#c9f3ff"><path d="m48.21875 26.449219-34.5 130.539062c-10.277344 38.890625.898438 80.316407 29.34375 108.761719 44.125 44.121094 115.664062 44.121094 159.789062 0 28.445313-28.445312 39.621094-69.871094 29.34375-108.761719l-34.496093-130.539062zm0 0"/><path d="m104.464844 299.214844v84.699218c0 9.089844-5.457032 17.292969-13.84375 20.800782l-42.652344 17.847656c-8.285156 3.464844-5.808594 15.804688 3.171875 15.804688h143.632813c8.984374 0 11.457031-12.34375 3.167968-15.808594l-42.574218-17.785156c-8.390626-3.503907-13.855469-11.707032-13.855469-20.804688v-85.128906zm0 0"/><path d="m463.785156 26.449219 34.496094 130.539062c10.277344 38.890625-.898438 80.3125-29.34375 108.757813-44.125 44.125-115.664062 44.125-159.789062 0-28.445313-28.445313-39.621094-69.867188-29.339844-108.757813l34.492187-130.539062zm0 0"/><path d="m407.535156 299.214844v84.699218c0 9.089844 5.457032 17.292969 13.84375 20.800782l42.652344 17.847656c8.285156 3.464844 5.808594 15.804688-3.171875 15.804688h-143.632813c-8.984374 0-11.457031-12.34375-3.167968-15.808594l42.574218-17.785156c8.390626-3.503907 13.855469-11.707032 13.855469-20.804688v-85.128906zm0 0"/><path d="m175.285156 10-37.25 140.964844c-11.101562 41.996094.96875 86.730468 31.683594 117.445312 47.648438 47.648438 124.902344 47.648438 172.546875 0 30.71875-30.714844 42.789063-75.449218 31.6875-117.445312l-37.25-140.964844zm0 0"/><path d="m236.027344 304.550781v91.460938c0 9.816406-5.898438 18.671875-14.953125 22.460937l-46.058594 19.273438c-8.945313 3.746094-6.269531 17.070312 3.425781 17.070312h155.105469c9.699219 0 12.371094-13.332031 3.421875-17.070312l-45.976562-19.207032c-9.058594-3.785156-14.960938-12.644531-14.960938-22.464843v-91.925781zm0 0"/></g><path d="m467.894531 413.335938-42.65625-17.847657c-4.679687-1.957031-7.703125-6.5-7.703125-11.574219v-78.417968c22.003906-5.253906 42.359375-16.558594 58.472656-32.675782 30.847657-30.847656 43.089844-76.210937 31.941407-118.386718l-34.496094-130.539063c-1.160156-4.390625-5.128906-7.445312-9.671875-7.445312h-115.03125l-2.378906-9.003907c-1.160156-4.386718-5.128906-7.445312-9.667969-7.445312h-161.417969c-4.539062 0-8.511718 3.058594-9.671875 7.445312l-2.375 9.003907h-115.019531c-4.542969 0-8.511719 3.054687-9.671875 7.445312l-34.496094 130.539063c-11.144531 42.175781 1.09375 87.539062 31.941407 118.386718 16.117187 16.113282 36.472656 27.421876 58.472656 32.675782v78.417968c0 5.070313-3.023438 9.617188-7.703125 11.574219l-42.652344 17.847657c-8.109375 3.390624-12.5625 11.78125-10.832031 20.398437 1.730468 8.617187 9.074218 14.636719 17.863281 14.636719h108.59375c.054687.425781.113281.855468.199219 1.285156 1.792968 8.925781 9.402344 15.160156 18.511718 15.160156h155.101563c9.109375 0 16.71875-6.234375 18.511719-15.167968.085937-.425782.144531-.851563.199218-1.277344h108.601563c8.789063 0 16.136719-6.019532 17.867187-14.636719 1.726563-8.617187-2.726562-17.007813-10.832031-20.398437zm-11.8125-376.886719 32.527344 123.09375c9.335937 35.316406-.914063 73.304687-26.746094 99.132812-31.179687 31.179688-77.492187 38.867188-116.414062 20.53125 1.316406-1.214843 2.617187-2.449219 3.890625-3.726562 33.109375-33.109375 46.246094-81.800781 34.28125-127.070313l-29.585938-111.960937zm-148.246093 378.289062-12.988282-5.425781c-5.355468-2.238281-8.816406-7.433594-8.816406-13.238281v-85.347657c15-3.472656 29.21875-9.550781 42.117188-18 10.125 5.765626 21.035156 10.039063 32.339843 12.726563v78.515625c0 5.078125-3.027343 9.621094-7.710937 11.578125l-42.574219 17.785156c-.875.363281-1.660156.84375-2.367187 1.40625zm21.167968-394.734375 35.28125 133.515625c10.148438 38.414063-.996094 79.726563-29.089844 107.820313-21.15625 21.15625-49.28125 32.804687-79.203124 32.804687-29.917969 0-58.042969-11.648437-79.199219-32.804687-28.09375-28.09375-39.242188-69.40625-29.089844-107.820313l35.28125-133.515625zm-124.863281 394.714844c-.699219-.550781-1.480469-1.027344-2.339844-1.386719l-42.578125-17.785156c-4.683594-1.957031-7.707031-6.5-7.707031-11.578125v-78.515625c11.296875-2.691406 22.207031-6.960937 32.332031-12.726563 12.914063 8.464844 27.15625 14.546876 42.179688 18.015626v85.269531c0 5.800781-3.460938 10.996093-8.8125 13.238281zm-180.75-255.175781 32.527344-123.09375h102.03125l-29.585938 111.960937c-11.964843 45.269532 1.175781 93.960938 34.285157 127.070313 1.273437 1.277343 2.574218 2.515625 3.890624 3.730469-38.917968 18.328124-85.226562 10.640624-116.402343-20.535157-25.832031-25.828125-36.082031-63.816406-26.746094-99.132812zm71.09375 254.398437c12.136719-5.082031 19.984375-16.867187 19.984375-30.027344v-75.375c2.789062.191407 5.585938.296876 8.378906.296876 2.890625 0 5.78125-.101563 8.664063-.304688v75.4375c0 13.167969 7.851562 24.957031 20 30.03125l27.191406 11.359375-7.179687 3.003906h-111.519532zm89.550781 30.871094 40.902344-17.113281c12.8125-5.359375 21.089844-17.796875 21.089844-31.6875v-82.234375c3.300781.246094 6.625.371094 9.96875.371094 3.363281 0 6.710937-.128907 10.035156-.375v82.300781c0 13.894531 8.285156 26.335937 21.109375 31.691406l40.804687 17.046875zm156.425782-16.445312-7.179688-3 27.207031-11.367188c12.148438-5.074219 20.003907-16.863281 20.003907-30.03125v-75.4375c2.878906.203125 5.769531.304688 8.664062.304688 2.789062 0 5.585938-.105469 8.378906-.296876v75.375c0 13.160157 7.84375 24.945313 19.984375 30.027344l34.476563 14.425782zm0 0"/><path d="m311.152344 247.296875c2.558594 0 5.117187-.976563 7.070312-2.929687 22.074219-22.074219 30.832032-54.535157 22.855469-84.714844-1.410156-5.339844-6.886719-8.527344-12.226563-7.113282-5.339843 1.410157-8.523437 6.882813-7.109374 12.222657 6.160156 23.320312-.605469 48.402343-17.664063 65.460937-3.902344 3.90625-3.902344 10.238282 0 14.144532 1.953125 1.953124 4.515625 2.929687 7.074219 2.929687zm0 0"/><path d="m321.957031 136.40625c5.523438 0 10.003907-4.480469 10.003907-10.003906 0-5.523438-4.480469-10-10.003907-10h-.007812c-5.523438 0-9.996094 4.476562-9.996094 10 0 5.523437 4.480469 10.003906 10.003906 10.003906zm0 0"/><path d="m439.628906 117.257812c2.632813 0 5.199219-1.0625 7.0625-2.921874 1.867188-1.859376 2.929688-4.441407 2.929688-7.070313 0-2.640625-1.0625-5.21875-2.929688-7.082031-1.863281-1.859375-4.429687-2.917969-7.0625-2.917969-2.640625 0-5.222656 1.058594-7.082031 2.917969-1.859375 1.863281-2.917969 4.441406-2.917969 7.082031 0 2.628906 1.058594 5.210937 2.917969 7.070313 1.859375 1.859374 4.441406 2.921874 7.082031 2.921874zm0 0"/><path d="m437.820312 244.632812c2.558594 0 5.117188-.976562 7.070313-2.929687 19.808594-19.808594 27.671875-48.941406 20.511719-76.027344l-6.105469-23.105469c-1.410156-5.339843-6.886719-8.527343-12.222656-7.113281-5.339844 1.410157-8.523438 6.882813-7.113281 12.226563l6.105468 23.101562c5.34375 20.226563-.523437 41.984375-15.320312 56.773438-3.902344 3.90625-3.902344 10.238281 0 14.144531 1.953125 1.953125 4.515625 2.929687 7.074218 2.929687zm0 0"/></svg>