<svg xmlns="http://www.w3.org/2000/svg" viewBox="0 0 512 512"><path fill="#898890" d="M7.5 82.88h497v35.15H7.5z"/><path fill="#57565c" d="M7.5 82.88h82.83v35.15H7.5z"/><path d="M7.5 118.026v240.645h48.574V250.144c0-44.248 80.118-80.117 80.118-80.117s80.117 35.87 80.117 80.117v108.528h79.384V250.144c0-44.248 80.118-80.117 80.118-80.117s80.117 35.87 80.117 80.117v108.528H504.5V118.026H7.5z" fill="#c6c5ca"/><g fill="#898890"><path d="M7.5 118.03h31.642v240.65H7.5zM407.452 170.026s-6.514 2.918-15.821 8.11c23.347 13.023 64.296 40.372 64.296 72.008v108.528h31.642V250.143c.001-44.247-80.117-80.117-80.117-80.117zM167.834 170.026s-6.514 2.918-15.821 8.11c23.347 13.023 64.296 40.372 64.296 72.008v108.528h31.642V250.143c0-44.247-80.117-80.117-80.117-80.117z"/><path d="M136.191 170.026s-80.118 35.87-80.118 80.117v108.528h30V250.143c0-5.69 7.241-17.577 27.649-32.35 8.002-5.792 16.104-10.621 22.469-14.123 6.545 3.602 14.932 8.609 23.163 14.63 19.894 14.552 26.953 26.249 26.953 31.843v108.528h30V250.144c.002-44.248-80.116-80.118-80.116-80.118zM375.809 170.026s-80.118 35.87-80.118 80.117v108.528h30V250.143c0-5.69 7.241-17.577 27.649-32.35 8.002-5.792 16.104-10.621 22.469-14.123 6.545 3.602 14.932 8.609 23.163 14.63 19.894 14.552 26.953 26.249 26.953 31.843v108.528h30V250.144c.001-44.248-80.116-80.118-80.116-80.118z"/></g><g fill="#57565c"><path d="M149.538 176.772c-7.965-4.335-13.346-6.746-13.346-6.746s-80.118 35.87-80.118 80.117v108.528h26.692V250.143c0-32.787 43.984-60.969 66.772-73.371zM389.155 176.772c-7.965-4.335-13.346-6.746-13.346-6.746s-80.118 35.87-80.118 80.117v108.528h26.692V250.143c.001-32.787 43.985-60.969 66.772-73.371z"/></g><path fill="#57a4ff" d="M7.5 358.67h497v70.45H7.5z"/><path fill="#006df0" d="M7.5 358.67h142.59v70.45H7.5z"/><g fill="#fff"><path d="M413.64 136.53h68.01v15h-68.01zM363.64 136.53h15v15h-15zM388.64 136.53h15v15h-15zM391.92 386.39h15v15h-15zM366.92 386.39h15v15h-15zM416.92 386.39h68.02v15h-68.02zM112.33 395.19h34.983v15H112.33zM157.32 395.19h15v15h-15zM182.32 395.19h15v15h-15z"/></g><g fill="#1d1d1f"><path d="M38.907 148.53h15v15h-15zM63.907 148.53h15v15h-15zM88.91 148.53h15v15h-15zM241.98 196.48h15v15h-15zM266.98 196.48h15v15h-15zM216.98 196.48h15v15h-15zM286.53 380.19h15v15h-15zM236.53 380.19h15v15h-15zM261.53 380.19h15v15h-15zM432.16 172.53h15v15h-15zM457.16 172.53h15v15h-15zM261.14 306.86h15v15h-15zM236.14 306.86h15v15h-15z"/><path d="M0 75.381v263.29h15v-74.769h23.24v-15H15V125.526h482v128.5h-24.84v15H497v69.645h15V75.381H0zm125.444 15h40.222v20.145h-40.222V90.381zm-15 20.145H70.222V90.381h40.222v20.145zm70.223-20.145h40.222v20.145h-40.222V90.381zm55.222 0h40.223v20.145h-40.223V90.381zm55.222 0h40.222v20.145h-40.222V90.381zm55.222 0h40.222v20.145h-40.222V90.381zm55.223 0h40.222v20.145h-40.222V90.381zM15 90.381h40.222v20.145H15V90.381zm441.778 20.145V90.381H497v20.145h-40.222z"/><path d="M166.37 138.94h14.882v15H166.37zM191.25 138.94h15v15h-15zM276.132 169.287v15h59.663c-22.769 15.706-47.604 38.991-47.604 65.857v88.528h15v-25.145h15v25.145h15v-88.508c.09-1.866 4.52-11.796 24.547-26.294 5.477-3.963 11.542-7.855 18.072-11.597 6.8 3.896 13.087 7.95 18.735 12.082 19.46 14.233 23.788 23.981 23.881 25.79v88.528h15v-25.145h15v25.145h15v-88.528c0-48.549-81.101-85.417-84.553-86.962l-3.064-1.372-3.065 1.372c-.774.346-5.459 2.474-12.251 6.105l-84.361-.001zm27.059 129.239v-41.185l15 4.605v36.58h-15zm15.46-52.13l-14.336-4.401c2.87-10.67 10.982-21.063 21.077-30.382l10.57 10.57c-9.662 8.795-15.674 17.171-17.311 24.213zm30.292-34.678c-.435.315-.862.63-1.289.945l-10.695-10.695c10.693-8.133 22.118-15 31.351-19.891v17.21c-6.972 3.997-13.475 8.167-19.367 12.431zm34.367-12.432v-17.208c9.233 4.891 20.657 11.758 31.349 19.89l-10.696 10.696c-.188-.139-.372-.278-.562-.417-6.081-4.449-12.828-8.797-20.091-12.961zm50.116 99.24v-36.58l15-4.605v41.185h-15zm13.876-56.53l-14.337 4.401c-1.639-7.035-7.659-15.417-17.314-24.209l10.574-10.574c10.095 9.319 18.208 19.712 21.077 30.382zM0 436.619h512v-85.447H0v85.447zm497-70.448v55.447H15v-26.426h74.667v-15H15v-14.021h482zM48.574 338.671h15v-25.145h15v25.145h15v-88.508c.09-1.866 4.52-11.796 24.547-26.294 5.478-3.964 11.542-7.855 18.072-11.597 6.8 3.896 13.087 7.951 18.735 12.082 19.459 14.234 23.788 23.982 23.881 25.791v88.528h15v-25.145h15v25.145h15v-69.645h42.265v-15h-42.265v-3.883c0-48.549-81.1-85.417-84.552-86.962l-3.065-1.372-3.064 1.372c-3.453 1.545-84.553 38.414-84.553 86.962v88.526h-.001zm15-40.145v-41.185l15 4.604v36.58l-15 .001zm45.751-86.808c-.435.315-.861.63-1.288.945l-10.695-10.695c10.693-8.133 22.118-15 31.351-19.891v17.21c-6.972 3.997-13.475 8.166-19.368 12.431zm34.367-12.432v-17.218c9.237 4.886 20.668 11.749 31.365 19.883l-10.711 10.711c-.188-.139-.372-.278-.563-.417-6.08-4.446-12.827-8.794-20.091-12.959zm50.117 99.24v-36.58l15-4.604v41.185l-15-.001zm13.879-56.531l-14.34 4.402c-1.639-7.035-7.659-15.417-17.314-24.209l10.589-10.589c10.092 9.317 18.2 19.713 21.065 30.396zM85.775 211.614l10.57 10.57c-9.662 8.794-15.674 17.17-17.311 24.213l-14.336-4.401c2.869-10.67 10.982-21.063 21.077-30.382z"/></g></svg>