<?xml version="1.0" encoding="iso-8859-1"?>
<!-- Generator: Adobe Illustrator 19.0.0, SVG Export Plug-In . SVG Version: 6.00 Build 0)  -->
<svg version="1.1" id="Capa_1" xmlns="http://www.w3.org/2000/svg" xmlns:xlink="http://www.w3.org/1999/xlink" x="0px" y="0px"
	 viewBox="0 0 512 512" style="enable-background:new 0 0 512 512;" xml:space="preserve">
<rect x="7.5" y="82.88" style="fill:#898890;" width="497" height="35.15"/>
<rect x="7.5" y="82.88" style="fill:#57565C;" width="82.83" height="35.15"/>
<path style="fill:#C6C5CA;" d="M7.5,118.026v240.645h48.574V250.144c0-44.248,80.118-80.117,80.118-80.117
	s80.117,35.87,80.117,80.117v108.528h79.384V250.144c0-44.248,80.118-80.117,80.118-80.117s80.117,35.87,80.117,80.117v108.528
	H504.5V118.026H7.5z"/>
<g>
	<rect x="7.5" y="118.03" style="fill:#898890;" width="31.642" height="240.65"/>
	<path style="fill:#898890;" d="M407.452,170.026c0,0-6.514,2.918-15.821,8.11c23.347,13.023,64.296,40.372,64.296,72.008v108.528
		h31.642V250.143C487.57,205.896,407.452,170.026,407.452,170.026z"/>
	<path style="fill:#898890;" d="M167.834,170.026c0,0-6.514,2.918-15.821,8.11c23.347,13.023,64.296,40.372,64.296,72.008v108.528
		h31.642V250.143C247.951,205.896,167.834,170.026,167.834,170.026z"/>
	<path style="fill:#898890;" d="M136.191,170.026c0,0-80.118,35.87-80.118,80.117v108.528h30V250.143
		c0-5.69,7.241-17.577,27.649-32.35c8.002-5.792,16.104-10.621,22.469-14.123c6.545,3.602,14.932,8.609,23.163,14.63
		c19.894,14.552,26.953,26.249,26.953,31.843v108.528h30V250.144C216.309,205.896,136.191,170.026,136.191,170.026z"/>
	<path style="fill:#898890;" d="M375.809,170.026c0,0-80.118,35.87-80.118,80.117v108.528h30V250.143
		c0-5.69,7.241-17.577,27.649-32.35c8.002-5.792,16.104-10.621,22.469-14.123c6.545,3.602,14.932,8.609,23.163,14.63
		c19.894,14.552,26.953,26.249,26.953,31.843v108.528h30V250.144C455.926,205.896,375.809,170.026,375.809,170.026z"/>
</g>
<g>
	<path style="fill:#57565C;" d="M149.538,176.772c-7.965-4.335-13.346-6.746-13.346-6.746s-80.118,35.87-80.118,80.117v108.528
		h26.692V250.143C82.766,217.356,126.75,189.174,149.538,176.772z"/>
	<path style="fill:#57565C;" d="M389.155,176.772c-7.965-4.335-13.346-6.746-13.346-6.746s-80.118,35.87-80.118,80.117v108.528
		h26.692V250.143C322.384,217.356,366.368,189.174,389.155,176.772z"/>
</g>
<rect x="7.5" y="358.67" style="fill:#57A4FF;" width="497" height="70.45"/>
<rect x="7.5" y="358.67" style="fill:#006DF0;" width="142.59" height="70.45"/>
<g>
	<rect x="413.64" y="136.53" style="fill:#FFFFFF;" width="68.01" height="15"/>
	<rect x="363.64" y="136.53" style="fill:#FFFFFF;" width="15" height="15"/>
	<rect x="388.64" y="136.53" style="fill:#FFFFFF;" width="15" height="15"/>
	<rect x="391.92" y="386.39" style="fill:#FFFFFF;" width="15" height="15"/>
	<rect x="366.92" y="386.39" style="fill:#FFFFFF;" width="15" height="15"/>
	<rect x="416.92" y="386.39" style="fill:#FFFFFF;" width="68.02" height="15"/>
	<rect x="112.33" y="395.19" style="fill:#FFFFFF;" width="34.983" height="15"/>
	<rect x="157.32" y="395.19" style="fill:#FFFFFF;" width="15" height="15"/>
	<rect x="182.32" y="395.19" style="fill:#FFFFFF;" width="15" height="15"/>
</g>
<g>
	<rect x="38.907" y="148.53" style="fill:#1D1D1F;" width="15" height="15"/>
	<rect x="63.907" y="148.53" style="fill:#1D1D1F;" width="15" height="15"/>
	<rect x="88.91" y="148.53" style="fill:#1D1D1F;" width="15" height="15"/>
	<rect x="241.98" y="196.48" style="fill:#1D1D1F;" width="15" height="15"/>
	<rect x="266.98" y="196.48" style="fill:#1D1D1F;" width="15" height="15"/>
	<rect x="216.98" y="196.48" style="fill:#1D1D1F;" width="15" height="15"/>
	<rect x="286.53" y="380.19" style="fill:#1D1D1F;" width="15" height="15"/>
	<rect x="236.53" y="380.19" style="fill:#1D1D1F;" width="15" height="15"/>
	<rect x="261.53" y="380.19" style="fill:#1D1D1F;" width="15" height="15"/>
	<rect x="432.16" y="172.53" style="fill:#1D1D1F;" width="15" height="15"/>
	<rect x="457.16" y="172.53" style="fill:#1D1D1F;" width="15" height="15"/>
	<rect x="261.14" y="306.86" style="fill:#1D1D1F;" width="15" height="15"/>
	<rect x="236.14" y="306.86" style="fill:#1D1D1F;" width="15" height="15"/>
	<path style="fill:#1D1D1F;" d="M0,75.381v263.29h15v-74.769h23.24v-15H15V125.526h482v128.5h-24.84v15H497v69.645h15V75.381H0z
		 M125.444,90.381h40.222v20.145h-40.222V90.381z M110.444,110.526H70.222V90.381h40.222V110.526z M180.667,90.381h40.222v20.145
		h-40.222V90.381z M235.889,90.381h40.223v20.145h-40.223V90.381z M291.111,90.381h40.222v20.145h-40.222L291.111,90.381
		L291.111,90.381z M346.333,90.381h40.222v20.145h-40.222V90.381z M401.556,90.381h40.222v20.145h-40.222L401.556,90.381
		L401.556,90.381z M15,90.381h40.222v20.145H15V90.381z M456.778,110.526V90.381H497v20.145H456.778z"/>
	<rect x="166.37" y="138.94" style="fill:#1D1D1F;" width="14.882" height="15"/>
	<rect x="191.25" y="138.94" style="fill:#1D1D1F;" width="15" height="15"/>
	<path style="fill:#1D1D1F;" d="M276.132,169.287v15h59.663c-22.769,15.706-47.604,38.991-47.604,65.857v88.528h15v-25.145h15
		v25.145h15v-88.508c0.09-1.866,4.52-11.796,24.547-26.294c5.477-3.963,11.542-7.855,18.072-11.597
		c6.8,3.896,13.087,7.95,18.735,12.082c19.46,14.233,23.788,23.981,23.881,25.79v88.528h15v-25.145h15v25.145h15v-88.528
		c0-48.549-81.101-85.417-84.553-86.962l-3.064-1.372l-3.065,1.372c-0.774,0.346-5.459,2.474-12.251,6.105L276.132,169.287
		L276.132,169.287z M303.191,298.526v-41.185l15,4.605v36.58H303.191z M318.651,246.396l-14.336-4.401
		c2.87-10.67,10.982-21.063,21.077-30.382l10.57,10.57C326.3,230.978,320.288,239.354,318.651,246.396z M348.943,211.718
		c-0.435,0.315-0.862,0.63-1.289,0.945l-10.695-10.695c10.693-8.133,22.118-15,31.351-19.891v17.21
		C361.338,203.284,354.835,207.454,348.943,211.718z M383.31,199.286v-17.208c9.233,4.891,20.657,11.758,31.349,19.89
		l-10.696,10.696c-0.188-0.139-0.372-0.278-0.562-0.417C397.32,207.798,390.573,203.45,383.31,199.286z M433.426,298.526v-36.58
		l15-4.605v41.185L433.426,298.526L433.426,298.526z M447.302,241.996l-14.337,4.401c-1.639-7.035-7.659-15.417-17.314-24.209
		l10.574-10.574C436.32,220.933,444.433,231.326,447.302,241.996z"/>
	<path style="fill:#1D1D1F;" d="M0,436.619h512v-85.447H0V436.619z M497,366.171v55.447H15v-26.426h74.667v-15H15v-14.021H497z"/>
	<path style="fill:#1D1D1F;" d="M48.574,338.671h15v-25.145h15v25.145h15v-88.508c0.09-1.866,4.52-11.796,24.547-26.294
		c5.478-3.964,11.542-7.855,18.072-11.597c6.8,3.896,13.087,7.951,18.735,12.082c19.459,14.234,23.788,23.982,23.881,25.791v88.528
		h15v-25.145h15v25.145h15v-69.645h42.265v-15h-42.265v-3.883c0-48.549-81.1-85.417-84.552-86.962l-3.065-1.372l-3.064,1.372
		c-3.453,1.545-84.553,38.414-84.553,86.962v88.526H48.574z M63.574,298.526v-41.185l15,4.604v36.58L63.574,298.526L63.574,298.526z
		 M109.325,211.718c-0.435,0.315-0.861,0.63-1.288,0.945l-10.695-10.695c10.693-8.133,22.118-15,31.351-19.891v17.21
		C121.721,203.284,115.218,207.453,109.325,211.718z M143.692,199.286v-17.218c9.237,4.886,20.668,11.749,31.365,19.883
		l-10.711,10.711c-0.188-0.139-0.372-0.278-0.563-0.417C157.703,207.799,150.956,203.451,143.692,199.286z M193.809,298.526v-36.58
		l15-4.604v41.185L193.809,298.526L193.809,298.526z M207.688,241.995l-14.34,4.402c-1.639-7.035-7.659-15.417-17.314-24.209
		l10.589-10.589C196.715,220.916,204.823,231.312,207.688,241.995z M85.775,211.614l10.57,10.57
		c-9.662,8.794-15.674,17.17-17.311,24.213l-14.336-4.401C67.567,231.326,75.68,220.933,85.775,211.614z"/>
</g>
<g>
</g>
<g>
</g>
<g>
</g>
<g>
</g>
<g>
</g>
<g>
</g>
<g>
</g>
<g>
</g>
<g>
</g>
<g>
</g>
<g>
</g>
<g>
</g>
<g>
</g>
<g>
</g>
<g>
</g>
</svg>
