<svg xmlns="http://www.w3.org/2000/svg" viewBox="0 0 480 480"><path d="M52 56v324h252c19.848 0 36 15.832 36 35.288 0 16.008-13.28 29.032-29.6 29.032-13.496 0-24.48-10.776-24.48-24.024h8c0 8.832 7.392 16.024 16.48 16.024 11.912 0 21.6-9.44 21.6-21.032C332 400.24 319.44 388 304 388c-19.848 0-36 15.752-36 35.112C268 447.864 288.64 468 314 468h6c24.264 0 44-19.744 44-44V56c0-18.536 9.776-34.792 24.416-44H96c-24.264 0-44 19.744-44 44zm168 288c0 2.208-1.792 4-4 4h-32c-2.208 0-4-1.792-4-4v-32c0-2.208 1.792-4 4-4h32c2.208 0 4 1.792 4 4v32zM116 128c0-5.344 2.08-10.36 5.856-14.144l32-32A19.9 19.9 0 0 1 168 76h88a19.9 19.9 0 0 1 14.144 5.856l32 32C305.92 117.64 308 122.656 308 128v48a19.923 19.923 0 0 1-7.336 15.48L220 257.488V280c0 2.208-1.792 4-4 4h-32c-2.208 0-4-1.792-4-4v-32a19.923 19.923 0 0 1 7.336-15.48L268 166.512V136.28L247.712 116H176.28L156 136.28V176c0 2.208-1.792 4-4 4h-32c-2.208 0-4-1.792-4-4v-48z" fill="#ffe4b6"/><g fill="#00d3e1"><path d="M188 316h24v24h-24zM148 134.624c0-1.064.424-2.08 1.168-2.832l22.632-22.624a3.995 3.995 0 0 1 2.832-1.168h74.744c1.064 0 2.08.424 2.832 1.168l22.632 22.624a3.995 3.995 0 0 1 1.168 2.832v33.792c0 1.2-.536 2.336-1.472 3.096l-82.136 67.2A11.968 11.968 0 0 0 188 248v28h24v-20.416c0-1.2.536-2.336 1.472-3.096l82.136-67.2a11.968 11.968 0 0 0 4.4-9.288v-48c0-3.16-1.28-6.248-3.512-8.488l-32-32A12.136 12.136 0 0 0 256 84h-88c-3.16 0-6.248 1.28-8.488 3.512l-32 32A12.103 12.103 0 0 0 124 128v44h24v-37.376z"/></g><path d="M260 423.112c0-14.48 7.352-27.288 18.56-35.112H52c-22.056 0-40 17.944-40 40s17.944 40 40 40h233.584C270.256 458.656 260 442.056 260 423.112z" fill="#ffe4b6"/><g fill="#120536"><path d="M422 0H96C65.12 0 40 25.128 40 56v321.456C17.104 382.896 0 403.464 0 428c0 28.672 23.328 52 52 52h268c30.88 0 56-25.128 56-56V56c0-22.056 17.944-40 40-40h6c23.16 0 42 18.344 42 40.888C464 74.048 449.648 88 432 88c-13.232 0-24-10.448-24-23.288 0-9.392 7.896-17.032 17.6-17.032 6.88 0 12.48 5.392 12.48 12.024h16c0-15.456-12.776-28.024-28.48-28.024-18.528 0-33.6 14.824-33.6 33.032C392 86.376 409.944 104 432 104c26.472 0 48-21.136 48-47.112C480 25.52 453.984 0 422 0zM52 464c-19.848 0-36-16.152-36-36s16.152-36 36-36h216.048C260.576 400.312 256 411.184 256 423.112c0 16.048 6.84 30.536 17.776 40.888H52zM360 56v368c0 22.056-17.944 40-40 40h-6c-23.16 0-42-18.344-42-40.888 0-17.16 14.352-31.112 32-31.112 13.232 0 24 10.448 24 23.288 0 9.392-7.896 17.032-17.6 17.032-6.88 0-12.48-5.392-12.48-12.024h-16c0 15.456 12.776 28.024 28.48 28.024 18.528 0 33.6-14.824 33.6-33.032C344 393.624 326.056 376 304 376H56V56c0-22.056 17.944-40 40-40h280.888C366.48 26.176 360 40.336 360 56z"/><path d="M120 184h32c4.416 0 8-3.576 8-8v-38.064L177.944 120h68.12L264 137.936v26.688l-79.2 64.8A23.922 23.922 0 0 0 176 248v32c0 4.424 3.584 8 8 8h32c4.416 0 8-3.576 8-8v-20.624l79.2-64.8A23.922 23.922 0 0 0 312 176v-48c0-6.408-2.496-12.44-7.032-16.968l-32-32C268.44 74.496 262.408 72 256 72h-88c-6.408 0-12.44 2.496-16.968 7.032l-32 32C114.496 115.56 112 121.592 112 128v48c0 4.424 3.584 8 8 8zm8-56a8.06 8.06 0 0 1 2.344-5.656l32-32A8.026 8.026 0 0 1 168 88h88c2.104 0 4.168.848 5.656 2.344l32 32A8.06 8.06 0 0 1 296 128v48a7.953 7.953 0 0 1-2.936 6.184l-82.136 67.2a8.052 8.052 0 0 0-2.928 6.2V272h-16v-24a7.953 7.953 0 0 1 2.936-6.184l82.136-67.2a8.052 8.052 0 0 0 2.928-6.2v-33.792c0-2.128-.84-4.16-2.344-5.656l-22.632-22.624a7.965 7.965 0 0 0-5.656-2.344h-74.744c-2.12 0-4.16.84-5.656 2.344l-22.632 22.624a8.005 8.005 0 0 0-2.336 5.656V168h-16v-40zM216 304h-32c-4.416 0-8 3.576-8 8v32c0 4.424 3.584 8 8 8h32c4.416 0 8-3.576 8-8v-32c0-4.424-3.584-8-8-8zm-8 32h-16v-16h16v16z"/></g></svg>