<svg xmlns="http://www.w3.org/2000/svg" viewBox="0 0 512 512"><path fill="#fff" d="M378.449 138.755v153.3h-73.404z"/><path fill="#e4e5e6" d="M409.418 99.513v192.542h92.11z"/><circle cx="102.39" cy="98.732" r="60.604" fill="#ffd21d"/><path d="M444.082 373.557h32.392c13.85 0 25.078-11.227 25.078-25.078s-11.227-25.078-25.078-25.078H35.527c-13.85 0-25.078 11.227-25.078 25.078s11.227 25.078 25.078 25.078h25.126c13.85 0 25.078 11.227 25.078 25.078s-11.227 25.078-25.078 25.078H59.56c-13.85 0-25.078 11.227-25.078 25.078s11.227 25.078 25.078 25.078h392.882c13.85 0 25.078-11.227 25.078-25.078s-11.227-25.078-25.078-25.078h-8.359c-13.85 0-25.078-11.227-25.078-25.078s11.226-25.078 25.077-25.078z" fill="#10b8fa"/><path d="M305.589 67.402c11.618 0 21.071 9.453 21.071 21.071 0 5.77 4.679 10.449 10.449 10.449 5.771 0 10.449-4.679 10.449-10.449 0-11.618 9.453-21.071 21.071-21.071 5.77 0 10.449-4.679 10.449-10.449S374.4 46.504 368.63 46.504c-12.55 0-23.823 5.544-31.52 14.304-7.698-8.76-18.97-14.304-31.52-14.304-5.771 0-10.449 4.678-10.449 10.449s4.677 10.449 10.448 10.449zM224.611 131.492c11.618 0 21.071 9.453 21.071 21.071 0 5.77 4.678 10.449 10.449 10.449 5.77 0 10.449-4.679 10.449-10.449 0-11.618 9.453-21.071 21.071-21.071 5.771 0 10.449-4.679 10.449-10.449s-4.678-10.449-10.449-10.449c-12.55 0-23.823 5.544-31.52 14.304-7.698-8.76-18.97-14.304-31.52-14.304-5.771 0-10.449 4.679-10.449 10.449s4.679 10.449 10.449 10.449zM140.845 210.38c-5.771 0-10.449 4.679-10.449 10.449s4.678 10.449 10.449 10.449c11.618 0 21.071 9.453 21.071 21.071 0 5.771 4.678 10.449 10.449 10.449 5.77 0 10.449-4.678 10.449-10.449 0-11.618 9.453-21.071 21.071-21.071 5.771 0 10.449-4.679 10.449-10.449s-4.678-10.449-10.449-10.449c-12.55 0-23.823 5.544-31.52 14.304-7.697-8.761-18.97-14.304-31.52-14.304zM102.386 169.79c39.178 0 71.053-31.875 71.053-71.053s-31.875-71.053-71.053-71.053-71.053 31.874-71.053 71.053 31.875 71.053 71.053 71.053zm0-121.209c27.656 0 50.155 22.499 50.155 50.155s-22.499 50.155-50.155 50.155-50.155-22.499-50.155-50.155 22.5-50.155 50.155-50.155zM409.418 302.504h92.109a10.447 10.447 0 0 0 9.425-14.958L418.844 95.004a10.443 10.443 0 0 0-11.737-5.681 10.448 10.448 0 0 0-8.137 10.19v192.542c-.001 5.77 4.678 10.449 10.448 10.449zm10.449-156.936l65.078 136.037h-65.078V145.568zM369.025 134.243l-73.404 153.3a10.449 10.449 0 0 0 9.425 14.961h73.404c5.77 0 10.449-4.679 10.449-10.449v-153.3a10.448 10.448 0 0 0-19.874-4.512zM368 281.606h-46.366L368 184.771v96.835zM397.796 363.108h-51.969c-5.77 0-10.449 4.678-10.449 10.449 0 5.77 4.679 10.449 10.449 10.449h51.969c5.77 0 10.449-4.679 10.449-10.449 0-5.771-4.678-10.449-10.449-10.449zM113.16 384.006H310.3c5.77 0 10.449-4.679 10.449-10.449 0-5.771-4.679-10.449-10.449-10.449H113.16c-5.77 0-10.449 4.678-10.449 10.449 0 5.77 4.678 10.449 10.449 10.449zM397.796 413.263h-15.548c-5.77 0-10.449 4.678-10.449 10.449 0 5.77 4.679 10.449 10.449 10.449h15.548c5.77 0 10.449-4.679 10.449-10.449 0-5.771-4.678-10.449-10.449-10.449zM197.544 413.263h-24.429c-5.771 0-10.449 4.678-10.449 10.449 0 5.77 4.678 10.449 10.449 10.449h24.429c5.77 0 10.449-4.679 10.449-10.449 0-5.771-4.679-10.449-10.449-10.449zM137.589 413.263h-23.384c-5.77 0-10.449 4.678-10.449 10.449 0 5.77 4.679 10.449 10.449 10.449h23.384c5.77 0 10.449-4.679 10.449-10.449 0-5.771-4.679-10.449-10.449-10.449zM346.721 413.263h-113.65c-5.77 0-10.449 4.678-10.449 10.449 0 5.77 4.679 10.449 10.449 10.449h113.651c5.77 0 10.449-4.679 10.449-10.449-.001-5.771-4.679-10.449-10.45-10.449z"/><path d="M444.082 384.006h32.392c19.59 0 35.527-15.937 35.527-35.527 0-19.59-15.937-35.527-35.527-35.527H35.527C15.937 312.953 0 328.89 0 348.48c0 19.59 15.937 35.527 35.527 35.527h25.126c8.067 0 14.629 6.562 14.629 14.629s-6.562 14.629-14.629 14.629H59.56c-19.59 0-35.527 15.937-35.527 35.527 0 19.59 15.937 35.527 35.527 35.527h392.882c19.59 0 35.527-15.937 35.527-35.527 0-19.59-15.937-35.527-35.527-35.527h-8.359c-8.067 0-14.629-6.562-14.629-14.629s6.561-14.63 14.628-14.63zm0 50.155h8.359c8.067 0 14.629 6.562 14.629 14.629s-6.562 14.629-14.629 14.629H59.559c-8.067 0-14.629-6.562-14.629-14.629s6.562-14.629 14.629-14.629h1.093c19.59 0 35.527-15.937 35.527-35.527s-15.937-35.527-35.527-35.527H35.527c-8.067 0-14.629-6.562-14.629-14.629s6.562-14.629 14.629-14.629h440.947c8.067 0 14.629 6.562 14.629 14.629s-6.562 14.629-14.629 14.629h-32.392c-19.59 0-35.527 15.937-35.527 35.527s15.937 35.527 35.527 35.527z"/></svg>