<?xml version="1.0" encoding="iso-8859-1"?>
<!-- Generator: Adobe Illustrator 19.0.0, SVG Export Plug-In . SVG Version: 6.00 Build 0)  -->
<svg version="1.1" id="Layer_1" xmlns="http://www.w3.org/2000/svg" xmlns:xlink="http://www.w3.org/1999/xlink" x="0px" y="0px"
	 viewBox="0 0 512 512" style="enable-background:new 0 0 512 512;" xml:space="preserve">
<polygon style="fill:#FFFFFF;" points="378.449,138.755 378.449,292.055 305.045,292.055 "/>
<polygon style="fill:#E4E5E6;" points="409.418,99.513 409.418,292.055 501.528,292.055 "/>
<circle style="fill:#FFD21D;" cx="102.39" cy="98.732" r="60.604"/>
<path style="fill:#10B8FA;" d="M444.082,373.557h32.392c13.85,0,25.078-11.227,25.078-25.078s-11.227-25.078-25.078-25.078H35.527
	c-13.85,0-25.078,11.227-25.078,25.078s11.227,25.078,25.078,25.078h25.126c13.85,0,25.078,11.227,25.078,25.078
	s-11.227,25.078-25.078,25.078h-1.093c-13.85,0-25.078,11.227-25.078,25.078s11.227,25.078,25.078,25.078h392.882
	c13.85,0,25.078-11.227,25.078-25.078s-11.227-25.078-25.078-25.078h-8.359c-13.85,0-25.078-11.227-25.078-25.078
	S430.231,373.557,444.082,373.557z"/>
<path d="M305.589,67.402c11.618,0,21.071,9.453,21.071,21.071c0,5.77,4.679,10.449,10.449,10.449
	c5.771,0,10.449-4.679,10.449-10.449c0-11.618,9.453-21.071,21.071-21.071c5.77,0,10.449-4.679,10.449-10.449
	S374.4,46.504,368.63,46.504c-12.55,0-23.823,5.544-31.52,14.304c-7.698-8.76-18.97-14.304-31.52-14.304
	c-5.771,0-10.449,4.678-10.449,10.449S299.818,67.402,305.589,67.402z"/>
<path d="M224.611,131.492c11.618,0,21.071,9.453,21.071,21.071c0,5.77,4.678,10.449,10.449,10.449
	c5.77,0,10.449-4.679,10.449-10.449c0-11.618,9.453-21.071,21.071-21.071c5.771,0,10.449-4.679,10.449-10.449
	s-4.678-10.449-10.449-10.449c-12.55,0-23.823,5.544-31.52,14.304c-7.698-8.76-18.97-14.304-31.52-14.304
	c-5.771,0-10.449,4.679-10.449,10.449C214.162,126.813,218.841,131.492,224.611,131.492z"/>
<path d="M140.845,210.38c-5.771,0-10.449,4.679-10.449,10.449c0,5.77,4.678,10.449,10.449,10.449
	c11.618,0,21.071,9.453,21.071,21.071c0,5.771,4.678,10.449,10.449,10.449c5.77,0,10.449-4.678,10.449-10.449
	c0-11.618,9.453-21.071,21.071-21.071c5.771,0,10.449-4.679,10.449-10.449c0-5.77-4.678-10.449-10.449-10.449
	c-12.55,0-23.823,5.544-31.52,14.304C164.668,215.923,153.395,210.38,140.845,210.38z"/>
<path d="M102.386,169.79c39.178,0,71.053-31.875,71.053-71.053s-31.875-71.053-71.053-71.053S31.333,59.558,31.333,98.737
	S63.208,169.79,102.386,169.79z M102.386,48.581c27.656,0,50.155,22.499,50.155,50.155s-22.499,50.155-50.155,50.155
	s-50.155-22.499-50.155-50.155S74.731,48.581,102.386,48.581z"/>
<path d="M409.418,302.504h92.109c3.589,0,6.927-1.842,8.84-4.879c1.914-3.035,2.135-6.842,0.585-10.079L418.844,95.004
	c-2.105-4.403-6.976-6.763-11.737-5.681c-4.759,1.079-8.137,5.309-8.137,10.19v192.542
	C398.969,297.825,403.648,302.504,409.418,302.504z M419.867,145.568l65.078,136.037h-65.078V145.568z"/>
<path d="M369.025,134.243l-73.404,153.3c-1.55,3.238-1.329,7.044,0.584,10.081c1.913,3.036,5.251,4.88,8.841,4.88h73.404
	c5.77,0,10.449-4.679,10.449-10.449v-153.3c0-4.88-3.376-9.109-8.136-10.19C376.01,127.484,371.132,129.842,369.025,134.243z
	 M368,281.606h-46.366L368,184.771V281.606z"/>
<path d="M397.796,363.108h-51.969c-5.77,0-10.449,4.678-10.449,10.449c0,5.77,4.679,10.449,10.449,10.449h51.969
	c5.77,0,10.449-4.679,10.449-10.449C408.245,367.786,403.567,363.108,397.796,363.108z"/>
<path d="M113.16,384.006H310.3c5.77,0,10.449-4.679,10.449-10.449c0-5.771-4.679-10.449-10.449-10.449H113.16
	c-5.77,0-10.449,4.678-10.449,10.449C102.711,379.327,107.389,384.006,113.16,384.006z"/>
<path d="M397.796,413.263h-15.548c-5.77,0-10.449,4.678-10.449,10.449c0,5.77,4.679,10.449,10.449,10.449h15.548
	c5.77,0,10.449-4.679,10.449-10.449C408.245,417.941,403.567,413.263,397.796,413.263z"/>
<path d="M197.544,413.263h-24.429c-5.771,0-10.449,4.678-10.449,10.449c0,5.77,4.678,10.449,10.449,10.449h24.429
	c5.77,0,10.449-4.679,10.449-10.449C207.993,417.941,203.314,413.263,197.544,413.263z"/>
<path d="M137.589,413.263h-23.384c-5.77,0-10.449,4.678-10.449,10.449c0,5.77,4.679,10.449,10.449,10.449h23.384
	c5.77,0,10.449-4.679,10.449-10.449C148.038,417.941,143.359,413.263,137.589,413.263z"/>
<path d="M346.721,413.263h-113.65c-5.77,0-10.449,4.678-10.449,10.449c0,5.77,4.679,10.449,10.449,10.449h113.651
	c5.77,0,10.449-4.679,10.449-10.449C357.17,417.941,352.492,413.263,346.721,413.263z"/>
<path d="M444.082,384.006h32.392c19.59,0,35.527-15.937,35.527-35.527c0-19.59-15.937-35.527-35.527-35.527H35.527
	C15.937,312.953,0,328.89,0,348.48c0,19.59,15.937,35.527,35.527,35.527h25.126c8.067,0,14.629,6.562,14.629,14.629
	s-6.562,14.629-14.629,14.629h-1.093c-19.59,0-35.527,15.937-35.527,35.527c0,19.59,15.937,35.527,35.527,35.527h392.882
	c19.59,0,35.527-15.937,35.527-35.527c0-19.59-15.937-35.527-35.527-35.527h-8.359c-8.067,0-14.629-6.562-14.629-14.629
	S436.015,384.006,444.082,384.006z M444.082,434.161h8.359c8.067,0,14.629,6.562,14.629,14.629c0,8.067-6.562,14.629-14.629,14.629
	H59.559c-8.067,0-14.629-6.562-14.629-14.629c0-8.067,6.562-14.629,14.629-14.629h1.093c19.59,0,35.527-15.937,35.527-35.527
	s-15.937-35.527-35.527-35.527H35.527c-8.067,0-14.629-6.562-14.629-14.629s6.562-14.629,14.629-14.629h440.947
	c8.067,0,14.629,6.562,14.629,14.629s-6.562,14.629-14.629,14.629h-32.392c-19.59,0-35.527,15.937-35.527,35.527
	S424.492,434.161,444.082,434.161z"/>
<g>
</g>
<g>
</g>
<g>
</g>
<g>
</g>
<g>
</g>
<g>
</g>
<g>
</g>
<g>
</g>
<g>
</g>
<g>
</g>
<g>
</g>
<g>
</g>
<g>
</g>
<g>
</g>
<g>
</g>
</svg>
