<svg xmlns="http://www.w3.org/2000/svg" viewBox="0 0 512 512"><path fill="#e0e0e2" d="M37 203.058h438.005v229.527H37z"/><path d="M127.571 434.16H64.999v-96.323h62.571v96.323zm125.143-96.322h-62.571v96.323h62.571v-96.323zm125.143 0h-62.571v96.323h62.571v-96.323zm97.143 0h-34.572v96.323H475v-96.323z" fill="#d8d7da"/><g fill="#ff5023"><path d="M412.429 337.833H475v94.755h-31.005v-54.089h-31.566zM162.138 337.837h62.569v40.667h-62.569z"/></g><path d="M127.571 299.38H64.999v-96.323h62.571v96.323zm125.143-96.323h-62.571v96.323h62.571v-96.323zm125.143 0h-62.571v96.323h62.571v-96.323zm97.143 0h-34.572v96.323H475v-96.323z" fill="#d8d7da"/><path fill="#fff" d="M7.5 136.649h497.004v66.409H7.5z"/><path fill="#fff" d="M7.5 136.649h497.004v66.409H7.5z"/><path d="M113.258 203.057H42.259v-66.413h71l-.001 66.413zm142-66.413h-71v66.413h71v-66.413zm142 0h-71v66.413h71v-66.413zm107.242 0h-36.242v66.413H504.5v-66.413z" fill="#d8d7da"/><g fill="#ff7956"><path d="M7.5 136.649h70.999v66.409H7.5zM149.498 136.649h70.999v66.409h-70.999zM291.497 136.649h70.999v66.409h-70.999zM433.495 136.649h70.999v66.409h-70.999z"/></g><g fill="#ff3f62"><path d="M7.5 136.649h34.759v66.409H7.5zM149.498 136.649h34.759v66.409h-34.759zM433.495 136.649h34.759v66.409h-34.759zM291.497 136.649h34.759v66.409h-34.759z"/></g><g fill="#ff5023"><path d="M37 203.058h62.569v96.319H37zM162.138 203.058h62.569v96.319h-62.569zM287.287 203.058h62.569v96.319h-62.569zM412.425 203.058h62.569v96.319h-62.569z"/></g><g fill="#c70024"><path d="M37 203.058h28v96.319H37zM162.138 203.058h28v96.319h-28zM287.287 203.058h28v96.319h-28zM412.425 203.058h28v96.319h-28z"/></g><path fill="#ff5023" d="M99.571 337.833H37v94.755h31.005v-54.089h31.566z"/><g fill="#c70024"><path d="M37 337.837h28v96.319H37zM162.138 337.837h28v96.319h-28zM287.287 337.837h28v96.319h-28zM412.425 337.837h28v96.319h-28z"/></g><path fill="#ffb655" d="M68.009 378.496h375.986v54.089H68.009z"/><path fill="#ff7956" d="M68.009 378.496h88.995v54.089H68.009z"/><path fill="#ffb655" d="M37 432.585h438.005v71.909H37z"/><path fill="#ff7956" d="M37 432.585h83.179v71.909H37z"/><g fill="#ffb655"><path d="M16.555 203.058H37v301.436H16.555zM475.004 203.058h20.445v301.436h-20.445z"/><path d="M37 299.377h438.005v38.453H37z"/></g><path fill="#ff7956" d="M37 299.377h68.999v38.453H37z"/><g fill="#b6e892"><circle cx="392.095" cy="358.166" r="20.333"/><circle cx="350.996" cy="358.166" r="20.333"/><circle cx="309.896" cy="358.166" r="20.333"/></g><g fill="#95d6a6"><path d="M389.512 358.166c0-8.043 4.682-14.975 11.458-18.273a20.21 20.21 0 0 0-8.875-2.06c-11.23 0-20.333 9.104-20.333 20.333 0 11.23 9.104 20.333 20.333 20.333 3.187 0 6.19-.754 8.875-2.06-6.776-3.299-11.458-10.23-11.458-18.273zM348.416 358.166c0-8.043 4.682-14.975 11.458-18.273a20.21 20.21 0 0 0-8.875-2.06c-11.23 0-20.333 9.104-20.333 20.333 0 11.23 9.104 20.333 20.333 20.333 3.187 0 6.19-.754 8.875-2.06-6.776-3.299-11.458-10.23-11.458-18.273zM307.318 358.166c0-8.043 4.682-14.975 11.458-18.273a20.21 20.21 0 0 0-8.875-2.06c-11.23 0-20.333 9.104-20.333 20.333 0 11.23 9.104 20.333 20.333 20.333 3.187 0 6.19-.754 8.875-2.06-6.776-3.299-11.458-10.23-11.458-18.273z"/></g><g fill="#57a4ff"><path d="M92.009 400.666h43v31.923h-43z"/><path d="M135.008 400.666h42.999v31.923h-42.999zM178.008 400.666h42.999v31.923h-42.999z"/></g><g fill="#006df0"><path d="M92.009 400.666h19.638v31.923H92.009zM135.008 400.666h19.638v31.923h-19.638zM178.008 400.666h19.638v31.923h-19.638z"/></g><path fill="#fff" d="M193.502 7.503v84.098h44.6l17.901 17.901 17.901-17.901h44.6V7.503z"/><g fill="#d8d7da"><path d="M193.498 7.503h21.17v84.099h-21.17z"/><circle cx="274.917" cy="51.34" r="21.17"/></g><circle cx="256.007" cy="51.34" r="21.17" fill="#ffe477"/><g fill="#fff"><path d="M309.896 453.665h93.089v15h-93.089zM437.985 453.665h15v15h-15zM412.985 453.665h15v15h-15z"/></g><g fill="#1d1d1f"><path d="M66.609 310.327h15v15h-15zM91.609 310.327h15v15h-15zM116.609 310.327h15v15h-15zM378.036 174.668h15v15h-15zM403.035 174.668h14.935v15h-14.935zM120.179 149.529h14.935v15h-14.935zM95.179 149.529h15v15h-15zM290.757 404.336h15v15h-15zM265.757 404.336h15v15h-15zM240.757 404.336h15v15h-15zM166.548 472.585h15v15h-15zM191.548 472.585h15v15h-15zM216.547 472.585h15v15h-15zM84.505 393.166v25.423h15v-10.423h28v10.423h14.999v-10.423h28v10.423h15v-10.423h28v10.423h14.999v-25.423zM256.003 120.108l21.008-21.007h48.993V.002H186.002v99.099h48.994l21.007 21.007zM201.002 15.003h110.003v69.099h-40.207l-14.795 14.794-14.794-14.794h-40.208l.001-69.099z"/><path d="M284.67 51.336c0-15.807-12.86-28.666-28.667-28.666s-28.666 12.859-28.666 28.666 12.859 28.667 28.666 28.667 28.667-12.86 28.667-28.667zm-42.333 0c0-7.535 6.131-13.666 13.666-13.666 7.536 0 13.667 6.131 13.667 13.666 0 7.536-6.131 13.667-13.667 13.667-7.535 0-13.666-6.131-13.666-13.667z"/><path d="M248.507 42.963h15V59.71h-15zM482.5 210.557H512v-81.413H0v81.413h29.5v286.441h-5.445V223.057h-15v288.941h493.89V223.057h-15v273.941H482.5V210.557zm14.5-66.413v51.413h-56v-51.413h56zm-71 0v51.413h-56v-51.413h56zm-71 0v51.413h-56v-51.413h56zm-71 0v51.413h-56v-51.413h56zm-70.999 0v51.413h-56v-51.413h56zm-71.001 0v51.413H86v-51.413h56zM15 195.557v-51.413h56v51.413H15zm29.499 15H92.07v68.823h15v-68.823h47.571v68.823h15v-68.823h47.571v68.823h15v-68.823h47.571v68.823h15v-68.823h47.571v68.823h15v-68.823h47.571v68.823h15v-68.823h47.571v81.323H44.499v-81.323zm0 134.775h230.592v-15H44.499V306.88H467.5v23.453h-40.595v15H467.5v79.756h-16.006V371H416.78a27.652 27.652 0 0 0 3.147-12.833c0-15.348-12.486-27.834-27.833-27.834-8.13 0-15.456 3.505-20.549 9.082-5.093-5.577-12.419-9.082-20.549-9.082s-15.456 3.505-20.549 9.082c-5.093-5.577-12.419-9.082-20.549-9.082-15.347 0-27.833 12.486-27.833 27.834 0 4.627 1.141 8.99 3.147 12.833H232.21v-13.167h-15V371h-47.571v-13.167h-15V371H107.07v-13.167h-15V371H60.505v54.089H44.499v-79.757zm252.57 12.834c0-7.077 5.757-12.834 12.833-12.834 7.076 0 12.833 5.757 12.833 12.834 0 7.076-5.757 12.833-12.833 12.833-7.077 0-12.833-5.757-12.833-12.833zm41.097 0c0-7.077 5.757-12.834 12.833-12.834 7.076 0 12.833 5.757 12.833 12.834 0 7.076-5.757 12.833-12.833 12.833-7.076 0-12.833-5.757-12.833-12.833zm41.098 0c0-7.077 5.757-12.834 12.833-12.834s12.833 5.757 12.833 12.834c0 7.076-5.757 12.833-12.833 12.833s-12.833-5.757-12.833-12.833zm57.231 27.833v12.045H335.669v15h100.826v12.045H75.505v-39.09h360.99zm31.006 110.999H44.499v-28.333H149.5v-15H44.499v-13.577H467.5v56.91z"/></g></svg>