<?xml version="1.0" encoding="iso-8859-1"?>
<!-- Generator: Adobe Illustrator 19.0.0, SVG Export Plug-In . SVG Version: 6.00 Build 0)  -->
<svg version="1.1" id="Capa_1" xmlns="http://www.w3.org/2000/svg" xmlns:xlink="http://www.w3.org/1999/xlink" x="0px" y="0px"
	 viewBox="0 0 512 512" style="enable-background:new 0 0 512 512;" xml:space="preserve">
<rect x="37" y="203.058" style="fill:#E0E0E2;" width="438.005" height="229.527"/>
<path style="fill:#D8D7DA;" d="M127.571,434.16H64.999v-96.323h62.571V434.16z M252.714,337.838h-62.571v96.323h62.571
	L252.714,337.838L252.714,337.838z M377.857,337.838h-62.571v96.323h62.571V337.838z M475,337.838h-34.572v96.323H475V337.838z"/>
<g>
	<polygon style="fill:#FF5023;" points="412.429,337.833 475,337.833 475,378.499 475,432.588 443.995,432.588 443.995,378.499 
		412.429,378.499 	"/>
	<rect x="162.138" y="337.837" style="fill:#FF5023;" width="62.569" height="40.667"/>
</g>
<path style="fill:#D8D7DA;" d="M127.571,299.38H64.999v-96.323h62.571V299.38z M252.714,203.057h-62.571v96.323h62.571
	L252.714,203.057L252.714,203.057z M377.857,203.057h-62.571v96.323h62.571V203.057z M475,203.057h-34.572v96.323H475V203.057z"/>
<rect id="SVGCleanerId_0" x="7.5" y="136.649" style="fill:#FFFFFF;" width="497.004" height="66.409"/>
<g>
	<rect id="SVGCleanerId_0_1_" x="7.5" y="136.649" style="fill:#FFFFFF;" width="497.004" height="66.409"/>
</g>
<path style="fill:#D8D7DA;" d="M113.258,203.057H42.259v-66.413h71L113.258,203.057L113.258,203.057z M255.258,136.644h-71v66.413
	h71L255.258,136.644L255.258,136.644z M397.258,136.644h-71v66.413h71V136.644z M504.5,136.644h-36.242v66.413H504.5V136.644z"/>
<g>
	<rect x="7.5" y="136.649" style="fill:#FF7956;" width="70.999" height="66.409"/>
	<rect x="149.498" y="136.649" style="fill:#FF7956;" width="70.999" height="66.409"/>
	<rect x="291.497" y="136.649" style="fill:#FF7956;" width="70.999" height="66.409"/>
	<rect x="433.495" y="136.649" style="fill:#FF7956;" width="70.999" height="66.409"/>
</g>
<g>
	<rect x="7.5" y="136.649" style="fill:#FF3F62;" width="34.759" height="66.409"/>
	<rect x="149.498" y="136.649" style="fill:#FF3F62;" width="34.759" height="66.409"/>
	<rect x="433.495" y="136.649" style="fill:#FF3F62;" width="34.759" height="66.409"/>
	<rect x="291.497" y="136.649" style="fill:#FF3F62;" width="34.759" height="66.409"/>
</g>
<g>
	<rect x="37" y="203.058" style="fill:#FF5023;" width="62.569" height="96.319"/>
	<rect x="162.138" y="203.058" style="fill:#FF5023;" width="62.569" height="96.319"/>
	<rect x="287.287" y="203.058" style="fill:#FF5023;" width="62.569" height="96.319"/>
	<rect x="412.425" y="203.058" style="fill:#FF5023;" width="62.569" height="96.319"/>
</g>
<g>
	<rect x="37" y="203.058" style="fill:#C70024;" width="28" height="96.319"/>
	<rect x="162.138" y="203.058" style="fill:#C70024;" width="28" height="96.319"/>
	<rect x="287.287" y="203.058" style="fill:#C70024;" width="28" height="96.319"/>
	<rect x="412.425" y="203.058" style="fill:#C70024;" width="28" height="96.319"/>
</g>
<polygon style="fill:#FF5023;" points="99.571,337.833 37,337.833 37,378.499 37,432.588 68.005,432.588 68.005,378.499 
	99.571,378.499 "/>
<g>
	<rect x="37" y="337.837" style="fill:#C70024;" width="28" height="96.319"/>
	<rect x="162.138" y="337.837" style="fill:#C70024;" width="28" height="96.319"/>
	<rect x="287.287" y="337.837" style="fill:#C70024;" width="28" height="96.319"/>
	<rect x="412.425" y="337.837" style="fill:#C70024;" width="28" height="96.319"/>
</g>
<rect x="68.009" y="378.496" style="fill:#FFB655;" width="375.986" height="54.089"/>
<rect x="68.009" y="378.496" style="fill:#FF7956;" width="88.995" height="54.089"/>
<rect x="37" y="432.585" style="fill:#FFB655;" width="438.005" height="71.909"/>
<rect x="37" y="432.585" style="fill:#FF7956;" width="83.179" height="71.909"/>
<g>
	<rect x="16.555" y="203.058" style="fill:#FFB655;" width="20.445" height="301.436"/>
	<rect x="475.004" y="203.058" style="fill:#FFB655;" width="20.445" height="301.436"/>
	<rect x="37" y="299.377" style="fill:#FFB655;" width="438.005" height="38.453"/>
</g>
<rect x="37" y="299.377" style="fill:#FF7956;" width="68.999" height="38.453"/>
<g>
	<circle style="fill:#B6E892;" cx="392.095" cy="358.166" r="20.333"/>
	<circle style="fill:#B6E892;" cx="350.996" cy="358.166" r="20.333"/>
	<circle style="fill:#B6E892;" cx="309.896" cy="358.166" r="20.333"/>
</g>
<g>
	<path style="fill:#95D6A6;" d="M389.512,358.166c0-8.043,4.682-14.975,11.458-18.273c-2.685-1.307-5.688-2.06-8.875-2.06
		c-11.23,0-20.333,9.104-20.333,20.333c0,11.23,9.104,20.333,20.333,20.333c3.187,0,6.19-0.754,8.875-2.06
		C394.194,373.14,389.512,366.209,389.512,358.166z"/>
	<path style="fill:#95D6A6;" d="M348.416,358.166c0-8.043,4.682-14.975,11.458-18.273c-2.685-1.307-5.688-2.06-8.875-2.06
		c-11.23,0-20.333,9.104-20.333,20.333c0,11.23,9.104,20.333,20.333,20.333c3.187,0,6.19-0.754,8.875-2.06
		C353.098,373.14,348.416,366.209,348.416,358.166z"/>
	<path style="fill:#95D6A6;" d="M307.318,358.166c0-8.043,4.682-14.975,11.458-18.273c-2.685-1.307-5.688-2.06-8.875-2.06
		c-11.23,0-20.333,9.104-20.333,20.333c0,11.23,9.104,20.333,20.333,20.333c3.187,0,6.19-0.754,8.875-2.06
		C312,373.14,307.318,366.209,307.318,358.166z"/>
</g>
<g>
	<rect x="92.009" y="400.666" style="fill:#57A4FF;" width="43" height="31.923"/>
	<rect x="135.008" y="400.666" style="fill:#57A4FF;" width="42.999" height="31.923"/>
	<rect x="178.008" y="400.666" style="fill:#57A4FF;" width="42.999" height="31.923"/>
</g>
<g>
	<rect x="92.009" y="400.666" style="fill:#006DF0;" width="19.638" height="31.923"/>
	<rect x="135.008" y="400.666" style="fill:#006DF0;" width="19.638" height="31.923"/>
	<rect x="178.008" y="400.666" style="fill:#006DF0;" width="19.638" height="31.923"/>
</g>
<polygon style="fill:#FFFFFF;" points="193.502,7.503 193.502,91.601 238.102,91.601 256.003,109.502 273.904,91.601 
	318.504,91.601 318.504,7.503 "/>
<g>
	<rect x="193.498" y="7.503" style="fill:#D8D7DA;" width="21.17" height="84.099"/>
	<circle style="fill:#D8D7DA;" cx="274.917" cy="51.34" r="21.17"/>
</g>
<circle style="fill:#FFE477;" cx="256.007" cy="51.34" r="21.17"/>
<g>
	<rect x="309.896" y="453.665" style="fill:#FFFFFF;" width="93.089" height="15"/>
	<rect x="437.985" y="453.665" style="fill:#FFFFFF;" width="15" height="15"/>
	<rect x="412.985" y="453.665" style="fill:#FFFFFF;" width="15" height="15"/>
</g>
<g>
	<rect x="66.609" y="310.327" style="fill:#1D1D1F;" width="15" height="15"/>
	<rect x="91.609" y="310.327" style="fill:#1D1D1F;" width="15" height="15"/>
	<rect x="116.609" y="310.327" style="fill:#1D1D1F;" width="15" height="15"/>
	<rect x="378.036" y="174.668" style="fill:#1D1D1F;" width="15" height="15"/>
	<rect x="403.035" y="174.668" style="fill:#1D1D1F;" width="14.935" height="15"/>
	<rect x="120.179" y="149.529" style="fill:#1D1D1F;" width="14.935" height="15"/>
	<rect x="95.179" y="149.529" style="fill:#1D1D1F;" width="15" height="15"/>
	<rect x="290.757" y="404.336" style="fill:#1D1D1F;" width="15" height="15"/>
	<rect x="265.757" y="404.336" style="fill:#1D1D1F;" width="15" height="15"/>
	<rect x="240.757" y="404.336" style="fill:#1D1D1F;" width="15" height="15"/>
	<rect x="166.548" y="472.585" style="fill:#1D1D1F;" width="15" height="15"/>
	<rect x="191.548" y="472.585" style="fill:#1D1D1F;" width="15" height="15"/>
	<rect x="216.547" y="472.585" style="fill:#1D1D1F;" width="15" height="15"/>
	<polygon style="fill:#1D1D1F;" points="84.505,393.166 84.505,418.589 99.505,418.589 99.505,408.166 127.505,408.166 
		127.505,418.589 142.504,418.589 142.504,408.166 170.504,408.166 170.504,418.589 185.504,418.589 185.504,408.166 
		213.504,408.166 213.504,418.589 228.503,418.589 228.503,393.166 	"/>
	<path style="fill:#1D1D1F;" d="M256.003,120.108l21.008-21.007h48.993V0.002H186.002v99.099h48.994L256.003,120.108z
		 M201.002,15.003h110.003v69.099h-40.207l-14.795,14.794l-14.794-14.794h-40.208L201.002,15.003L201.002,15.003z"/>
	<path style="fill:#1D1D1F;" d="M284.67,51.336c0-15.807-12.86-28.666-28.667-28.666s-28.666,12.859-28.666,28.666
		s12.859,28.667,28.666,28.667S284.67,67.143,284.67,51.336z M242.337,51.336c0-7.535,6.131-13.666,13.666-13.666
		c7.536,0,13.667,6.131,13.667,13.666c0,7.536-6.131,13.667-13.667,13.667C248.468,65.003,242.337,58.872,242.337,51.336z"/>
	<rect x="248.507" y="42.963" style="fill:#1D1D1F;" width="15" height="16.747"/>
	<path style="fill:#1D1D1F;" d="M482.5,210.557H512v-81.413H0v81.413h29.5v286.441h-5.445V223.057h-15v288.941h493.89V223.057h-15
		v273.941H482.5L482.5,210.557L482.5,210.557z M497,144.144v51.413h-56v-51.413H497z M426,144.144v51.413h-56v-51.413H426z
		 M355,144.144v51.413h-56v-51.413H355z M284,144.144v51.413H228v-51.413H284z M213.001,144.144v51.413h-56v-51.413H213.001z
		 M142,144.144v51.413H86v-51.413H142z M15,195.557v-51.413h56v51.413H15z M44.499,210.557h47.571v68.823h15v-68.823h47.571v68.823
		h15v-68.823h47.571v68.823h15v-68.823h47.571v68.823h15v-68.823h47.571v68.823h15v-68.823h47.571v68.823h15v-68.823h47.571v81.323
		H44.499V210.557z M44.499,345.332h230.592v-15H44.499V306.88h423.001v23.453h-40.595v15h40.595v79.756h-16.006v-54.089h-34.714
		c2.006-3.843,3.147-8.206,3.147-12.833c0-15.348-12.486-27.834-27.833-27.834c-8.13,0-15.456,3.505-20.549,9.082
		c-5.093-5.577-12.419-9.082-20.549-9.082s-15.456,3.505-20.549,9.082c-5.093-5.577-12.419-9.082-20.549-9.082
		c-15.347,0-27.833,12.486-27.833,27.834c0,4.627,1.141,8.99,3.147,12.833h-53.002v-13.167h-15v13.167h-47.571v-13.167h-15v13.167
		H107.07v-13.167h-15v13.167H60.505v54.089H44.499V345.332z M297.069,358.166c0-7.077,5.757-12.834,12.833-12.834
		c7.076,0,12.833,5.757,12.833,12.834c0,7.076-5.757,12.833-12.833,12.833C302.825,370.999,297.069,365.242,297.069,358.166z
		 M338.166,358.166c0-7.077,5.757-12.834,12.833-12.834c7.076,0,12.833,5.757,12.833,12.834c0,7.076-5.757,12.833-12.833,12.833
		C343.923,370.999,338.166,365.242,338.166,358.166z M379.264,358.166c0-7.077,5.757-12.834,12.833-12.834
		s12.833,5.757,12.833,12.834c0,7.076-5.757,12.833-12.833,12.833S379.264,365.242,379.264,358.166z M436.495,385.999v12.045
		H335.669v15h100.826v12.045H75.505v-39.09L436.495,385.999L436.495,385.999z M467.501,496.998H44.499v-28.333H149.5v-15H44.499
		v-13.577h423.001V496.998z"/>
</g>
<g>
</g>
<g>
</g>
<g>
</g>
<g>
</g>
<g>
</g>
<g>
</g>
<g>
</g>
<g>
</g>
<g>
</g>
<g>
</g>
<g>
</g>
<g>
</g>
<g>
</g>
<g>
</g>
<g>
</g>
</svg>
