<svg xmlns="http://www.w3.org/2000/svg" viewBox="0 0 512 512"><path d="M267.75 447.813c0 31.308 25.38 56.687 56.687 56.687h.063H74.187c-31.308 0-56.687-25.38-56.687-56.687v-95.214h250.25v95.214z" fill="#ff9478"/><path d="M72.601 447.813v-95.214H17.5v95.214c0 31.308 25.38 56.688 56.688 56.688h55.101c-31.309-.001-56.688-25.381-56.688-56.688z" fill="#ff7956"/><path d="M494.5 159.401H381.125V64.187c0-31.308 25.38-56.687 56.687-56.687 31.308 0 56.687 25.38 56.687 56.687l.001 95.214z" fill="#ff9478"/><path d="M457.677 11.087A56.551 56.551 0 0 0 437.813 7.5c-31.308 0-56.688 25.38-56.688 56.688v95.214h39.729V64.188c0-24.318 15.315-45.051 36.823-53.101z" fill="#ff7956"/><path d="M194.275 142.431c68.893 68.893 81.258 168.228 81.258 168.228s-99.334-12.364-168.228-81.258S26.047 61.174 26.047 61.174s99.334 12.364 168.228 81.257z" fill="#fff"/><path d="M152.748 229.401C97.819 174.472 78.825 100.194 73.382 72.338c-27.774-8.725-47.335-11.165-47.335-11.165s12.364 99.334 81.258 168.227c68.893 68.894 168.228 81.258 168.228 81.258s-.508-4.083-1.892-11.165c-34.826-10.939-82.567-31.765-120.893-70.092z" fill="#d8d7da"/><path d="M187.563 7.5c-31.308 0-56.688 25.38-56.688 56.688v32.054c21.602 11.479 43.74 26.53 63.4 46.19 68.893 68.894 81.258 168.228 81.258 168.228s-78.76-9.804-144.657-60.591V352.6H267.75v95.214c0 31.308 25.38 56.688 56.688 56.688s56.688-25.38 56.688-56.688V64.188c0-31.308 25.38-56.688 56.688-56.688H187.563z" fill="#ffdaaa"/><g fill="#ff9478"><path d="M313.544 447.813v-95.214H267.75v95.214c0 31.308 25.38 56.688 56.688 56.688a56.455 56.455 0 0 0 22.897-4.831c-19.899-8.8-33.791-28.701-33.791-51.857zM273.618 299.379c27.975 8.823 47.709 11.28 47.709 11.28s-12.365-99.334-81.258-168.228c-19.66-19.66-41.798-34.71-63.4-46.19V64.188c0-31.308 25.38-56.688 56.688-56.688h-45.794c-31.308 0-56.688 25.38-56.688 56.688v32.054c21.602 11.479 43.74 26.53 63.4 46.19 54.854 54.853 73.87 129.003 79.343 156.947zM130.875 250.068v102.531h45.794v-73.921c-15.213-7.67-30.834-17.081-45.794-28.61z"/></g><g fill="#fff"><path d="M120.67 377h15v15h-15zM145.67 377h15v15h-15zM170.67 377h79.45v15h-79.45zM236.27 27.493h15v15h-15zM286.27 27.493H358v15h-71.73zM261.27 27.493h15v15h-15z"/></g><g fill="#1d1d1f"><path d="M224.71 138.49h15v15h-15zM274.71 138.49h55.43v15h-55.43zM249.71 138.49h15v15h-15zM259.07 187.11h71.07v15h-71.07zM291 235.73h39.14v15H291zM292.04 284.35h38.1v15h-38.1zM422.74 126.5h15v15h-15zM447.74 126.5h15v15h-15zM397.74 126.5h15v15h-15z"/><path d="M437.813 0h-250.25c-35.394 0-64.188 28.794-64.188 64.188v12.054h15v-4.554H171v-15h-32.054C142.569 33.112 162.99 15 187.563 15h209.055c-14.048 11.784-22.992 29.46-22.992 49.188v173.979H345v15h28.625v151.667h-57.958v15h57.958V445.5H345v15h26.957c-5.61 20.991-24.784 36.5-47.52 36.5-27.122 0-49.188-22.065-49.188-49.188V345.099H10v102.713C10 483.206 38.794 512 74.188 512H324.5v-.002c35.365-.034 64.125-28.814 64.125-64.186V64.188C388.625 37.065 410.69 15 437.813 15c24.573 0 44.994 18.112 48.616 41.688h-60.193v15H487V81.5h-21.5v15H487v55.401h-85.875v15H502V64.188C502 28.794 473.206 0 437.813 0zM74.188 497C47.065 497 25 474.935 25 447.813V360.1h23.833V397h15v-36.901h18v18.567h15v-18.567H260.25v80.213h-70.436v15h70.877c1.95 16.675 10.311 31.419 22.562 41.688H74.188z"/><path d="M33.762 121.93c10.936 31.252 31.651 76.187 68.239 112.775 36.589 36.588 81.523 57.304 112.775 68.24 27.988 9.793 49.902 13.667 57.22 14.786l35.417 35.417 10.607-10.606-35.417-35.418c-1.119-7.319-4.993-29.233-14.786-57.219-10.936-31.252-31.651-76.187-68.239-112.775-36.589-36.589-81.523-57.305-112.775-68.24C52.99 57.057 28.02 53.861 26.974 53.731l-9.56-1.19 1.19 9.559c.13 1.046 3.327 26.017 15.158 59.83zm46.595-39.334v25.774h15V88.161c22.164 8.811 46.885 21.329 69.955 38.936v54.915h15v-42.48a227.081 227.081 0 0 1 8.658 8.203c12.753 12.752 23.52 26.639 32.601 40.754v45.982h15v-19.697c14.187 28.09 22.343 54.861 26.786 73.104L99.525 124.044 88.918 134.65l163.857 163.858c-30.851-7.494-86.131-25.617-130.976-65.73h34.177v-15h-49.435c-10.087-10.905-18.836-22.491-26.41-34.242h19.275v-15h-28.29C48.47 128.12 38.754 88.394 35.22 70.339c9.79 1.909 25.95 5.635 45.137 12.257zM123.37 270.07h15v62.53h-15z"/></g></svg>