<svg xmlns="http://www.w3.org/2000/svg" viewBox="0 0 512 512"><path fill="#ffdaaa" d="M214.37 282.687h24.778v36.53h33.704v-36.53h24.778v36.53h20.173V207.531H194.197v111.686h20.173z"/><path fill="#ff9478" d="M194.2 207.53h30.591v111.69H194.2z"/><path fill="#ffdaaa" d="M171.95 360.91h168.1v101.78h-168.1z"/><path fill="#ff9478" d="M315.836 462.692h-77.424v-56.118l17.702-17.703h42.019l17.703 17.703z"/><path fill="#ffb655" d="M294.712 462.692h-77.424v-56.118l17.703-17.703h42.018l17.703 17.703z"/><path fill="#ff7956" d="M261.057 388.871h-26.066l-17.703 17.703v56.118h26.066v-56.118z"/><path fill="#ffb655" d="M183 168.18h146v39.35H183z"/><g fill="#ff7956"><path d="M183 168.18h39.35v39.35H183z"/><path d="M304.672 168.181h-97.355l41.13-76.776h15.094z"/></g><path fill="#ff3f62" d="M263.542 91.405h-15.095l-41.13 76.776h28.961l34.197-63.834z"/><path fill="#ffdaaa" d="M99.81 396.87h72.13v65.82H99.81z"/><path fill="#ff9478" d="M99.81 396.87h20v65.82h-20z"/><g fill="#ffdaaa"><path d="M20.381 263.35h79.43v199.34h-79.43zM340.05 396.87h72.13v65.82h-72.13z"/></g><path fill="#ff9478" d="M340.05 396.87h26.05v65.82h-26.05z"/><path fill="#ffdaaa" d="M412.19 263.35h79.43v199.34h-79.43z"/><g fill="#ff7956"><path d="M91.697 180.628v26.903H70.598v-26.903h-21v26.903H28.5v-26.903h-21v82.723h105.197v-82.723zM420.303 180.628v26.903h21.099v-26.903h21v26.903H483.5v-26.903h21v82.723H399.303v-82.723z"/></g><g fill="#ff9478"><path d="M20.381 263.35h32.453v199.34H20.381zM412.19 263.35h32.453v199.34H412.19z"/></g><g fill="#ff3f62"><path d="M28.5 207.531v-26.903h-21v82.723h32.453v-55.82zM420.303 207.531v-26.903h-21v82.723h32.453v-55.82z"/></g><path fill="#57a4ff" d="M255.91 20.04h36.544v26.676H255.91z"/><path fill="#006df0" d="M255.91 20.04h14.564v26.676H255.91z"/><path fill="#57a4ff" d="M292.46 33.373h36.544v26.676H292.46z"/><path fill="#006df0" d="M292.46 33.373h16.264v26.676H292.46z"/><path fill="#ff7956" d="M331.333 282.687v36.53H297.63v-36.53h-24.778v36.53h-33.704v-36.53H214.37v36.53h-33.703v-36.53h-24.779v78.227h200.224v-78.227z"/><path fill="#ff9478" d="M171.95 360.91h22.248v101.78H171.95z"/><path fill="#ff3f62" d="M155.89 282.69h22.248v78.23H155.89z"/><g fill="#ff9478"><path d="M297.63 282.69h15v36.529h-15zM239.15 282.69h15v36.529h-15z"/></g><path fill="#b6e892" d="M7.5 462.69h497v29.27H7.5z"/><g fill="#fff"><path d="M460 319.89h15v68.01h-15zM460 397.9h15v15h-15zM460 422.9h15v15h-15zM64.725 397.9h15v15h-15zM64.725 422.9h15v15h-15zM64.725 319.89h15v68.01h-15z"/></g><g fill="#1d1d1f"><path d="M248.5 74.608h15V57.415h21.456v13.338H336.5V29.077h-36.544V15.739H263.5V9.332h-15v6.407h-.089v41.676h.089v17.193zm73-30.531v11.676h-21.544V44.077H321.5zm-36.544-13.338v11.676H263.5V30.739h21.456zM119.81 392.57h32.13v15h-32.13zM360.05 392.57h32.13v15h-32.13zM273.45 336.43h68.02v15h-68.02zM248.45 336.43h15v15h-15zM223.45 336.43h15v15h-15z"/><path d="M512 274.055v-97.723h-36v26.902h-6.098v-26.902h-36v26.902h-6.099v-26.902h-36v97.723h12.881v139.61H389v15h15.685v29.73h-57.133v-10.25h28.566v-15h-28.566v-61.527h16.061v-93.227h-39.779v36.53H305.13v-36.53h-39.779v36.53h-18.703v-36.53H206.87v36.53h-18.703v-36.53h-39.779v93.227h16.061v48.385H130.4v15h34.049v23.392h-57.133v-184.34h12.881v-97.723h-36v26.902h-6.098v-26.902h-36v26.902H36v-26.902H0v97.723h12.881v184.34H0v44.273h512v-44.273h-12.881v-184.34H512zm-99.197-82.723v26.902h36.099v-26.902h6v26.902H491v-26.902h6v67.723h-90.197v-15.341H432v-15h-25.197v-37.382h6zM163.388 356.618v-63.227h9.779v36.53h48.703v-36.53h9.779v36.53h48.703v-36.53h9.779v36.53h48.703v-36.53h9.779v63.227H163.388zm16.061 15h153.103v86.777h-30.339v-51.724l-22.097-22.097h-48.231l-22.097 22.097v51.724h-30.339v-86.777zm55.301 54.214v32.563h-9.962v-45.511l13.31-13.31H259.5v41.07h15v-40.473l12.712 12.712v45.511H249.75v-32.563h-15v.001zM15 191.332h6v26.902h36.098v-26.902h6v26.902h36.098v-26.902h6v67.723H80.553v-21.204h-15v21.204H15v-67.723zm12.881 82.723h64.434v184.34H27.881v-184.34zM497 487.668H15v-14.273h482v14.273zm-12.881-29.273h-64.434v-184.34h64.434v184.34z"/><path d="M273.45 238.66h15v15h-15zM248.45 238.66h15v15h-15zM223.45 238.66h15v15h-15zM39.557 285.72h15v15h-15zM64.56 285.72h15v15h-15zM456.68 285.72h15v15h-15zM431.68 285.72h15v15h-15z"/><path d="M186.696 265.891h15v-47.656h108.607v47.656h15v-47.656H336.5v-54.35h-27.338l-41.13-76.776h-24.076l-41.13 76.776H175.5v54.35h11.196v47.656zm66.242-163.783h6.113l33.094 61.776h-72.301l33.094-61.776zM190.5 178.885h131v24.35h-131v-24.35z"/></g></svg>