<?xml version="1.0" encoding="iso-8859-1"?>
<!-- Generator: Adobe Illustrator 19.0.0, SVG Export Plug-In . SVG Version: 6.00 Build 0)  -->
<svg version="1.1" id="Capa_1" xmlns="http://www.w3.org/2000/svg" xmlns:xlink="http://www.w3.org/1999/xlink" x="0px" y="0px"
	 viewBox="0 0 512 512" style="enable-background:new 0 0 512 512;" xml:space="preserve">
<polygon style="fill:#C6C5CA;" points="444.933,121.475 421.569,144.839 421.569,383.426 468.297,383.426 468.297,144.839 "/>
<polygon style="fill:#898890;" points="454.583,131.126 444.933,121.475 421.569,144.839 421.569,383.426 440.87,383.426 
	440.87,144.839 "/>
<rect x="385.37" y="383.43" style="fill:#FFE477;" width="119.14" height="28.2"/>
<g>
	<rect x="385.37" y="383.43" style="fill:#FFB655;" width="36.2" height="28.2"/>
	<rect x="425.63" y="411.63" style="fill:#FFB655;" width="38.603" height="92.87"/>
</g>
<rect x="425.63" y="411.63" style="fill:#FF7956;" width="15.1" height="92.87"/>
<polygon style="fill:#C6C5CA;" points="385.363,504.5 385.371,294.82 347.764,257.213 45.107,257.213 7.5,294.82 7.5,504.5 "/>
<polygon style="fill:#898890;" points="70.183,257.213 45.107,257.213 7.5,294.82 7.5,504.5 32.576,504.5 32.576,294.82 "/>
<path style="fill:#C6C5CA;" d="M321.292,217.213H71.579v-84.857C71.579,63.4,127.479,7.5,196.436,7.5l0,0
	c68.956,0,124.857,55.9,124.857,124.857v84.856H321.292z"/>
<path style="fill:#898890;" d="M218.465,9.438C211.314,8.165,203.953,7.5,196.436,7.5l0,0C127.48,7.5,71.579,63.4,71.579,132.356
	v84.857h44.059v-84.857C115.638,70.917,160.016,19.843,218.465,9.438z"/>
<rect x="78.968" y="257.21" style="fill:#C6C5CA;" width="234.94" height="247.29"/>
<g>
	<rect x="78.968" y="257.21" style="fill:#898890;" width="40.961" height="247.29"/>
	<rect x="313.79" y="257.21" style="fill:#898890;" width="21.708" height="247.29"/>
	<rect x="112.43" y="134" style="fill:#898890;" width="168.01" height="30"/>
	<rect x="280.44" y="134" style="fill:#898890;" width="25.968" height="30"/>
</g>
<path style="fill:#C6C5CA;" d="M103.426,217.213c23.354,24.634,56.386,40,93.01,40s69.656-15.366,93.01-40L103.426,217.213
	L103.426,217.213z"/>
<g>
	<path style="fill:#898890;" d="M150.686,217.213h-47.26c23.354,24.634,56.386,40,93.01,40c8.073,0,15.971-0.749,23.63-2.177
		C192.98,249.986,168.891,236.417,150.686,217.213z"/>
	<path style="fill:#898890;" d="M82.196,257.213c12.354,51.645,58.81,90.041,114.24,90.041s101.886-38.396,114.24-90.041H82.196z"/>
</g>
<path style="fill:#57565C;" d="M127.911,257.213H82.196c12.354,51.645,58.81,90.041,114.24,90.041
	c7.822,0,15.464-0.765,22.858-2.224C174.29,336.154,138.522,301.571,127.911,257.213z"/>
<g>
	<path style="fill:#898890;" d="M78.938,257.213H45.107L7.5,294.82v32.644C46.563,327.465,78.285,296.121,78.938,257.213z"/>
	<path style="fill:#898890;" d="M313.934,257.213h33.831l37.607,37.607v32.644C346.309,327.465,314.586,296.121,313.934,257.213z"/>
</g>
<g>
	<path style="fill:#57565C;" d="M31.13,294.82l37.607-37.607h-23.63L7.5,294.82v32.644c8.284,0,16.232-1.423,23.63-4.015V294.82z"/>
	<path style="fill:#57565C;" d="M337.564,257.213h-23.63c0.652,38.907,32.375,70.251,71.438,70.251v-4.015
		C357.887,313.817,338.078,287.869,337.564,257.213z"/>
</g>
<rect x="7.5" y="419" style="fill:#898890;" width="71.47" height="85.5"/>
<rect x="7.5" y="419" style="fill:#57565C;" width="25.08" height="85.5"/>
<rect x="313.9" y="419" style="fill:#898890;" width="71.47" height="85.5"/>
<rect x="313.9" y="419.13" style="fill:#57565C;" width="24.282" height="85.37"/>
<g>
	<rect x="271.95" y="382.2" style="fill:#FFFFFF;" width="15" height="15"/>
	<rect x="271.95" y="357.2" style="fill:#FFFFFF;" width="15" height="15"/>
	<rect x="271.95" y="407.2" style="fill:#FFFFFF;" width="15" height="65.33"/>
	<path style="fill:#FFFFFF;" d="M266.265,79.928c6.957,9.242,11.935,19.573,14.794,30.706l14.528-3.731
		c-3.354-13.057-9.188-25.168-17.339-35.996L266.265,79.928z"/>
	<path style="fill:#FFFFFF;" d="M260.348,72.87l10.976-10.224c-3.667-3.937-7.672-7.612-11.905-10.925l-9.245,11.813
		C253.791,66.364,257.214,69.505,260.348,72.87z"/>
	<path style="fill:#FFFFFF;" d="M250.593,45.529c-4.567-2.859-9.394-5.372-14.344-7.469l-5.852,13.812
		c4.223,1.789,8.34,3.933,12.237,6.373L250.593,45.529z"/>
</g>
<g>
	<rect x="330.69" y="336.31" style="fill:#1D1D1F;" width="15" height="15"/>
	<rect x="330.69" y="386.31" style="fill:#1D1D1F;" width="15" height="15"/>
	<rect x="330.69" y="361.31" style="fill:#1D1D1F;" width="15" height="15"/>
	<rect x="47.27" y="334.77" style="fill:#1D1D1F;" width="15" height="15"/>
	<rect x="47.27" y="359.77" style="fill:#1D1D1F;" width="15" height="15"/>
	<rect x="47.27" y="384.77" style="fill:#1D1D1F;" width="15" height="19"/>
	<path style="fill:#1D1D1F;" d="M512,375.926h-36.203V141.733l-30.864-30.864l-30.864,30.864v234.193h-8.704v15H497v13.201h-91.635
		v15h12.766V512h53.603v-92.873H512V375.926z M452.433,375.926V160.889h-15v215.037h-8.364v-227.98l15.864-15.864l15.864,15.864
		v227.98L452.433,375.926L452.433,375.926z M433.131,465.54h23.603v8.707h-23.603V465.54z M433.131,450.54v-8.706h23.603v8.706
		H433.131z M433.131,497v-7.754h23.603V497H433.131z M456.734,426.833h-23.603v-7.707h23.603V426.833z"/>
	<path style="fill:#1D1D1F;" d="M350.871,249.713h-92.229c12.391-6.411,23.837-14.794,33.972-25h36.178v-92.357
		C328.792,59.375,269.417,0,196.436,0C123.454,0,64.079,59.375,64.079,132.356v92.357h36.178c10.135,10.206,21.581,18.589,33.972,25
		H42l-42,42V512h392.872V291.714L350.871,249.713z M377.867,411.5h-56.464V302.269c2.562,3.53,5.415,6.884,8.583,10.004
		c13.063,12.865,29.846,20.643,47.884,22.336L377.867,411.5z M377.872,297.927l-0.001,21.576
		c-28.707-3.419-51.872-26.162-55.831-54.79h22.619L377.872,297.927z M203.936,249.478v-24.765h66.083
		C251.003,239.435,228.218,248.011,203.936,249.478z M79.079,132.356c0-62.189,48.626-113.227,109.854-117.11V99h15V15.246
		c61.23,3.88,109.86,54.919,109.86,117.11v77.357H79.079V132.356z M188.936,224.713v24.765
		c-24.283-1.467-47.067-10.043-66.083-24.765H188.936z M188.936,264.713V311h15v-46.287h96.81
		c-14.835,44.632-56.45,75.041-104.31,75.041s-89.475-30.409-104.31-75.041H188.936z M48.213,264.713h22.618
		c-3.959,28.628-27.125,51.371-55.832,54.79v-21.576L48.213,264.713z M15,334.609c18.039-1.693,34.822-9.47,47.885-22.336
		c3.167-3.119,6.021-6.474,8.583-10.004V411.5H15V334.609z M57.167,497v-44h-15v44H15v-70.5h56.468V497H57.167z M203.936,497v-56
		h-15v56H86.468v-36.5H137v-15H86.468V289.078c7.955,14.707,18.827,27.844,32.011,38.381c20.068,16.04,44.839,25.509,70.453,27.063
		v53.144h15v-53.144c25.616-1.554,50.39-11.023,70.459-27.064c13.184-10.538,24.057-23.674,32.011-38.382V497H203.936z M321.403,497
		v-70.5h56.463l-0.001,14h-28.229v15h28.228l-0.002,41.5H321.403z"/>
	<path style="fill:#1D1D1F;" d="M104.929,171.5h84.003V197h15v-25.5h84.003v-45H104.929V171.5z M119.929,141.5h153.006v15H119.929
		V141.5z"/>
</g>
<g>
	<path style="fill:#FFFFFF;" d="M277.07,277.646l-13.456-6.628c-3.259,6.617-7.479,12.712-12.541,18.118l10.949,10.253
		C268.095,292.905,273.158,285.589,277.07,277.646z"/>
	<path style="fill:#FFFFFF;" d="M230.883,320.99l-5.755-13.852c-4.186,1.739-8.556,3.101-12.989,4.046l3.131,14.67
		C220.599,324.717,225.852,323.081,230.883,320.99z"/>
	<path style="fill:#FFFFFF;" d="M254.106,306.88l-9.635-11.496c-3.481,2.917-7.244,5.529-11.186,7.764l7.397,13.049
		C245.414,313.515,249.93,310.38,254.106,306.88z"/>
</g>
<g>
</g>
<g>
</g>
<g>
</g>
<g>
</g>
<g>
</g>
<g>
</g>
<g>
</g>
<g>
</g>
<g>
</g>
<g>
</g>
<g>
</g>
<g>
</g>
<g>
</g>
<g>
</g>
<g>
</g>
</svg>
