<svg xmlns="http://www.w3.org/2000/svg" viewBox="0 0 512 512"><g fill="#10bafc"><path d="M501.504 185.595c0-27.527-22.403-49.922-49.944-49.922-1.72 0-3.436.092-5.142.263-8.662-22.62-30.478-37.9-55.213-37.9-24.734 0-46.551 15.28-55.212 37.9a51.564 51.564 0 0 0-5.143-.263c-27.542 0-49.945 22.395-49.945 49.922h220.599zM183.699 102.087c0-21.569-17.589-39.115-39.211-39.115-1.35 0-2.697.073-4.037.208-6.799-17.725-23.926-29.695-43.343-29.695s-36.545 11.97-43.344 29.694a40.592 40.592 0 0 0-4.038-.208c-21.62 0-39.208 17.545-39.208 39.115H183.7v.001z"/></g><path fill="#3f5968" d="M362.85 478.515l-53.402-103.302 72.149-162.661 117.968 265.963h-95.058z"/><path fill="#fff" d="M381.597 212.552l-48.759 109.93.006.006 26.963 19.656 22.022-19.781 21.963 19.781 26.602-19.579z"/><path fill="#3f5968" d="M234.061 478.515H10.496l176.177-340.794L362.85 478.515h-43.124z"/><path fill="#fff" d="M186.673 137.721l-69.125 133.714 37.931 27.524 31.149-27.698 31.065 27.698 38.016-27.697z"/><path d="M280.904 196.091h220.599c5.797 0 10.496-4.699 10.496-10.496 0-32.806-26.289-59.59-58.916-60.399-11.811-22.797-35.796-37.655-61.88-37.655-26.083 0-50.066 14.857-61.876 37.655-32.627.809-58.918 27.593-58.918 60.399-.001 5.797 4.698 10.496 10.495 10.496zm49.945-49.922c1.324 0 2.7.071 4.089.212a10.502 10.502 0 0 0 10.856-6.69c7.136-18.636 25.385-31.157 45.409-31.157 20.026 0 38.276 12.522 45.413 31.159a10.499 10.499 0 0 0 10.856 6.689c1.39-.14 2.765-.211 4.087-.211 18.117 0 33.42 12.269 38.029 28.93H292.819c4.609-16.663 19.912-28.932 38.03-28.932zM10.517 112.583H183.7c5.797 0 10.496-4.699 10.496-10.496 0-26.496-20.918-48.207-47.137-49.546-9.86-17.937-29.085-29.553-49.952-29.553-20.865 0-40.09 11.616-49.95 29.553C20.938 53.879.021 75.59.021 102.087c0 5.796 4.699 10.496 10.496 10.496zm39.208-39.116c.953 0 1.961.052 2.992.155a10.505 10.505 0 0 0 10.846-6.684c5.269-13.732 18.749-22.959 33.543-22.959 14.796 0 28.277 9.226 33.544 22.959a10.5 10.5 0 0 0 10.846 6.685 29.944 29.944 0 0 1 2.991-.155c12.118 0 22.506 7.52 26.715 18.124H23.012c4.208-10.605 14.596-18.125 26.713-18.125zM286.819 468.019h-2.794c-5.797 0-10.496 4.699-10.496 10.496 0 5.797 4.699 10.496 10.496 10.496h2.794c5.797 0 10.496-4.699 10.496-10.496 0-5.797-4.699-10.496-10.496-10.496z"/><path d="M391.191 208.296a10.497 10.497 0 0 0-19.188 0l-63.277 142.663-112.728-218.058a10.494 10.494 0 0 0-18.648 0L1.172 473.696a10.495 10.495 0 0 0 9.325 15.316h237.842c5.797 0 10.496-4.699 10.496-10.496 0-5.797-4.699-10.496-10.496-10.496H27.738l93.528-180.92 28.049 20.353a10.476 10.476 0 0 0 6.163 2.001c2.502 0 4.997-.892 6.976-2.652l24.166-21.487 24.089 21.477a10.497 10.497 0 0 0 13.165.65l28.128-20.493 93.607 181.071h-23.105c-5.797 0-10.496 4.699-10.496 10.496 0 5.797 4.699 10.496 10.496 10.496h40.325c7.706 0 12.903-8.435 9.346-15.316l-51.089-98.829 16.076-36.243 16.464 12.001a10.47 10.47 0 0 0 6.181 2.014c2.52 0 5.031-.905 7.017-2.688l14.998-13.472 14.95 13.463a10.5 10.5 0 0 0 13.245.655l16.082-11.835 57.333 129.258h-84.891c-5.797 0-10.496 4.699-10.496 10.496 0 5.797 4.699 10.496 10.496 10.496H499.57a10.496 10.496 0 0 0 9.595-14.753L391.191 208.296zm-172.834 77.192l-24.743-22.061a10.493 10.493 0 0 0-13.959-.009l-24.842 22.088-23.796-17.267 55.657-107.662 55.573 107.505-23.89 17.406zm186.103 43.131l-15.608-14.056a10.496 10.496 0 0 0-14.038-.009l-15.696 14.098-13.251-9.659 35.73-80.554 35.782 80.673-12.919 9.507z"/><path d="M112.499 377.288c-5.163-2.631-11.485-.58-14.118 4.584l-31.147 61.092c-2.632 5.164-.58 11.485 4.584 14.118a10.495 10.495 0 0 0 14.118-4.584l31.147-61.092c2.632-5.163.58-11.484-4.584-14.118zM124.163 365.332c3.675 0 7.242-1.933 9.166-5.367l2.115-3.773c2.834-5.057 1.032-11.454-4.025-14.287-5.059-2.835-11.454-1.031-14.287 4.025l-2.115 3.773c-2.834 5.057-1.032 11.454 4.025 14.287a10.435 10.435 0 0 0 5.121 1.342z"/></svg>