<?xml version="1.0" encoding="iso-8859-1"?>
<!-- Generator: Adobe Illustrator 19.0.0, SVG Export Plug-In . SVG Version: 6.00 Build 0)  -->
<svg version="1.1" id="Layer_1" xmlns="http://www.w3.org/2000/svg" xmlns:xlink="http://www.w3.org/1999/xlink" x="0px" y="0px"
	 viewBox="0 0 512 512" style="enable-background:new 0 0 512 512;" xml:space="preserve">
<g>
	<path style="fill:#10BAFC;" d="M501.504,185.595c0-27.527-22.403-49.922-49.944-49.922c-1.72,0-3.436,0.092-5.142,0.263
		c-8.662-22.62-30.478-37.9-55.213-37.9c-24.734,0-46.551,15.28-55.212,37.9c-1.706-0.171-3.422-0.263-5.143-0.263
		c-27.542,0-49.945,22.395-49.945,49.922H501.504z"/>
	<path style="fill:#10BAFC;" d="M183.699,102.087c0-21.569-17.589-39.115-39.211-39.115c-1.35,0-2.697,0.073-4.037,0.208
		c-6.799-17.725-23.926-29.695-43.343-29.695S60.563,45.455,53.764,63.179c-1.34-0.134-2.688-0.208-4.038-0.208
		c-21.62,0-39.208,17.545-39.208,39.115h173.182V102.087z"/>
</g>
<polygon style="fill:#3F5968;" points="362.85,478.515 309.448,375.213 381.597,212.552 499.565,478.515 404.507,478.515 "/>
<polygon style="fill:#FFFFFF;" points="381.597,212.552 332.838,322.482 332.844,322.488 359.807,342.144 381.829,322.363 
	403.792,342.144 430.394,322.565 "/>
<polygon style="fill:#3F5968;" points="234.061,478.515 10.496,478.515 186.673,137.721 362.85,478.515 319.726,478.515 "/>
<polygon style="fill:#FFFFFF;" points="186.673,137.721 117.548,271.435 117.548,271.435 155.479,298.959 186.628,271.261 
	217.693,298.959 255.709,271.262 "/>
<path d="M280.904,196.091h220.599c5.797,0,10.496-4.699,10.496-10.496c0-32.806-26.289-59.59-58.916-60.399
	c-11.811-22.797-35.796-37.655-61.88-37.655c-26.083,0-50.066,14.857-61.876,37.655c-32.627,0.809-58.918,27.593-58.918,60.399
	C270.408,191.392,275.107,196.091,280.904,196.091z M330.849,146.169c1.324,0,2.7,0.071,4.089,0.212
	c4.718,0.469,9.162-2.266,10.856-6.69c7.136-18.636,25.385-31.157,45.409-31.157c20.026,0,38.276,12.522,45.413,31.159
	c1.694,4.424,6.15,7.167,10.856,6.689c1.39-0.14,2.765-0.211,4.087-0.211c18.117,0,33.42,12.269,38.029,28.93H292.819
	C297.428,158.438,312.731,146.169,330.849,146.169z"/>
<path d="M10.517,112.583h173.183c5.797,0,10.496-4.699,10.496-10.496c0-26.496-20.918-48.207-47.137-49.546
	c-9.86-17.937-29.085-29.553-49.952-29.553c-20.865,0-40.09,11.616-49.95,29.553C20.938,53.879,0.021,75.59,0.021,102.087
	C0.021,107.883,4.72,112.583,10.517,112.583z M49.725,73.467c0.953,0,1.961,0.052,2.992,0.155c4.705,0.467,9.15-2.265,10.846-6.684
	c5.269-13.732,18.749-22.959,33.543-22.959c14.796,0,28.277,9.226,33.544,22.959c1.695,4.419,6.139,7.155,10.846,6.685
	c1.031-0.104,2.037-0.155,2.991-0.155c12.118,0,22.506,7.52,26.715,18.124H23.012C27.22,80.987,37.608,73.467,49.725,73.467z"/>
<path d="M286.819,468.019h-2.794c-5.797,0-10.496,4.699-10.496,10.496c0,5.797,4.699,10.496,10.496,10.496h2.794
	c5.797,0,10.496-4.699,10.496-10.496C297.315,472.718,292.616,468.019,286.819,468.019z"/>
<path d="M391.191,208.296c-1.684-3.794-5.444-6.24-9.594-6.24s-7.912,2.447-9.594,6.24l-63.277,142.663L195.998,132.901
	c-1.802-3.487-5.399-5.676-9.324-5.676s-7.521,2.189-9.324,5.676L1.172,473.696c-1.683,3.254-1.546,7.15,0.359,10.278
	c1.904,3.129,5.303,5.038,8.966,5.038h237.842c5.797,0,10.496-4.699,10.496-10.496c0-5.797-4.699-10.496-10.496-10.496H27.738
	L121.266,287.1l28.049,20.353c1.846,1.339,4.007,2.001,6.163,2.001c2.502,0,4.997-0.892,6.976-2.652l24.166-21.487l24.089,21.477
	c3.689,3.289,9.172,3.558,13.165,0.65l28.128-20.493l93.607,181.071h-23.105c-5.797,0-10.496,4.699-10.496,10.496
	c0,5.797,4.699,10.496,10.496,10.496h40.325c7.706,0,12.903-8.435,9.346-15.316l-51.089-98.829l16.076-36.243l16.464,12.001
	c1.85,1.349,4.019,2.014,6.181,2.014c2.52,0,5.031-0.905,7.017-2.688l14.998-13.472l14.95,13.463
	c3.7,3.331,9.233,3.606,13.245,0.655l16.082-11.835l57.333,129.258h-84.891c-5.797,0-10.496,4.699-10.496,10.496
	c0,5.797,4.699,10.496,10.496,10.496h101.029c3.552,0,6.862-1.796,8.799-4.774c1.937-2.977,2.236-6.732,0.796-9.979L391.191,208.296
	z M218.357,285.488l-24.743-22.061c-3.977-3.547-9.979-3.55-13.959-0.009l-24.842,22.088l-23.796-17.267l55.657-107.662
	l55.573,107.505L218.357,285.488z M404.46,328.619l-15.608-14.056c-3.988-3.592-10.045-3.596-14.038-0.009l-15.696,14.098
	l-13.251-9.659l35.73-80.554l35.782,80.673L404.46,328.619z"/>
<path d="M112.499,377.288c-5.163-2.631-11.485-0.58-14.118,4.584l-31.147,61.092c-2.632,5.164-0.58,11.485,4.584,14.118
	c1.527,0.779,3.154,1.147,4.759,1.147c3.821,0,7.505-2.094,9.359-5.731l31.147-61.092
	C119.715,386.243,117.663,379.922,112.499,377.288z"/>
<path d="M124.163,365.332c3.675,0,7.242-1.933,9.166-5.367l2.115-3.773c2.834-5.057,1.032-11.454-4.025-14.287
	c-5.059-2.835-11.454-1.031-14.287,4.025l-2.115,3.773c-2.834,5.057-1.032,11.454,4.025,14.287
	C120.665,364.901,122.427,365.332,124.163,365.332z"/>
<g>
</g>
<g>
</g>
<g>
</g>
<g>
</g>
<g>
</g>
<g>
</g>
<g>
</g>
<g>
</g>
<g>
</g>
<g>
</g>
<g>
</g>
<g>
</g>
<g>
</g>
<g>
</g>
<g>
</g>
</svg>
