<svg xmlns="http://www.w3.org/2000/svg" viewBox="0 0 512 512"><path d="M448.388 412.314H63.614a8.016 8.016 0 0 1-8.016-8.016v-40.081h400.806v40.081a8.016 8.016 0 0 1-8.016 8.016z" fill="#6f6571"/><g fill="#5d5360"><path d="M55.601 364.219h400.81v24.05H55.601z"/><circle cx="119.731" cy="428.349" r="40.08"/></g><circle cx="119.731" cy="428.349" r="20.04" fill="#6f6571"/><path d="M393.545 93.364c-44.298-19.716-47.674-12.746-91.972-32.462-14.985-6.669-29.434-17.33-45.572-17.33s-30.587 10.662-45.572 17.331c-44.298 19.716-47.674 12.746-91.972 32.462-44.298 19.715-40.922 26.685-85.22 46.401h445.527c-44.297-19.717-40.921-26.686-85.219-46.402z" fill="#5d5360"/><path d="M7.501 139.765l23.281 217.29a8.016 8.016 0 0 0 7.97 7.162h434.497a8.016 8.016 0 0 0 7.97-7.162l23.281-217.29H7.501z" fill="#ffe17d"/><circle cx="392.271" cy="428.349" r="40.08" fill="#5d5360"/><circle cx="392.271" cy="428.349" r="20.04" fill="#6f6571"/><path d="M133.929 340.168c-45.063 0-82.875-33.977-87.676-78.784l-13.03-121.619H7.501l23.281 217.29a8.016 8.016 0 0 0 7.97 7.162h434.497a8.016 8.016 0 0 0 7.97-7.162l1.809-16.887H133.929z" fill="#ffd164"/><path d="M504.501 460.926h-77.597c8.021-8.521 12.952-19.982 12.952-32.581 0-2.914-.277-5.762-.781-8.532h9.313c8.556 0 15.516-6.96 15.516-15.516v-32.581h9.345c7.949 0 14.582-5.96 15.428-13.863l23.281-217.29a7.501 7.501 0 0 0-7.458-8.299h-24.133c-20.59-9.252-30.085-15.441-40.117-21.983-10.306-6.72-20.962-13.669-43.657-23.77-22.69-10.099-35.099-13.416-47.099-16.625-11.964-3.199-23.265-6.22-44.873-15.837-3.834-1.706-7.629-3.688-11.648-5.786-11.481-5.992-23.354-12.191-36.972-12.191-13.618 0-25.491 6.199-36.973 12.193-4.019 2.098-7.814 4.08-11.648 5.786-21.607 9.617-32.908 12.638-44.873 15.837-12 3.208-24.409 6.526-47.099 16.625-22.696 10.101-33.352 17.05-43.658 23.77-10.032 6.542-19.527 12.731-40.117 21.983H7.501a7.502 7.502 0 0 0-7.458 8.299l23.281 217.289a15.488 15.488 0 0 0 15.428 13.864h9.345v32.581c0 8.556 6.96 15.516 15.516 15.516h9.313a47.61 47.61 0 0 0-.781 8.532c0 12.598 4.931 24.06 12.952 32.581H7.501a7.5 7.5 0 0 0 0 15h497a7.502 7.502 0 0 0 0-15.002zm-337.193-32.58c0-2.914-.277-5.762-.781-8.532h178.949a47.61 47.61 0 0 0-.781 8.532c0 12.598 4.931 24.06 12.952 32.581H154.355c8.022-8.521 12.953-19.983 12.953-32.581zm192.387 0c0-17.965 14.616-32.581 32.581-32.581s32.581 14.616 32.581 32.581-14.616 32.581-32.581 32.581c-17.966-.001-32.581-14.616-32.581-32.581zM63.614 404.814a.516.516 0 0 1-.516-.516v-32.581h337.194a7.5 7.5 0 0 0 0-15H38.753a.515.515 0 0 1-.513-.461L15.848 147.265h63.797a7.5 7.5 0 0 0 0-15h-14.79c5.796-3.359 10.48-6.412 15.09-9.418 10.265-6.694 19.96-13.016 41.563-22.631 21.608-9.618 32.909-12.639 44.874-15.837 12-3.208 24.409-6.526 47.098-16.624 4.261-1.897 8.445-4.081 12.491-6.193 10.333-5.395 20.093-10.49 30.031-10.49 9.938 0 19.698 5.095 30.031 10.49 4.046 2.112 8.229 4.296 12.491 6.193 22.689 10.098 35.098 13.416 47.098 16.624 11.964 3.199 23.265 6.22 44.874 15.837 21.603 9.615 31.299 15.937 41.563 22.631 4.61 3.006 9.293 6.059 15.09 9.418h-335.44a7.5 7.5 0 0 0 0 15h384.446l-22.392 208.991a.514.514 0 0 1-.513.46h-40.895a7.5 7.5 0 0 0 0 15h16.55v32.581a.516.516 0 0 1-.516.516h-14.785c-8.203-14.349-23.649-24.048-41.328-24.048s-33.125 9.699-41.328 24.048H161.055c-8.203-14.349-23.649-24.048-41.328-24.048s-33.125 9.699-41.328 24.048H63.614v.001zm23.532 23.532c0-17.965 14.616-32.581 32.581-32.581s32.581 14.616 32.581 32.581-14.616 32.581-32.581 32.581c-17.965-.001-32.581-14.616-32.581-32.581z"/><path d="M119.807 420.846h-.081c-4.142 0-7.46 3.358-7.46 7.5s3.398 7.5 7.541 7.5 7.5-3.358 7.5-7.5-3.358-7.5-7.5-7.5zM392.356 420.846h-.08c-4.142 0-7.46 3.358-7.46 7.5s3.398 7.5 7.54 7.5a7.5 7.5 0 0 0 0-15zM471.921 171.83a7.5 7.5 0 0 0-7.5-7.5H47.582a7.5 7.5 0 0 0 0 15h416.839a7.5 7.5 0 0 0 7.5-7.5zM194.585 113.004c1.464 1.464 3.384 2.197 5.303 2.197s3.839-.732 5.303-2.197a7.5 7.5 0 0 0 0-10.606l-8.016-8.016a7.5 7.5 0 0 0-10.606 0 7.5 7.5 0 0 0 0 10.606l8.016 8.016zM296.082 107.185h8.016a7.5 7.5 0 0 0 0-15h-8.016a7.5 7.5 0 0 0 0 15zM256.081 91.152a7.5 7.5 0 0 0 0-15h-.08c-4.142 0-7.46 3.358-7.46 7.5s3.398 7.5 7.54 7.5z"/></svg>