<?xml version="1.0" encoding="iso-8859-1"?>
<!-- Generator: Adobe Illustrator 19.0.0, SVG Export Plug-In . SVG Version: 6.00 Build 0)  -->
<svg version="1.1" id="Capa_1" xmlns="http://www.w3.org/2000/svg" xmlns:xlink="http://www.w3.org/1999/xlink" x="0px" y="0px"
	 viewBox="0 0 512 512" style="enable-background:new 0 0 512 512;" xml:space="preserve">
<path style="fill:#6F6571;" d="M448.388,412.314H63.614c-4.427,0-8.016-3.589-8.016-8.016v-40.081h400.806v40.081
	C456.404,408.725,452.815,412.314,448.388,412.314z"/>
<g>
	<rect x="55.601" y="364.219" style="fill:#5D5360;" width="400.81" height="24.05"/>
	<circle style="fill:#5D5360;" cx="119.731" cy="428.349" r="40.08"/>
</g>
<circle style="fill:#6F6571;" cx="119.731" cy="428.349" r="20.04"/>
<path style="fill:#5D5360;" d="M393.545,93.364c-44.298-19.716-47.674-12.746-91.972-32.462
	c-14.985-6.669-29.434-17.33-45.572-17.33s-30.587,10.662-45.572,17.331c-44.298,19.716-47.674,12.746-91.972,32.462
	c-44.298,19.715-40.922,26.685-85.22,46.401h445.527C434.467,120.049,437.843,113.08,393.545,93.364z"/>
<path style="fill:#FFE17D;" d="M7.501,139.765l23.281,217.29c0.436,4.073,3.874,7.162,7.97,7.162h434.497
	c4.096,0,7.534-3.089,7.97-7.162l23.281-217.29H7.501z"/>
<circle style="fill:#5D5360;" cx="392.271" cy="428.349" r="40.08"/>
<circle style="fill:#6F6571;" cx="392.271" cy="428.349" r="20.04"/>
<path style="fill:#FFD164;" d="M133.929,340.168c-45.063,0-82.875-33.977-87.676-78.784l-13.03-121.619H7.501l23.281,217.29
	c0.436,4.073,3.874,7.162,7.97,7.162h434.497c4.096,0,7.534-3.089,7.97-7.162l1.809-16.887H133.929z"/>
<path d="M504.501,460.926h-77.597c8.021-8.521,12.952-19.982,12.952-32.581c0-2.914-0.277-5.762-0.781-8.532h9.313
	c8.556,0,15.516-6.96,15.516-15.516v-32.581h9.345c7.949,0,14.582-5.96,15.428-13.863l23.281-217.29
	c0.227-2.116-0.457-4.229-1.879-5.812s-3.45-2.487-5.579-2.487h-24.133c-20.59-9.252-30.085-15.441-40.117-21.983
	c-10.306-6.72-20.962-13.669-43.657-23.77c-22.69-10.099-35.099-13.416-47.099-16.625c-11.964-3.199-23.265-6.22-44.873-15.837
	c-3.834-1.706-7.629-3.688-11.648-5.786c-11.481-5.992-23.354-12.191-36.972-12.191c-13.618,0-25.491,6.199-36.973,12.193
	c-4.019,2.098-7.814,4.08-11.648,5.786c-21.607,9.617-32.908,12.638-44.873,15.837c-12,3.208-24.409,6.526-47.099,16.625
	c-22.696,10.101-33.352,17.05-43.658,23.77c-10.032,6.542-19.527,12.731-40.117,21.983H7.501c-2.128,0-4.156,0.904-5.579,2.487
	s-2.105,3.696-1.879,5.812l23.281,217.289c0.846,7.904,7.479,13.864,15.428,13.864h9.345v32.581c0,8.556,6.96,15.516,15.516,15.516
	h9.313c-0.504,2.77-0.781,5.619-0.781,8.532c0,12.598,4.931,24.06,12.952,32.581H7.501c-4.142,0-7.5,3.358-7.5,7.5
	s3.358,7.5,7.5,7.5h497c4.142,0,7.5-3.358,7.5-7.5S508.643,460.926,504.501,460.926z M167.308,428.346
	c0-2.914-0.277-5.762-0.781-8.532h178.949c-0.504,2.77-0.781,5.619-0.781,8.532c0,12.598,4.931,24.06,12.952,32.581H154.355
	C162.377,452.406,167.308,440.944,167.308,428.346z M359.695,428.346c0-17.965,14.616-32.581,32.581-32.581
	s32.581,14.616,32.581,32.581s-14.616,32.581-32.581,32.581C374.31,460.926,359.695,446.311,359.695,428.346z M63.614,404.814
	c-0.285,0-0.516-0.231-0.516-0.516v-32.581h337.194c4.142,0,7.5-3.358,7.5-7.5s-3.358-7.5-7.5-7.5H38.753
	c-0.264,0-0.485-0.198-0.513-0.461L15.848,147.265h63.797c4.142,0,7.5-3.358,7.5-7.5s-3.358-7.5-7.5-7.5h-14.79
	c5.796-3.359,10.48-6.412,15.09-9.418c10.265-6.694,19.96-13.016,41.563-22.631c21.608-9.618,32.909-12.639,44.874-15.837
	c12-3.208,24.409-6.526,47.098-16.624c4.261-1.897,8.445-4.081,12.491-6.193c10.333-5.395,20.093-10.49,30.031-10.49
	c9.938,0,19.698,5.095,30.031,10.49c4.046,2.112,8.229,4.296,12.491,6.193c22.689,10.098,35.098,13.416,47.098,16.624
	c11.964,3.199,23.265,6.22,44.874,15.837c21.603,9.615,31.299,15.937,41.563,22.631c4.61,3.006,9.293,6.059,15.09,9.418h-335.44
	c-4.142,0-7.5,3.358-7.5,7.5s3.358,7.5,7.5,7.5h384.446l-22.392,208.991c-0.028,0.263-0.249,0.46-0.513,0.46h-40.895
	c-4.142,0-7.5,3.358-7.5,7.5s3.358,7.5,7.5,7.5h16.55v32.581c0,0.285-0.231,0.516-0.516,0.516h-14.785
	c-8.203-14.349-23.649-24.048-41.328-24.048s-33.125,9.699-41.328,24.048H161.055c-8.203-14.349-23.649-24.048-41.328-24.048
	s-33.125,9.699-41.328,24.048H63.614V404.814z M87.146,428.346c0-17.965,14.616-32.581,32.581-32.581s32.581,14.616,32.581,32.581
	s-14.616,32.581-32.581,32.581C101.762,460.926,87.146,446.311,87.146,428.346z"/>
<path d="M119.807,420.846h-0.081c-4.142,0-7.46,3.358-7.46,7.5s3.398,7.5,7.541,7.5s7.5-3.358,7.5-7.5
	S123.949,420.846,119.807,420.846z"/>
<path d="M392.356,420.846h-0.08c-4.142,0-7.46,3.358-7.46,7.5s3.398,7.5,7.54,7.5s7.5-3.358,7.5-7.5
	S396.498,420.846,392.356,420.846z"/>
<path d="M471.921,171.83c0-4.142-3.358-7.5-7.5-7.5H47.582c-4.142,0-7.5,3.358-7.5,7.5s3.358,7.5,7.5,7.5h416.839
	C468.563,179.33,471.921,175.972,471.921,171.83z"/>
<path d="M194.585,113.004c1.464,1.464,3.384,2.197,5.303,2.197s3.839-0.732,5.303-2.197c2.929-2.929,2.929-7.678,0-10.606
	l-8.016-8.016c-2.929-2.929-7.678-2.929-10.606,0c-2.929,2.929-2.929,7.678,0,10.606L194.585,113.004z"/>
<path d="M296.082,107.185h8.016c4.142,0,7.5-3.358,7.5-7.5s-3.358-7.5-7.5-7.5h-8.016c-4.142,0-7.5,3.358-7.5,7.5
	S291.94,107.185,296.082,107.185z"/>
<path d="M256.081,91.152c4.142,0,7.5-3.358,7.5-7.5s-3.358-7.5-7.5-7.5h-0.08c-4.142,0-7.46,3.358-7.46,7.5
	S251.939,91.152,256.081,91.152z"/>
<g>
</g>
<g>
</g>
<g>
</g>
<g>
</g>
<g>
</g>
<g>
</g>
<g>
</g>
<g>
</g>
<g>
</g>
<g>
</g>
<g>
</g>
<g>
</g>
<g>
</g>
<g>
</g>
<g>
</g>
</svg>
