<svg xmlns="http://www.w3.org/2000/svg" viewBox="0 0 512 512"><path fill="#ffb655" d="M49.676 401.045H462.33v44.568H49.676z"/><path fill="#ff7956" d="M49.676 401.045h44.568v44.568H49.676z"/><path fill="#ffe477" d="M34.957 445.614h442.094v43.449H34.957z"/><path fill="#ffb655" d="M34.957 445.614h43.449v43.449H34.957z"/><path fill="#ffe477" d="M477.05 77.854L366.524 213.739 255.996 77.854 145.475 213.739 34.957 77.854v323.187H477.05z"/><g fill="#ffb655"><path d="M105.928 285.205l27.381 33.665 27.384-33.665-27.384-33.666zM448.428 285.205l-27.383 33.665-27.382-33.665 27.382-33.666zM219.049 285.205l58.127 71.466 58.13-71.466-58.13-71.466zM34.957 77.854v323.187h42.36V129.937zM408.884 213.739l68.166-83.806V77.854l-89.346 109.845zM187.835 213.739l89.342-109.845-21.181-26.04-89.34 109.844zM103.236 161.809l42.237 51.93 42.239-51.93-42.239-51.93z"/><path d="M324.287 161.809l42.237 51.93 42.238-51.93-42.238-51.93z"/></g><g fill="#ff7956"><path d="M84.754 285.205l27.381 33.665 27.383-33.665-27.383-33.666zM427.254 285.205l-27.382 33.665-27.383-33.665 27.383-33.666zM197.875 285.205l58.128 71.466 58.129-71.466-58.129-71.466z"/><path d="M84.754 285.205l27.381 33.665 27.383-33.665-27.383-33.666zM427.254 285.205l-27.382 33.665-27.383-33.665 27.383-33.666zM197.875 285.205l58.128 71.466 58.129-71.466-58.129-71.466z"/></g><g fill="#ff3f62"><path d="M105.928 285.205l16.794-20.65-10.587-13.016-27.381 33.666 27.381 33.665 10.587-13.016zM393.663 285.205l16.795-20.65-10.586-13.016-27.383 33.666 27.383 33.665 10.586-13.016zM226.589 285.205l43.77-53.816-14.356-17.65-58.128 71.466 58.128 71.466 14.356-17.651z"/></g><g fill="#ffe477"><circle cx="34.957" cy="50.4" r="27.457"/><circle cx="256.007" cy="50.4" r="27.457"/></g><g fill="#ffb655"><circle cx="145.478" cy="88.889" r="20.995"/><circle cx="366.525" cy="88.889" r="20.995"/></g><g fill="#ff7956"><path d="M123.196 161.809l32.258-39.659-9.981-12.271-42.237 51.93 42.237 51.93 9.981-12.271zM145.474 109.879c3.613 0 7.012-.914 9.98-2.521-6.559-3.551-11.014-10.491-11.014-18.474 0-7.982 4.455-14.923 11.014-18.474a20.904 20.904 0 0 0-9.98-2.521c-11.595 0-20.995 9.4-20.995 20.995s9.4 20.995 20.995 20.995zM365.49 88.884c0-7.982 4.455-14.923 11.014-18.474a20.905 20.905 0 0 0-9.981-2.521c-11.595 0-20.995 9.4-20.995 20.995s9.4 20.995 20.995 20.995c3.613 0 7.012-.914 9.981-2.521-6.559-3.551-11.014-10.491-11.014-18.474zM344.247 161.809l32.257-39.659-9.98-12.271-42.237 51.93 42.237 51.93 9.98-12.271z"/></g><circle cx="477.043" cy="50.4" r="27.457" fill="#ffe477"/><g fill="#ffb655"><path d="M474.521 50.398c0-10.674 6.095-19.918 14.99-24.461a27.331 27.331 0 0 0-12.467-2.996c-15.164 0-27.457 12.293-27.457 27.457s12.293 27.457 27.457 27.457c4.49 0 8.725-1.085 12.467-2.996-8.897-4.543-14.99-13.787-14.99-24.461zM32.434 50.398c0-10.674 6.095-19.918 14.99-24.461a27.331 27.331 0 0 0-12.467-2.996C19.793 22.941 7.5 35.234 7.5 50.398s12.293 27.457 27.457 27.457c4.49 0 8.725-1.085 12.467-2.996-8.897-4.543-14.99-13.787-14.99-24.461zM253.481 50.398c0-10.674 6.095-19.918 14.99-24.461a27.331 27.331 0 0 0-12.467-2.996c-15.164 0-27.457 12.293-27.457 27.457s12.293 27.457 27.457 27.457c4.49 0 8.725-1.085 12.467-2.996-8.897-4.543-14.99-13.787-14.99-24.461z"/></g><g fill="#fff"><path d="M313.922 205.568l11.637-9.465 9.465 11.637-11.637 9.465zM307.614 197.811l-57.427-70.605 11.637-9.465 57.427 70.605zM341.353 215.488l9.465 11.637-11.637 9.465-9.465-11.637zM442.504 145.879h15v15h-15zM442.504 170.878h15v15h-15zM442.504 195.878h15v65.329h-15zM390.005 415.825h15v15h-15zM277.006 415.825h102.999v15H277.006zM415.004 415.825h15v15h-15z"/></g><g fill="#1d1d1f"><path d="M121.798 415.825h15v15h-15zM71.795 415.825h15v15h-15zM96.799 415.825h15v15h-15zM454.834 413.665h15v19.32h-15zM42.179 413.665h15v19.32h-15zM27.457 496.559H484.55v-58.45H27.457v58.45zm14.999-43.45H469.55v28.451H42.456v-28.451zM75.086 285.205l37.049 45.551 37.051-45.551-37.051-45.551-37.049 45.551zm37.049 21.779l-17.715-21.78 17.715-21.78 17.716 21.78-17.716 21.78zM362.821 285.205l37.051 45.551 37.049-45.551-37.049-45.551-37.051 45.551zm37.051 21.779l-17.716-21.78 17.716-21.78 17.715 21.78-17.715 21.78zM188.207 285.205l67.794 83.352 67.797-83.352-67.797-83.352-67.794 83.352zm60.296 7.499v42.859l-34.86-42.859h34.86zm-34.86-14.999l34.86-42.859v42.859h-34.86zm49.859 14.999h34.862l-34.862 42.86v-42.86zm0-14.999v-42.859l34.862 42.859h-34.862z"/><path d="M512 50.398c0-19.275-15.682-34.957-34.957-34.957s-34.957 15.682-34.957 34.957c0 14.477 8.846 26.925 21.417 32.227l-96.98 119.229-96.98-119.229c12.57-5.302 21.416-17.75 21.416-32.227 0-19.275-15.682-34.957-34.957-34.957s-34.957 15.682-34.957 34.957c0 14.473 8.842 26.919 21.406 32.223l-96.979 119.232L48.501 82.622c12.568-5.303 21.411-17.75 21.411-32.225 0-19.275-15.682-34.957-34.957-34.957C15.682 15.441 0 31.123 0 50.398c0 16.701 11.775 30.695 27.457 34.138V408.54H484.55V84.533C500.228 81.088 512 67.096 512 50.398zm-275.953 0c0-11.004 8.953-19.957 19.957-19.957 11.004 0 19.957 8.953 19.957 19.957s-8.953 19.957-19.957 19.957c-11.004 0-19.957-8.953-19.957-19.957zM15 50.398c0-11.004 8.953-19.957 19.957-19.957s19.957 8.953 19.957 19.957-8.954 19.957-19.957 19.957C23.953 70.355 15 61.402 15 50.398zM450.501 393.54v-36.87h-15v36.87H42.456v-29.37h42.296v-15H42.456V98.962l103.019 126.663L255.997 89.74l110.526 135.884L469.551 98.96v294.58h-19.05zm26.542-323.185c-11.004 0-19.957-8.953-19.957-19.957s8.953-19.957 19.957-19.957S497 39.394 497 50.398s-8.953 19.957-19.957 19.957z"/><path d="M342.994 150.694l23.53-28.93 23.531 28.93 11.637-9.465-22.023-27.076c9.112-4.759 15.35-14.297 15.35-25.27 0-15.712-12.783-28.495-28.495-28.495s-28.495 12.783-28.495 28.495c0 10.973 6.238 20.51 15.35 25.27l-22.023 27.076 11.638 9.465zm23.53-75.304c7.441 0 13.495 6.054 13.495 13.495s-6.054 13.495-13.495 13.495c-7.441 0-13.495-6.054-13.495-13.495 0-7.442 6.054-13.495 13.495-13.495zM121.945 150.691l23.528-28.927 23.531 28.929 11.637-9.465-22.023-27.075c9.113-4.759 15.351-14.297 15.351-25.27 0-15.712-12.783-28.495-28.495-28.495s-28.495 12.783-28.495 28.495c0 10.973 6.238 20.51 15.35 25.269l-22.021 27.073 11.637 9.466zm23.529-75.301c7.441 0 13.495 6.054 13.495 13.495s-6.054 13.495-13.495 13.495c-7.441 0-13.495-6.054-13.495-13.495 0-7.442 6.054-13.495 13.495-13.495z"/></g></svg>