<svg xmlns="http://www.w3.org/2000/svg" viewBox="0 0 512 512"><g fill="#898890"><path d="M45 25.844h26.49v54.35H45zM440.51 25.844H467v54.35h-26.49z"/></g><path d="M278.653 34.547v36.946h-45.307V34.547h45.307zm-207.163 0v36.946h25.937V34.547H71.49zm71.244 0v36.946h45.307V34.547h-45.307zm271.839 0v36.946h25.937V34.547h-25.937zm-90.613 0v36.946h45.306V34.547H323.96z" fill="#c6c5ca"/><g fill="#898890"><path d="M233.35 34.547h16v36.946h-16zM142.73 34.547h16v36.946h-16zM71.49 34.547h16v36.946h-16zM323.96 34.547h16v36.946h-16zM414.57 34.547h16v36.946h-16z"/></g><path fill="#ff7956" d="M369.266 34.547v36.946H323.96V34.547h-45.307v36.946h-45.306V34.547H188.04v36.946h-45.306V34.547H97.427v451.609h45.307v-36.945h45.306v36.945h45.307v-36.945h45.306v36.945h45.307v-36.945h45.306v36.945h45.307V34.547z"/><g fill="#ff3f62"><path d="M350.061 233.23l-63.976 13.037 13.036-63.976h-54.242l13.036 63.975-63.976-13.036v54.243l63.976-13.036-13.036 63.976h54.242l-13.037-63.977 63.977 13.037zM219.463 150.72l-30.034 3.299 3.298-30.034h-28.469l4.184 30.034-30.919-3.299v28.469l30.92-3.298-4.185 30.034h28.469l-3.299-30.034 30.035 3.298zM324.537 150.72l30.034 3.299-3.298-30.034h28.469l-4.184 30.034 30.92-3.299v28.469l-30.921-3.298 4.185 30.034h-28.469l3.299-30.034-30.035 3.298zM219.463 342.004l-30.034 3.299 3.298-30.034h-28.469l4.184 30.034-30.919-3.299v28.469l30.92-3.298-4.185 30.034h28.469l-3.299-30.034 30.035 3.298zM324.537 342.004l30.034 3.299-3.298-30.034h28.469l-4.184 30.034 30.92-3.299v28.469l-30.921-3.298 4.185 30.034h-28.469l3.299-30.034-30.035 3.298zM188.04 34.547h22.653v36.946H188.04zM278.65 34.547h22.653v36.946H278.65zM369.27 34.547h22.653v36.946H369.27zM369.27 449.21h22.653v36.946H369.27zM97.43 34.547h22.653v451.61H97.43zM278.65 449.21h22.653v36.946H278.65zM188.04 449.21h22.653v36.946H188.04z"/></g><path fill="#ffe477" d="M334.061 233.23l-63.976 13.037 13.036-63.976h-54.242l13.036 63.975-63.976-13.036v54.243l63.976-13.036-13.036 63.976h54.242l-13.037-63.977 63.977 13.037z"/><g fill="#ff7956"><path d="M259.938 246.266l-13.036-63.975h-18.023l12.255 60.144zM288.109 246.267l45.952-9.364v-3.673l-45.171 9.205zM195.963 236.903l-18.024-3.673v54.243l18.024-3.673zM288.108 274.436l.781 3.832 45.172 9.205V283.8zM241.135 278.269l-12.256 60.144h18.023l13.037-63.976z"/></g><g fill="#ffe477"><path d="M203.463 150.72l-30.034 3.299 3.298-30.034h-28.469l4.184 30.034-30.919-3.299v28.469l30.92-3.298-4.185 30.034h28.469l-3.299-30.034 30.035 3.298zM308.537 150.72l30.034 3.299-3.298-30.034h28.469l-4.184 30.034 30.92-3.299v28.469l-30.921-3.298 4.185 30.034h-28.469l3.299-30.034-30.035 3.298zM203.463 342.004l-30.034 3.299 3.298-30.034h-28.469l4.184 30.034-30.919-3.299v28.469l30.92-3.298-4.185 30.034h28.469l-3.299-30.034 30.035 3.298zM308.537 342.004l30.034 3.299-3.298-30.034h28.469l-4.184 30.034 30.92-3.299v28.469l-30.921-3.298 4.185 30.034h-28.469l3.299-30.034-30.035 3.298z"/></g><g fill="#fff"><path d="M283 88.54h15v15h-15zM333 88.54h61.33v15H333zM308 88.54h15v15h-15z"/></g><g fill="#1d1d1f"><path d="M37.5 45.52H30v-15H15v15H0v15h15v15h15v-15h7.5v27.176h41.49V18.344H37.5V45.52zm15-12.176h11.49v39.353H52.5V33.344zM512 45.52h-15v-15h-15v15h-7.5V18.344h-41.49v69.353h41.49V60.52h7.5v15h15v-15h15v-15zm-52.5 27.176h-11.49V33.344h11.49v39.352zM245.85 27.05h20.307v15H245.85zM336.46 27.05h20.307v15H336.46zM155.23 27.05h20.307v15H155.23z"/><path d="M361.767 63.993H331.46V27.047h-60.307v36.945h-30.307V27.047H180.54v36.945h-30.307V27.047H89.927v466.609h60.307V456.71h30.307v36.946h60.307V456.71h30.307v36.946h60.307V456.71h30.307v36.946h60.307V27.047h-60.307v36.946h-.002zm15-21.946h30.307v372.494h-41.406v15h41.406v49.115h-30.307V441.71H316.46v36.946h-30.307V441.71h-60.307v36.946H195.54V441.71h-60.307v36.946h-30.307V103.541h151.07v-15h-151.07V42.047h30.307v36.945h60.307V42.047h30.307v36.945h60.307V42.047h30.307v36.945h60.307V42.047h-.001z"/><path d="M341.561 296.656v-72.608l-61.862 12.606 12.605-61.863h-72.607l12.605 61.862-61.862-12.605v72.607l61.862-12.606-12.605 61.863h72.607l-12.606-61.863 61.863 12.607zm-103.499 34.257l13.467-66.088-66.089 13.467v-35.878l66.087 13.466-13.465-66.088h35.877l-13.467 66.089 66.089-13.467v35.877l-66.09-13.468 13.468 66.09h-35.877z"/><path d="M139.641 213.425h45.456l-3.191-29.058 29.058 3.191v-45.207l-29.058 3.191 3.191-29.058h-45.456l4.048 29.058-29.666-3.165v45.155l29.666-3.165-4.048 29.058zm-10.619-42.578v-11.784l32.174 3.432-4.321-31.01h11.483l-3.406 31.01 31.011-3.406v11.732l-31.011-3.406 3.406 31.01h-11.483l4.321-31.01-32.174 3.432zM301.037 142.352v45.207l29.058-3.191-3.191 29.058h45.456l-4.048-29.057 29.666 3.165v-45.155l-29.666 3.165 4.048-29.058h-45.456l3.191 29.058-29.058-3.192zm54.088-10.867l-4.321 31.01 32.174-3.432v11.784l-32.174-3.432 4.321 31.01h-11.483l3.406-31.01-31.011 3.406v-11.732l31.011 3.406-3.406-31.01h11.483zM185.097 307.769h-45.456l4.048 29.058-29.666-3.165v45.155l29.666-3.165-4.048 29.057h45.456l-3.191-29.058 29.058 3.191v-45.207l-29.058 3.191 3.191-29.057zm10.866 42.604v11.732l-31.011-3.406 3.406 31.01h-11.483l4.321-31.01-32.174 3.432v-11.784l32.174 3.432-4.321-31.01h11.483l-3.406 31.01 31.011-3.406zM372.359 307.769h-45.456l3.191 29.058-29.058-3.191v45.207l29.058-3.191-3.191 29.058h45.456l-4.048-29.057 29.666 3.165v-45.155l-29.666 3.165 4.048-29.059zm10.619 42.578v11.784l-32.174-3.432 4.321 31.01h-11.483l3.406-31.01-31.011 3.406v-11.732l31.011 3.406-3.406-31.01h11.483l-4.321 31.01 32.174-3.432zM444.58 100.97h15v160.86h-15zM444.58 271.84h15v15h-15zM444.58 296.84h15v15h-15zM472 100.97h15v81.57h-15zM52.42 296.84h15v15h-15zM52.42 271.84h15v15h-15zM52.42 100.97h15v160.86h-15zM25 100.97h15v81.57H25z"/></g></svg>