<?xml version="1.0" encoding="iso-8859-1"?>
<!-- Generator: Adobe Illustrator 19.0.0, SVG Export Plug-In . SVG Version: 6.00 Build 0)  -->
<svg version="1.1" id="Capa_1" xmlns="http://www.w3.org/2000/svg" xmlns:xlink="http://www.w3.org/1999/xlink" x="0px" y="0px"
	 viewBox="0 0 512 512" style="enable-background:new 0 0 512 512;" xml:space="preserve">
<g>
	<rect x="45" y="25.844" style="fill:#898890;" width="26.49" height="54.35"/>
	<rect x="440.51" y="25.844" style="fill:#898890;" width="26.49" height="54.35"/>
</g>
<path style="fill:#C6C5CA;" d="M278.653,34.547v36.946h-45.307V34.547H278.653z M71.49,34.547v36.946h25.937V34.547H71.49z
	 M142.734,34.547v36.946h45.307V34.547H142.734z M414.573,34.547v36.946h25.937V34.547H414.573z M323.96,34.547v36.946h45.306
	V34.547H323.96z"/>
<g>
	<rect x="233.35" y="34.547" style="fill:#898890;" width="16" height="36.946"/>
	<rect x="142.73" y="34.547" style="fill:#898890;" width="16" height="36.946"/>
	<rect x="71.49" y="34.547" style="fill:#898890;" width="16" height="36.946"/>
	<rect x="323.96" y="34.547" style="fill:#898890;" width="16" height="36.946"/>
	<rect x="414.57" y="34.547" style="fill:#898890;" width="16" height="36.946"/>
</g>
<polygon style="fill:#FF7956;" points="369.266,34.547 369.266,71.493 323.96,71.493 323.96,34.547 278.653,34.547 278.653,71.493 
	233.347,71.493 233.347,34.547 188.04,34.547 188.04,71.493 142.734,71.493 142.734,34.547 97.427,34.547 97.427,486.156 
	142.734,486.156 142.734,449.211 188.04,449.211 188.04,486.156 233.347,486.156 233.347,449.211 278.653,449.211 278.653,486.156 
	323.96,486.156 323.96,449.211 369.266,449.211 369.266,486.156 414.573,486.156 414.573,34.547 "/>
<g>
	<polygon style="fill:#FF3F62;" points="350.061,233.23 286.085,246.267 299.121,182.291 244.879,182.291 257.915,246.266 
		193.939,233.23 193.939,287.473 257.915,274.437 244.879,338.413 299.121,338.413 286.084,274.436 350.061,287.473 	"/>
	<polygon style="fill:#FF3F62;" points="219.463,150.72 189.429,154.019 192.727,123.985 164.258,123.985 168.442,154.019 
		137.523,150.72 137.523,179.189 168.443,175.891 164.258,205.925 192.727,205.925 189.428,175.891 219.463,179.189 	"/>
	<polygon style="fill:#FF3F62;" points="324.537,150.72 354.571,154.019 351.273,123.985 379.742,123.985 375.558,154.019 
		406.478,150.72 406.478,179.189 375.557,175.891 379.742,205.925 351.273,205.925 354.572,175.891 324.537,179.189 	"/>
	<polygon style="fill:#FF3F62;" points="219.463,342.004 189.429,345.303 192.727,315.269 164.258,315.269 168.442,345.303 
		137.523,342.004 137.523,370.473 168.443,367.175 164.258,397.209 192.727,397.209 189.428,367.175 219.463,370.473 	"/>
	<polygon style="fill:#FF3F62;" points="324.537,342.004 354.571,345.303 351.273,315.269 379.742,315.269 375.558,345.303 
		406.478,342.004 406.478,370.473 375.557,367.175 379.742,397.209 351.273,397.209 354.572,367.175 324.537,370.473 	"/>
	<rect x="188.04" y="34.547" style="fill:#FF3F62;" width="22.653" height="36.946"/>
	<rect x="278.65" y="34.547" style="fill:#FF3F62;" width="22.653" height="36.946"/>
	<rect x="369.27" y="34.547" style="fill:#FF3F62;" width="22.653" height="36.946"/>
	<rect x="369.27" y="449.21" style="fill:#FF3F62;" width="22.653" height="36.946"/>
	<rect x="97.43" y="34.547" style="fill:#FF3F62;" width="22.653" height="451.61"/>
	<rect x="278.65" y="449.21" style="fill:#FF3F62;" width="22.653" height="36.946"/>
	<rect x="188.04" y="449.21" style="fill:#FF3F62;" width="22.653" height="36.946"/>
</g>
<polygon style="fill:#FFE477;" points="334.061,233.23 270.085,246.267 283.121,182.291 228.879,182.291 241.915,246.266 
	177.939,233.23 177.939,287.473 241.915,274.437 228.879,338.413 283.121,338.413 270.084,274.436 334.061,287.473 "/>
<g>
	<polygon style="fill:#FF7956;" points="259.938,246.266 246.902,182.291 228.879,182.291 241.134,242.435 	"/>
	<polygon style="fill:#FF7956;" points="288.109,246.267 334.061,236.903 334.061,233.23 288.89,242.435 	"/>
	<polygon style="fill:#FF7956;" points="195.963,236.903 177.939,233.23 177.939,287.473 195.963,283.8 	"/>
	<polygon style="fill:#FF7956;" points="288.108,274.436 288.889,278.268 334.061,287.473 334.061,283.8 	"/>
	<polygon style="fill:#FF7956;" points="241.135,278.269 228.879,338.413 246.902,338.413 259.939,274.437 	"/>
</g>
<g>
	<polygon style="fill:#FFE477;" points="203.463,150.72 173.429,154.019 176.727,123.985 148.258,123.985 152.442,154.019 
		121.523,150.72 121.523,179.189 152.443,175.891 148.258,205.925 176.727,205.925 173.428,175.891 203.463,179.189 	"/>
	<polygon style="fill:#FFE477;" points="308.537,150.72 338.571,154.019 335.273,123.985 363.742,123.985 359.558,154.019 
		390.478,150.72 390.478,179.189 359.557,175.891 363.742,205.925 335.273,205.925 338.572,175.891 308.537,179.189 	"/>
	<polygon style="fill:#FFE477;" points="203.463,342.004 173.429,345.303 176.727,315.269 148.258,315.269 152.442,345.303 
		121.523,342.004 121.523,370.473 152.443,367.175 148.258,397.209 176.727,397.209 173.428,367.175 203.463,370.473 	"/>
	<polygon style="fill:#FFE477;" points="308.537,342.004 338.571,345.303 335.273,315.269 363.742,315.269 359.558,345.303 
		390.478,342.004 390.478,370.473 359.557,367.175 363.742,397.209 335.273,397.209 338.572,367.175 308.537,370.473 	"/>
</g>
<g>
	<rect x="283" y="88.54" style="fill:#FFFFFF;" width="15" height="15"/>
	<rect x="333" y="88.54" style="fill:#FFFFFF;" width="61.33" height="15"/>
	<rect x="308" y="88.54" style="fill:#FFFFFF;" width="15" height="15"/>
</g>
<g>
	<path style="fill:#1D1D1F;" d="M37.5,45.52H30v-15H15v15H0v15h15v15h15v-15h7.5v27.176h41.49V18.344H37.5V45.52z M52.5,33.344
		h11.49v39.353H52.5V33.344z"/>
	<path style="fill:#1D1D1F;" d="M512,45.52h-15v-15h-15v15h-7.5V18.344h-41.49v69.353h41.49V60.52h7.5v15h15v-15h15V45.52z
		 M459.5,72.696h-11.49V33.344h11.49V72.696z"/>
	<rect x="245.85" y="27.05" style="fill:#1D1D1F;" width="20.307" height="15"/>
	<rect x="336.46" y="27.05" style="fill:#1D1D1F;" width="20.307" height="15"/>
	<rect x="155.23" y="27.05" style="fill:#1D1D1F;" width="20.307" height="15"/>
	<path style="fill:#1D1D1F;" d="M361.767,63.993H331.46V27.047h-60.307v36.945h-30.307V27.047H180.54v36.945h-30.307V27.047H89.927
		v466.609h60.307V456.71h30.307v36.946h60.307V456.71h30.307v36.946h60.307V456.71h30.307v36.946h60.307V27.047h-60.307v36.946
		H361.767z M376.767,42.047h30.307v372.494h-41.406v15h41.406v49.115h-30.307V441.71H316.46v36.946h-30.307V441.71h-60.307v36.946
		H195.54V441.71h-60.307v36.946h-30.307V103.541h151.07v-15h-151.07V42.047h30.307v36.945h60.307V42.047h30.307v36.945h60.307
		V42.047h30.307v36.945h60.307V42.047H376.767z"/>
	<path style="fill:#1D1D1F;" d="M341.561,296.656v-72.608l-61.862,12.606l12.605-61.863h-72.607l12.605,61.862l-61.862-12.605
		v72.607l61.862-12.606l-12.605,61.863h72.607l-12.606-61.863L341.561,296.656z M238.062,330.913l13.467-66.088l-66.089,13.467
		v-35.878l66.087,13.466l-13.465-66.088h35.877l-13.467,66.089l66.089-13.467v35.877l-66.09-13.468l13.468,66.09L238.062,330.913
		L238.062,330.913z"/>
	<path style="fill:#1D1D1F;" d="M139.641,213.425h45.456l-3.191-29.058l29.058,3.191v-45.207l-29.058,3.191l3.191-29.058h-45.456
		l4.048,29.058l-29.666-3.165v45.155l29.666-3.165L139.641,213.425z M129.022,170.847v-11.784l32.174,3.432l-4.321-31.01h11.483
		l-3.406,31.01l31.011-3.406v11.732l-31.011-3.406l3.406,31.01h-11.483l4.321-31.01L129.022,170.847z"/>
	<path style="fill:#1D1D1F;" d="M301.037,142.352v45.207l29.058-3.191l-3.191,29.058h45.456l-4.048-29.057l29.666,3.165v-45.155
		l-29.666,3.165l4.048-29.058h-45.456l3.191,29.058L301.037,142.352z M355.125,131.485l-4.321,31.01l32.174-3.432v11.784
		l-32.174-3.432l4.321,31.01h-11.483l3.406-31.01l-31.011,3.406v-11.732l31.011,3.406l-3.406-31.01H355.125z"/>
	<path style="fill:#1D1D1F;" d="M185.097,307.769h-45.456l4.048,29.058l-29.666-3.165v45.155l29.666-3.165l-4.048,29.057h45.456
		l-3.191-29.058l29.058,3.191v-45.207l-29.058,3.191L185.097,307.769z M195.963,350.373v11.732l-31.011-3.406l3.406,31.01h-11.483
		l4.321-31.01l-32.174,3.432v-11.784l32.174,3.432l-4.321-31.01h11.483l-3.406,31.01L195.963,350.373z"/>
	<path style="fill:#1D1D1F;" d="M372.359,307.769h-45.456l3.191,29.058l-29.058-3.191v45.207l29.058-3.191l-3.191,29.058h45.456
		l-4.048-29.057l29.666,3.165v-45.155l-29.666,3.165L372.359,307.769z M382.978,350.347v11.784l-32.174-3.432l4.321,31.01h-11.483
		l3.406-31.01l-31.011,3.406v-11.732l31.011,3.406l-3.406-31.01h11.483l-4.321,31.01L382.978,350.347z"/>
	<rect x="444.58" y="100.97" style="fill:#1D1D1F;" width="15" height="160.86"/>
	<rect x="444.58" y="271.84" style="fill:#1D1D1F;" width="15" height="15"/>
	<rect x="444.58" y="296.84" style="fill:#1D1D1F;" width="15" height="15"/>
	<rect x="472" y="100.97" style="fill:#1D1D1F;" width="15" height="81.57"/>
	<rect x="52.42" y="296.84" style="fill:#1D1D1F;" width="15" height="15"/>
	<rect x="52.42" y="271.84" style="fill:#1D1D1F;" width="15" height="15"/>
	<rect x="52.42" y="100.97" style="fill:#1D1D1F;" width="15" height="160.86"/>
	<rect x="25" y="100.97" style="fill:#1D1D1F;" width="15" height="81.57"/>
</g>
<g>
</g>
<g>
</g>
<g>
</g>
<g>
</g>
<g>
</g>
<g>
</g>
<g>
</g>
<g>
</g>
<g>
</g>
<g>
</g>
<g>
</g>
<g>
</g>
<g>
</g>
<g>
</g>
<g>
</g>
</svg>
