<svg xmlns="http://www.w3.org/2000/svg" viewBox="0 0 512 512"><path d="M347.658 211.402V84.522H229.652v126.883a166.61 166.61 0 0 0-20.94 9.593c-3.123-39.42-36.078-70.443-76.301-70.443-42.287 0-76.567 34.28-76.567 76.567s34.28 76.567 76.567 76.567c.555 0 1.102-.03 1.653-.042-8.307 19.867-12.902 41.672-12.902 64.553 0 56.192 27.674 105.917 70.132 136.301h194.729c42.458-30.384 70.132-80.109 70.132-136.301 0-71.738-45.104-132.932-108.497-156.798zM132.41 270.166c-23.773 0-43.044-19.272-43.044-43.045s19.272-43.044 43.044-43.044 43.044 19.272 43.044 43.044c.001 23.773-19.27 43.045-43.044 43.045z" fill="#b3d8f4"/><g fill="#57a4ff"><path d="M449.603 337.686c-24.481-6.413-23.24-16.054-48.547-16.054-25.308 0-25.308 16.31-50.616 16.31-25.307 0-25.307-16.31-50.614-16.31-25.311 0-25.311 16.31-50.621 16.31s-28.203-22.457-52.688-16.043c-5.396 14.42-8.354 30.021-8.354 46.301 0 39.1 17.43 76.229 47.101 101.301h170.791c29.671-25.073 47.101-62.202 47.101-101.301a132.364 132.364 0 0 0-3.553-30.514zM146.229 267.886a42.953 42.953 0 0 0 13.819 2.28c23.773 0 43.044-19.272 43.044-43.045s-19.272-43.044-43.044-43.044c-4.836 0-9.48.809-13.819 2.28 16.991 5.759 29.226 21.828 29.226 40.765 0 18.936-12.235 35.005-29.226 40.764z"/><path d="M148.799 368.199c0-22.881 4.595-44.687 12.902-64.553-.552.012-1.099.042-1.653.042-42.287 0-76.567-34.28-76.567-76.567 0-37.573 27.071-68.802 62.768-75.303a76.953 76.953 0 0 0-13.839-1.264c-42.287 0-76.567 34.28-76.567 76.567s34.28 76.567 76.567 76.567c.555 0 1.102-.03 1.653-.042-8.307 19.867-12.902 41.672-12.902 64.553 0 56.192 27.674 105.917 70.132 136.301h27.638c-42.458-30.384-70.132-80.109-70.132-136.301zM236.35 220.998a166.74 166.74 0 0 1 20.94-9.593V84.522h-27.638v110.75a76.164 76.164 0 0 1 6.698 25.726z"/></g><g fill="#ffb655"><path d="M253.649 7.5h70.01V53h-70.01zM253.649 84.52h70.01v45.5h-70.01z"/></g><g fill="#ff7956"><path d="M253.649 7.5h22.485V53h-22.485zM253.649 84.52h22.485v45.5h-22.485z"/></g><path fill="#78b9eb" d="M213.899 53h149.51v31.522h-149.51z"/><path fill="#006df0" d="M213.899 53h45.715v31.522h-45.715z"/><path d="M417.603 337.686c-24.481-6.413-23.24-16.054-48.547-16.054-25.308 0-25.308 16.31-50.616 16.31-25.307 0-25.307-16.31-50.614-16.31-25.311 0-25.311 16.31-50.621 16.31s-28.203-22.457-52.688-16.043c-5.396 14.42-8.354 30.021-8.354 46.301 0 39.1 17.43 76.229 47.101 101.301h170.791c29.671-25.073 47.101-62.202 47.101-101.301a132.364 132.364 0 0 0-3.553-30.514z" fill="#ff7956"/><path d="M211.048 368.199c0-10.441 1.223-20.6 3.519-30.35-22.901-1.493-26.445-22.134-50.05-15.951-5.396 14.42-8.354 30.021-8.354 46.301 0 39.1 17.43 76.229 47.101 101.301h54.885c-29.672-25.072-47.101-62.201-47.101-101.301z" fill="#ff3f62"/><g fill="#fff"><path d="M363.943 250.125a140.194 140.194 0 0 0-13.82-7.747l-6.58 13.48a124.946 124.946 0 0 1 12.334 6.913l8.066-12.646zM390.937 296.329l12.262-8.641c-8.543-12.122-18.828-22.735-30.57-31.546l-9.002 11.998c10.483 7.868 19.673 17.352 27.31 28.189zM334.914 252.04l5.553-13.934c-.828-.33-1.661-.652-2.497-.968l-11.669-4.393-5.285 14.039 11.669 4.392c.746.282 1.489.569 2.229.864zM354.623 429.4l10.998 10.199a105.44 105.44 0 0 0 14.521-19.885l-13.066-7.367a90.398 90.398 0 0 1-12.453 17.053zM377.594 381.994l14.824 2.295a105.586 105.586 0 0 0 1.236-16.09h-15c0 4.611-.356 9.251-1.06 13.795zM371.187 404.091l13.754 5.988a105.15 105.15 0 0 0 5.284-15.25l-14.51-3.805a89.847 89.847 0 0 1-4.528 13.067z"/></g><g fill="#1d1d1f"><path d="M259.619 426h15v15h-15zM234.619 426h15v15h-15zM209.619 426h15v15h-15zM306.119 372h15v15h-15zM331.119 372h15v15h-15zM281.119 372h15v15h-15zM268.639 22.75h15v15h-15zM293.639 22.75h15v15h-15zM273.649 98h15v15h-15z"/><path d="M261.151 15h55.007v18h15V0h-85.007v33h15zM316.158 104.522v18h-55.007v-18h-15v33h85.007v-33zM424.901 335.958l-1.038-4.385-4.359-1.142c-9.313-2.439-14.377-5.31-19.274-8.086-7.454-4.224-14.494-8.214-31.174-8.214-14.861 0-22.569 4.968-29.37 9.351-6.033 3.888-10.799 6.959-21.246 6.959-10.445 0-15.211-3.071-21.244-6.959-6.801-4.383-14.509-9.351-29.37-9.351-14.862 0-22.571 4.968-29.373 9.351-6.034 3.888-10.8 6.959-21.248 6.959-9.393 0-14.711-3.724-20.868-8.035-7.687-5.381-17.247-12.079-33.72-7.763l-3.761.984-1.363 3.642c-5.859 15.657-8.83 32.119-8.83 48.93 0 41.297 18.137 80.308 49.76 107.029L200.52 477h176.279l2.097-1.771c31.623-26.723 49.76-65.733 49.76-107.029a140.16 140.16 0 0 0-3.755-32.242zM371.265 462H206.052c-26.974-23.8-42.39-57.831-42.39-93.801 0-13.626 2.185-26.992 6.499-39.792 7.257-.925 11.354 1.934 17.571 6.287 6.839 4.788 15.351 10.747 29.472 10.747 14.862 0 22.571-4.968 29.373-9.351 6.034-3.888 10.8-6.959 21.248-6.959 10.446 0 15.212 3.071 21.245 6.959 6.801 4.383 14.509 9.351 29.369 9.351 14.861 0 22.57-4.968 29.371-9.351 6.033-3.888 10.799-6.959 21.245-6.959 12.725 0 17.122 2.492 23.777 6.264 4.464 2.53 9.865 5.591 18.398 8.264a125.358 125.358 0 0 1 2.423 24.54c.001 35.969-15.415 70-42.388 93.801z"/><path d="M431.81 267.529c-19.357-27.473-45.78-48.56-76.651-61.235V180h6.383v-15h-6.383V92.022h15.75V45.5H206.401v46.522h15.75V165h-6.383v15h6.383v26.3a174.056 174.056 0 0 0-7.527 3.31c-3.567-16.842-12.243-32.221-25.047-44.111-15.584-14.473-35.886-22.443-57.167-22.443-46.354 0-84.066 37.712-84.066 84.066 0 43.287 32.89 79.039 74.991 83.58-6.424 18.435-9.674 37.728-9.674 57.498 0 56.336 27.39 109.569 73.269 142.4l1.957 1.4H388.43l1.957-1.4c45.878-32.831 73.268-86.064 73.268-142.4-.001-36.293-11.012-71.104-31.845-100.671zM221.401 77.022V60.5h134.507v16.522h-.75v-.001H222.151v.001h-.75zm15.75 15h103.007V165H237.151V92.022zM383.585 497H193.731c-40.792-30.12-65.07-78.086-65.07-128.801 0-21.36 4.146-42.105 12.322-61.659l4.447-10.637-11.526.245-.71.021c-.261.009-.521.019-.784.019-38.083 0-69.066-30.983-69.066-69.066s30.983-69.066 69.066-69.066c35.771 0 66.002 27.908 68.824 63.536l.913 11.52 10.149-5.525a159.993 159.993 0 0 1 18.785-8.681h50.073v-15h-44.003V180h103.007v36.593l4.857 1.828c61.989 23.338 103.639 83.528 103.639 149.778 0 50.715-24.277 98.681-65.069 128.801z"/><path d="M182.954 227.121c0-27.87-22.674-50.545-50.544-50.545s-50.544 22.675-50.544 50.545 22.674 50.545 50.544 50.545 50.544-22.675 50.544-50.545zm-50.544 35.545c-19.599 0-35.544-15.945-35.544-35.545s15.945-35.545 35.544-35.545 35.544 15.945 35.544 35.545-15.945 35.545-35.544 35.545z"/></g></svg>