<?xml version="1.0" encoding="iso-8859-1"?>
<!-- Generator: Adobe Illustrator 19.0.0, SVG Export Plug-In . SVG Version: 6.00 Build 0)  -->
<svg version="1.1" id="Capa_1" xmlns="http://www.w3.org/2000/svg" xmlns:xlink="http://www.w3.org/1999/xlink" x="0px" y="0px"
	 viewBox="0 0 512 512" style="enable-background:new 0 0 512 512;" xml:space="preserve">
<path style="fill:#57A4FF;" d="M115.005,7.488c-10.537,10.537-16.446,16.446-26.983,26.983V422.56l26.983,26.983h26.355v-52.481
	h65.406v52.481H423.98V7.488H115.005z"/>
<g>
	<path style="fill:#006DF0;" d="M123.633,422.56V34.472c10.537-10.537,16.446-16.446,26.983-26.982h-35.612
		c-10.537,10.536-16.446,16.445-26.983,26.982V422.56l26.983,26.982h26.355v-9.256L123.633,422.56z"/>
	<rect x="206.76" y="397.058" style="fill:#006DF0;" width="35.612" height="52.482"/>
</g>
<polygon style="fill:#FF7956;" points="206.765,499.417 174.062,481.768 141.36,499.417 141.36,397.061 206.765,397.061 "/>
<polygon style="fill:#FF3F62;" points="162.929,397.061 141.36,397.061 141.36,499.417 162.929,487.777 "/>
<polygon style="fill:#FFDAAA;" points="115.005,344.579 88.021,371.562 88.021,422.56 115.005,449.542 141.36,449.542 
	141.36,397.061 206.765,397.061 206.765,449.542 423.979,449.542 423.979,344.579 "/>
<g>
	<polygon style="fill:#FF9478;" points="117.1,422.56 117.1,371.562 144.083,344.579 115.005,344.579 88.021,371.562 88.021,422.56 
		115.005,449.542 141.36,449.542 141.36,446.819 	"/>
	<rect x="206.76" y="397.058" style="fill:#FF9478;" width="29.081" height="52.482"/>
</g>
<g>
	<path style="fill:#1D1D1F;" d="M111.898,0L80.521,31.376v394.302l31.376,31.376h9.46v-15.001h-3.248l-22.589-22.589V374.68
		l22.589-22.589h298.367v9.425h-297.32v15.001h297.322v13.056H315.372v15.001h101.107v13.056H214.265v-13.056h74.736v-15.001
		H119.157v15.001h14.703v13.056h-14.703v15.001h14.703V512l40.203-21.697L214.265,512v-79.371h202.213v9.425H226.766v15.001h204.713
		V0H111.898z M199.264,486.858l-25.202-13.602l-25.202,13.602v-82.285h26.341v41.114h15.001v-41.114h9.063L199.264,486.858
		L199.264,486.858z M111.898,337.09l-16.376,16.376V37.59L117.1,16.012v193.998H132.1V15.001h284.378V337.09H111.898z"/>
	<rect x="245.632" y="258.182" style="fill:#1D1D1F;" width="101.875" height="15.001"/>
	<rect x="220.63" y="258.182" style="fill:#1D1D1F;" width="15.001" height="15.001"/>
	<rect x="195.629" y="258.182" style="fill:#1D1D1F;" width="15.001" height="15.001"/>
	<rect x="263.802" y="292.393" style="fill:#1D1D1F;" width="15.001" height="15.001"/>
	<rect x="238.801" y="292.393" style="fill:#1D1D1F;" width="15.001" height="15.001"/>
	<rect x="213.8" y="292.393" style="fill:#1D1D1F;" width="15.001" height="15.001"/>
	<rect x="313.805" y="292.393" style="fill:#1D1D1F;" width="15.001" height="15.001"/>
	<rect x="288.803" y="292.393" style="fill:#1D1D1F;" width="15.001" height="15.001"/>
</g>
<g>
	<rect x="387.678" y="52.252" style="fill:#FFFFFF;" width="15.001" height="15.001"/>
	<rect x="387.678" y="27.251" style="fill:#FFFFFF;" width="15.001" height="15.001"/>
	<rect x="387.678" y="77.253" style="fill:#FFFFFF;" width="15.001" height="76.003"/>
</g>
<path style="fill:#1D1D1F;" d="M271.568,41.648c-49.863,0-90.431,40.567-90.431,90.431s40.567,90.431,90.431,90.431
	s90.431-40.567,90.431-90.431S321.432,41.648,271.568,41.648z M257.781,150.626l-8.337-24.731l22.125-15.495l22.125,15.495
	l-8.337,24.731H257.781z M280.299,165.626l-8.731,25.902l-8.731-25.902H280.299z M244.449,111.078L235.77,85.33l22.723,15.914
	L244.449,111.078z M241.95,150.626h-26.309l21.076-15.523L241.95,150.626z M306.418,135.103l21.076,15.523h-26.309L306.418,135.103z
	 M298.687,111.078l-14.044-9.834l22.723-15.914L298.687,111.078z M308.402,66.29l-36.835,25.796L234.733,66.29
	c10.902-6.128,23.463-9.641,36.835-9.641S297.5,60.162,308.402,66.29z M217.865,79.176l13.821,41.002l-34.336,25.288
	c-0.782-4.348-1.214-8.817-1.214-13.388C196.137,111.486,204.441,92.801,217.865,79.176z M204.036,165.626h42.971l13.858,41.11
	C235.922,203.176,214.884,187.375,204.036,165.626z M282.271,206.736l13.858-41.11H339.1
	C328.251,187.375,307.213,203.176,282.271,206.736z M345.784,145.467l-34.336-25.288l13.821-41.002
	c13.425,13.626,21.728,32.309,21.728,52.903C346.998,136.649,346.567,141.118,345.784,145.467z"/>
<g>
	<rect x="117.096" y="273.862" style="fill:#FFFFFF;" width="15.001" height="46.651"/>
	<rect x="117.096" y="248.861" style="fill:#FFFFFF;" width="15.001" height="15.001"/>
	<rect x="117.096" y="223.86" style="fill:#FFFFFF;" width="15.001" height="15.001"/>
</g>
<g>
</g>
<g>
</g>
<g>
</g>
<g>
</g>
<g>
</g>
<g>
</g>
<g>
</g>
<g>
</g>
<g>
</g>
<g>
</g>
<g>
</g>
<g>
</g>
<g>
</g>
<g>
</g>
<g>
</g>
</svg>
