<svg height="512pt" viewBox="0 0 512 512.005" width="512pt" xmlns="http://www.w3.org/2000/svg"><path d="M153.602 59.738h204.8V324.27h-204.8zm0 0" fill="#bfa885"/><path d="M503.469 396.89v98.048a8.533 8.533 0 0 1-8.531 8.535H17.07a8.534 8.534 0 0 1-8.535-8.535V396.89c0-27.59 18.91-51.586 45.738-58.028l13.997-3.414 34.132-8.277 44.203-10.664c1.051-.223 2.079-.54 3.07-.942a.34.34 0 0 0 .345-.168c1.109-.343 2.218-.77 3.328-1.195a9.134 9.134 0 0 0 1.875-.855c.714-.27 1.402-.614 2.05-1.024a28.889 28.889 0 0 0 3.84-2.39 37.576 37.576 0 0 0 4.094-3.243h181.59a37.248 37.248 0 0 0 4.098 3.243 18.1 18.1 0 0 0 3.496 2.136c.605.45 1.265.825 1.964 1.11 1.333.668 2.7 1.265 4.094 1.789a47.71 47.71 0 0 0 4.95 1.539l1.027.254 43.176 10.41 7.34 1.793 20.222 4.95 10.242 2.476 10.324 2.472a52.452 52.452 0 0 1 6.23 1.88 39.357 39.357 0 0 1 5.204 2.218 59.368 59.368 0 0 1 34.305 53.93zm0 0" fill="#1566c0"/><path d="M409.602 162.137v165.035l-25.598-6.145-17.578-4.265-1.028-.254a42.562 42.562 0 0 1-18.601-9.817 135.777 135.777 0 0 0 11.605-55.039V153.52c-53.59-30.977-102.398-93.782-102.398-93.782a68.76 68.76 0 0 1-12.715 15.446c-13.312 13.312-39.598 34.558-89.687 61.097v115.371a135.907 135.907 0 0 0 11.605 55.04 42.562 42.562 0 0 1-18.602 9.816l-44.203 10.664V162.137C102.41 82.27 163.613 15.727 243.203 9.05c4.18-.344 8.45-.512 12.8-.512a153.54 153.54 0 0 1 108.63 44.969 153.54 153.54 0 0 1 44.969 108.629zm0 0" fill="#607d8b"/><path d="M153.602 59.738H332.8V324.27H153.6zm0 0" fill="#ffe0b2"/><path d="M477.871 396.89v98.048a8.536 8.536 0 0 1-8.535 8.535H17.07a8.534 8.534 0 0 1-8.535-8.535V396.89c0-27.59 18.91-51.586 45.738-58.028l13.997-3.414 34.132-8.277 44.203-10.664c1.051-.223 2.079-.54 3.07-.942a.34.34 0 0 0 .345-.168c1.109-.343 2.218-.77 3.328-1.195a9.134 9.134 0 0 0 1.875-.855c.715-.27 1.402-.614 2.05-1.024a28.889 28.889 0 0 0 3.84-2.39 37.576 37.576 0 0 0 4.094-3.243h155.988a38 38 0 0 0 4.098 3.243 18.13 18.13 0 0 0 3.5 2.136 8.99 8.99 0 0 0 1.96 1.11c1.333.668 2.7 1.265 4.099 1.789a47.71 47.71 0 0 0 4.949 1.539l1.023.254 43.18 10.41 7.336 1.793 20.226 4.95 10.239 2.476 10.324 2.472a52.452 52.452 0 0 1 6.23 1.88 39.407 39.407 0 0 1 5.207 2.218c20.961 9.762 34.344 30.805 34.305 53.93zm0 0" fill="#2296f3"/><path d="M384.004 162.137v158.89l-17.578-4.265-1.028-.254a42.562 42.562 0 0 1-18.601-9.817 135.777 135.777 0 0 0 11.605-55.039V153.52c-53.59-30.977-102.398-93.782-102.398-93.782a68.76 68.76 0 0 1-12.715 15.446c-8.11-9.387 12.715-15.446 12.715-15.446s-15.106 30.293-102.402 76.543v115.371a135.907 135.907 0 0 0 11.605 55.04c-5.203 4.695-37.121 8.109-44.203 9.816l-18.602 4.52V162.136C102.41 82.27 163.613 15.727 243.203 9.05c79.598 6.656 140.813 73.21 140.8 153.086zm0 0" fill="#cfd8dc"/><path d="M358.402 204.805v46.847a135.777 135.777 0 0 1-11.605 55.04 16.198 16.198 0 0 1-.938 2.132l-13.058 28.246-17.067 36.95-36.52 79.105a25.6 25.6 0 1 1-46.422 0l-27.991-60.586-17.067-36.95-21.586-46.765a15.719 15.719 0 0 1-.941-2.133 135.907 135.907 0 0 1-11.605-55.039v-46.847h16.468a42.686 42.686 0 0 1 30.125 12.457l25.598 25.601a42.683 42.683 0 0 0 30.21 12.535 42.674 42.674 0 0 0 30.208-12.535l25.598-25.601a42.7 42.7 0 0 1 30.125-12.457zm0 0" fill="#cfd8dc"/><path d="M102.402 85.34v418.133H68.27V85.34c.027-9.414 7.652-17.04 17.066-17.07 9.398.07 16.996 7.671 17.066 17.07zm0 0" fill="#795548"/><path d="M119.469 76.805c0 18.851-15.281 34.132-34.133 34.132-18.852 0-34.133-15.28-34.133-34.132 0-18.852 15.281-34.133 34.133-34.133 18.852 0 34.133 15.281 34.133 34.133zm0 0" fill="#00bcd4"/><path d="M93.871 76.805a8.536 8.536 0 0 1-17.07 0c0-4.711 3.82-8.535 8.535-8.535 4.71 0 8.535 3.824 8.535 8.535zm0 0" fill="#ecf0f1"/><path d="M459.746 330.57l-41.61-10.07V162.137c.087-69.864-44.648-131.907-110.96-153.895-66.317-21.992-139.254 1.031-180.93 57.102-5.113-18.567-22.055-31.39-41.312-31.262-19.262.129-36.032 13.172-40.895 31.809-4.863 18.636 3.395 38.214 20.133 47.734a25.462 25.462 0 0 0-4.438 14.379v200.738l-7.457 1.828C21.586 337.883-.055 365.336.004 396.89v98.048c0 9.425 7.64 17.066 17.066 17.066h477.868c9.425 0 17.066-7.64 17.066-17.066V396.89c.059-31.547-21.574-59-52.258-66.32zM256.004 17.07A145.014 145.014 0 0 1 401.07 162.137V316.37l-32.554-7.887-1.11-.273a33.972 33.972 0 0 1-10.386-4.469 146.095 146.095 0 0 0 9.918-52.125V167.56c1.703.808 3.41 1.703 5.167 2.421a8.534 8.534 0 1 0 6.727-15.683C321.855 129.875 263.316 55.25 262.777 54.5a8.593 8.593 0 0 0-14.309 1.313c-.171.324-18.585 33.066-115.702 81.62a8.533 8.533 0 0 0-4.707 7.122 8.545 8.545 0 0 0 3.812 7.64 8.544 8.544 0 0 0 8.524.512c1.628-.852 3.128-1.602 4.718-2.414v101.324a146.006 146.006 0 0 0 9.914 52.125 33.972 33.972 0 0 1-10.386 4.469l-33.703 8.125v-154.2C111.023 82.06 175.922 17.16 256.004 17.07zm68.266 264.535a8.533 8.533 0 0 0-8.536 8.532v63.55l-44.242 95.844a17.064 17.064 0 1 1-30.977 0l-36.507-79.086a8.37 8.37 0 0 0 .793-3.507v-68.266a8.533 8.533 0 1 0-17.067 0v36.523l-13.812-29.937a128.947 128.947 0 0 1-11.785-53.64V213.34h7.925a33.943 33.943 0 0 1 24.141 9.992l25.602 25.598c19.992 19.988 52.402 19.988 72.394 0l25.602-25.598a33.91 33.91 0 0 1 24.14-9.992h7.93v38.277a129.07 129.07 0 0 1-11.785 53.64l-5.285 11.446v-26.566c0-4.711-3.82-8.532-8.531-8.532zM256.309 73.63c15.097 18.016 52.32 59.496 93.562 84.668v37.973h-7.93a50.8 50.8 0 0 0-30.25 9.96c-.246-.152-.41-.394-.675-.53-54.399-27.204-107.786-1.126-110.028 0-.265.136-.425.378-.675.53a50.8 50.8 0 0 0-30.25-9.96h-7.926v-54.903c57.172-30.89 83.191-54.972 94.172-67.738zm41.968 145.066l-18.14 18.145c-13.516 12.87-34.754 12.87-48.266 0l-18.066-18.04a115.777 115.777 0 0 1 84.472-.077zM85.336 51.203c14.137 0 25.602 11.465 25.602 25.602 0 14.136-11.465 25.601-25.602 25.601S59.734 90.941 59.734 76.805c0-14.137 11.465-25.602 25.602-25.602zM17.07 396.891c-.035-23.676 16.215-44.266 39.254-49.735l3.41-.851v148.632H17.07zm59.73 98.046V128.005c0-4.711 3.821-8.531 8.536-8.531 4.71 0 8.535 3.82 8.535 8.53v366.935zm418.138 0h-85.336v-51.199a8.533 8.533 0 1 0-17.067 0v51.2H110.938V333.887l37.664-9.086a51.233 51.233 0 0 0 13.117-5.239l63.289 137.122a34.134 34.134 0 1 0 61.988 0l42.238-91.528a8.374 8.374 0 0 0 3.567-6.75v-.965l17.488-37.879a51.012 51.012 0 0 0 13.027 5.223l73.645 17.824a87.22 87.22 0 0 0-26.754 38.223c-1.75 4.375.375 9.348 4.754 11.102a8.542 8.542 0 0 0 11.101-4.754c14.278-35.703 33.766-37.25 34.903-37.309a8.212 8.212 0 0 0 1.758-.383c19.453 7.684 32.23 26.485 32.214 47.403zm0 0"/><path d="M213.336 170.672c4.71 0 8.535-3.82 8.535-8.535V145.07c0-4.71-3.824-8.53-8.535-8.53a8.533 8.533 0 0 0-8.535 8.53v17.067a8.534 8.534 0 0 0 8.535 8.535zm0 0M298.668 170.672a8.534 8.534 0 0 0 8.535-8.535V145.07c0-4.71-3.82-8.53-8.535-8.53a8.532 8.532 0 0 0-8.531 8.53v17.067a8.533 8.533 0 0 0 8.531 8.535zm0 0M42.668 42.672a8.534 8.534 0 0 0 8.535-8.535v-8.532a8.534 8.534 0 1 0-17.066 0v8.532a8.533 8.533 0 0 0 8.531 8.535zm0 0M8.535 59.738h8.535c4.711 0 8.532-3.82 8.532-8.535 0-4.71-3.82-8.531-8.532-8.531H8.535a8.532 8.532 0 0 0-8.531 8.531 8.533 8.533 0 0 0 8.531 8.535zm0 0M42.668 136.54a8.534 8.534 0 0 0 8.535-8.536v-8.531a8.534 8.534 0 1 0-17.066 0v8.53a8.533 8.533 0 0 0 8.531 8.536zm0 0M8.535 110.938h8.535c4.711 0 8.532-3.82 8.532-8.532a8.533 8.533 0 0 0-8.532-8.535H8.535a8.533 8.533 0 0 0-8.531 8.535c0 4.711 3.82 8.531 8.531 8.531zm0 0M256.004 307.203a8.534 8.534 0 0 0-8.535 8.535v76.801c0 4.711 3.82 8.531 8.535 8.531 4.71 0 8.531-3.82 8.531-8.53v-76.802a8.533 8.533 0 0 0-8.531-8.535zm0 0M93.871 76.805a8.536 8.536 0 0 1-17.07 0c0-4.711 3.82-8.535 8.535-8.535 4.71 0 8.535 3.824 8.535 8.535zm0 0"/></svg>