<svg xmlns="http://www.w3.org/2000/svg" viewBox="0 0 512 512"><path d="M115.005 7.488L88.022 34.471V422.56l26.983 26.983h26.355v-52.481h65.406v52.481H423.98V7.488H115.005z" fill="#57a4ff"/><g fill="#006df0"><path d="M123.633 422.56V34.472L150.616 7.49h-35.612L88.021 34.472V422.56l26.983 26.982h26.355v-9.256l-17.726-17.726zM206.76 397.058h35.612v52.482H206.76z"/></g><path fill="#ff7956" d="M206.765 499.417l-32.703-17.649-32.702 17.649V397.061h65.405z"/><path fill="#ff3f62" d="M162.929 397.061H141.36v102.356l21.569-11.64z"/><path fill="#ffdaaa" d="M115.005 344.579l-26.984 26.983v50.998l26.984 26.982h26.355v-52.481h65.405v52.481h217.214V344.579z"/><g fill="#ff9478"><path d="M117.1 422.56v-50.998l26.983-26.983h-29.078l-26.984 26.983v50.998l26.984 26.982h26.355v-2.723zM206.76 397.058h29.081v52.482H206.76z"/></g><g fill="#1d1d1f"><path d="M111.898 0L80.521 31.376v394.302l31.376 31.376h9.46v-15.001h-3.248L95.52 419.464V374.68l22.589-22.589h298.367v9.425h-297.32v15.001h297.322v13.056H315.372v15.001h101.107v13.056H214.265v-13.056h74.736v-15.001H119.157v15.001h14.703v13.056h-14.703v15.001h14.703V512l40.203-21.697L214.265 512v-79.371h202.213v9.425H226.766v15.001h204.713V0H111.898zm87.366 486.858l-25.202-13.602-25.202 13.602v-82.285h26.341v41.114h15.001v-41.114h9.063l-.001 82.285zM111.898 337.09l-16.376 16.376V37.59L117.1 16.012V210.01h15V15.001h284.378V337.09h-304.58z"/><path d="M245.632 258.182h101.875v15.001H245.632zM220.63 258.182h15.001v15.001H220.63zM195.629 258.182h15.001v15.001h-15.001zM263.802 292.393h15.001v15.001h-15.001zM238.801 292.393h15.001v15.001h-15.001zM213.8 292.393h15.001v15.001H213.8zM313.805 292.393h15.001v15.001h-15.001zM288.803 292.393h15.001v15.001h-15.001z"/></g><g fill="#fff"><path d="M387.678 52.252h15.001v15.001h-15.001zM387.678 27.251h15.001v15.001h-15.001zM387.678 77.253h15.001v76.003h-15.001z"/></g><path d="M271.568 41.648c-49.863 0-90.431 40.567-90.431 90.431s40.567 90.431 90.431 90.431 90.431-40.567 90.431-90.431-40.567-90.431-90.431-90.431zm-13.787 108.978l-8.337-24.731 22.125-15.495 22.125 15.495-8.337 24.731h-27.576zm22.518 15l-8.731 25.902-8.731-25.902h17.462zm-35.85-54.548L235.77 85.33l22.723 15.914-14.044 9.834zm-2.499 39.548h-26.309l21.076-15.523 5.233 15.523zm64.468-15.523l21.076 15.523h-26.309l5.233-15.523zm-7.731-24.025l-14.044-9.834 22.723-15.914-8.679 25.748zm9.715-44.788l-36.835 25.796-36.834-25.796c10.902-6.128 23.463-9.641 36.835-9.641s25.932 3.513 36.834 9.641zm-90.537 12.886l13.821 41.002-34.336 25.288a75.54 75.54 0 0 1-1.214-13.388c.001-20.592 8.305-39.277 21.729-52.902zm-13.829 86.45h42.971l13.858 41.11c-24.943-3.56-45.981-19.361-56.829-41.11zm78.235 41.11l13.858-41.11H339.1c-10.849 21.749-31.887 37.55-56.829 41.11zm63.513-61.269l-34.336-25.288 13.821-41.002c13.425 13.626 21.728 32.309 21.728 52.903a75.368 75.368 0 0 1-1.213 13.387z" fill="#1d1d1f"/><g fill="#fff"><path d="M117.096 273.862h15.001v46.651h-15.001zM117.096 248.861h15.001v15.001h-15.001zM117.096 223.86h15.001v15.001h-15.001z"/></g></svg>