<svg xmlns="http://www.w3.org/2000/svg" viewBox="0 0 512.001 512.001"><path d="M503.381 466.748h-311.16l28.592-197.574c9.132-63.108 63.223-109.934 126.988-109.934 63.766 0 117.855 46.826 126.988 109.934l28.592 197.574z" fill="#ffb655"/><path d="M374.781 162.098a128.553 128.553 0 0 0-26.98-2.858c-63.766 0-117.855 46.826-126.988 109.934l-28.592 197.574h53.958l28.592-197.574c7.81-53.972 48.504-96.028 100.01-107.076z" fill="#ff7956"/><path fill="#ffdaaa" d="M310.498 135.743H385.1v23.501h-74.602z"/><path fill="#ff9478" d="M310.498 135.743h23.501v23.501h-23.501z"/><path d="M399.72 49.903l-25.962 10-25.962-10-25.959 10-25.957-10 8.355 49.062c3.617 21.239 22.021 36.773 43.564 36.773 21.544 0 39.948-15.535 43.564-36.773l8.357-49.062z" fill="#ffb655"/><path d="M331.215 98.966l-6.819-40.047-2.557.985-25.957-10 8.354 49.062c3.616 21.239 22.021 36.773 43.564 36.773 4.685 0 9.221-.736 13.489-2.104-15.357-4.924-27.244-18.05-30.074-34.669z" fill="#ff7956"/><path fill="#ffe477" d="M64.879 391h57.331v75.752H64.879z"/><path fill="#ffb655" d="M64.879 391h24.712v75.752H64.879z"/><path fill="#ffe477" d="M122.213 342.499h57.331v124.253h-57.331z"/><path fill="#ffb655" d="M122.213 342.499h23.451v124.253h-23.451z"/><path fill="#ffe477" d="M7.543 315.248h57.331v151.504H7.543z"/><path fill="#ffb655" d="M7.543 315.248h25.816v151.504H7.543z"/><path fill="#fff" d="M12.965 127.489v108.425h57.502l23.078 23.079 23.079-23.079h57.502V127.489z"/><g fill="#d8d7da"><circle cx="114.673" cy="181.905" r="30.334"/><path d="M12.965 127.493h30.334v108.423H12.965z"/></g><circle cx="93.542" cy="181.905" r="30.334" fill="#ffe477"/><g fill="#fff"><path d="M458.2 311.792l-14.845 2.148-2.148-14.846 14.845-2.148zM470.545 397.133L455.7 399.28l-10.915-75.437 14.845-2.148zM454.623 287.048l-14.845 2.148-2.148-14.846 14.845-2.148z"/></g><g fill="#1d1d1f"><path d="M482.168 267.893a135.846 135.846 0 0 0-45.522-83.229 135.807 135.807 0 0 0-44.087-25.524v-16.106h12.783c13.51 0 24.501-10.991 24.501-24.501 0-5.238 4.262-9.5 9.5-9.5h29.669v-15h-29.668c-13.51 0-24.501 10.991-24.501 24.501 0 5.238-4.262 9.5-9.5 9.5h-21.126c7.41-7.367 12.626-17.024 14.497-28.014l10.567-62.06-35.568 13.701-25.962-10-25.959 10-35.562-13.702 10.567 62.061c1.872 10.989 7.087 20.647 14.498 28.014h-8.342v23.501h-47.614c-13.51 0-24.501 10.991-24.501 24.501 0 5.238-4.262 9.5-9.5 9.5h-13.667v15h13.667c13.51 0 24.501-10.991 24.501-24.501 0-5.238 4.262-9.5 9.5-9.5h30.392a135.794 135.794 0 0 0-26.865 18.13 135.832 135.832 0 0 0-45.521 83.229l-29.832 206.148H512l-29.832-206.149zM305.445 61.437l16.35 6.298 18.458-7.111v19.909h15V60.625l18.461 7.111 16.354-6.299-6.142 36.065a36.595 36.595 0 0 1-15.724 24.33c2.064-6.368 3.459-13.975 4.03-22.574l-14.967-.994c-1.273 19.158-7.111 28.716-9.51 29.735-2.398-1.019-8.236-10.576-9.509-29.735l-14.967.994c.571 8.598 1.966 16.205 4.03 22.574a36.59 36.59 0 0 1-15.724-24.33l-6.14-36.065zm72.115 81.597v8.5h-59.605v-8.5h59.605zM228.193 270.042c6.591-45.549 38.723-82.445 80.46-96.911-6.488 8.016-11.42 17.063-14.984 24.97l13.675 6.164c5.806-12.88 12.841-22.932 20.449-29.409-2.686 8.61-4.649 16.939-5.946 25.241l14.82 2.315c1.59-10.177 4.285-20.449 8.236-31.387.899-1.728 1.771-2.898 2.467-3.626 5.965 7.874 8.114 18.509 10.374 29.691.387 1.915.773 3.829 1.18 5.73l14.67-3.132a489.8 489.8 0 0 1-1.146-5.57c-1.299-6.425-2.624-12.947-4.697-19.202a48.863 48.863 0 0 1 3.58 3.319c6.306 6.471 11.973 15.229 16.843 26.031l13.674-6.165c-4.385-9.726-9.426-18.095-15.029-24.985 41.758 14.455 73.911 51.361 80.504 96.926l27.352 189H200.84l27.353-189z"/><path d="M243.017 272.2l14.846 2.147-17.292 119.51-14.846-2.148zM264.257 429.041h15v15h-15zM289.257 429.041h15v15h-15zM314.258 429.041h15v15h-15zM93.502 269.393l26.186-26.186h61.896V119.783H5.421v123.425h61.897l26.184 26.185zm-73.08-134.61h146.161v93.424h-53.107l-19.973 19.972-19.973-19.972H20.422v-93.424z"/><path d="M131.336 181.702c0-20.862-16.972-37.834-37.834-37.834s-37.835 16.972-37.835 37.834 16.973 37.834 37.835 37.834 37.834-16.973 37.834-37.834zm-60.668 0c0-12.59 10.243-22.834 22.835-22.834 12.59 0 22.834 10.243 22.834 22.834s-10.243 22.834-22.834 22.834c-12.592-.001-22.835-10.244-22.835-22.834z"/><path d="M86.002 169.704h15v24.001h-15zM129.669 423.541h57.335v-88.752h-72.336v48.501H72.335v-75.752H0v166.504h171.968v-15h-42.299v-10.25h49.835v-15h-49.835v-10.251zm-72.335-65.502H15v-10.25h42.334v10.25zm0 15v10.25H15v-10.25h42.334zm0 25.251v10.25H15v-10.25h42.334zm0 25.251v10.25H15v-10.25h42.334zm15.001 0h42.334v10.25H72.335v-10.25zm57.334-15.001v-10.25h42.335v10.25h-42.335zm0-35.501h42.335v10.25h-42.335v-10.25zm42.335-23.25v8.25h-42.335v-8.25h42.335zm-57.335 48.501v10.25H72.335v-10.25h42.334zm-57.335-75.752v10.25H15v-10.25h42.334zM15 459.042v-10.25h42.334v10.25H15zm57.335 0v-10.25h42.334v10.25H72.335z"/></g></svg>