<?xml version="1.0" encoding="iso-8859-1"?>
<!-- Generator: Adobe Illustrator 19.0.0, SVG Export Plug-In . SVG Version: 6.00 Build 0)  -->
<svg version="1.1" id="Capa_1" xmlns="http://www.w3.org/2000/svg" xmlns:xlink="http://www.w3.org/1999/xlink" x="0px" y="0px"
	 viewBox="0 0 512.001 512.001" style="enable-background:new 0 0 512.001 512.001;" xml:space="preserve">
<path style="fill:#FFB655;" d="M503.381,466.748h-311.16l28.592-197.574c9.132-63.108,63.223-109.934,126.988-109.934l0,0
	c63.766,0,117.855,46.826,126.988,109.934L503.381,466.748z"/>
<path style="fill:#FF7956;" d="M374.781,162.098c-8.719-1.87-17.746-2.858-26.98-2.858l0,0
	c-63.766,0-117.855,46.826-126.988,109.934l-28.592,197.574h53.958l28.592-197.574C282.581,215.202,323.275,173.146,374.781,162.098
	z"/>
<rect x="310.498" y="135.743" style="fill:#FFDAAA;" width="74.602" height="23.501"/>
<rect x="310.498" y="135.743" style="fill:#FF9478;" width="23.501" height="23.501"/>
<path style="fill:#FFB655;" d="M399.72,49.903l-25.962,10l-25.962-10l-25.959,10l-25.957-10l8.355,49.062
	c3.617,21.239,22.021,36.773,43.564,36.773l0,0c21.544,0,39.948-15.535,43.564-36.773L399.72,49.903z"/>
<path style="fill:#FF7956;" d="M331.215,98.966l-6.819-40.047l-2.557,0.985l-25.957-10l8.354,49.062
	c3.616,21.239,22.021,36.773,43.564,36.773l0,0c4.685,0,9.221-0.736,13.489-2.104C345.932,128.711,334.045,115.585,331.215,98.966z"
	/>
<rect x="64.879" y="391" style="fill:#FFE477;" width="57.331" height="75.752"/>
<rect x="64.879" y="391" style="fill:#FFB655;" width="24.712" height="75.752"/>
<rect x="122.213" y="342.499" style="fill:#FFE477;" width="57.331" height="124.253"/>
<rect x="122.213" y="342.499" style="fill:#FFB655;" width="23.451" height="124.253"/>
<rect x="7.543" y="315.248" style="fill:#FFE477;" width="57.331" height="151.504"/>
<rect x="7.543" y="315.248" style="fill:#FFB655;" width="25.816" height="151.504"/>
<polygon style="fill:#FFFFFF;" points="12.965,127.489 12.965,235.914 70.467,235.914 93.545,258.993 116.624,235.914 
	174.126,235.914 174.126,127.489 "/>
<g>
	<circle style="fill:#D8D7DA;" cx="114.673" cy="181.905" r="30.334"/>
	<rect x="12.965" y="127.493" style="fill:#D8D7DA;" width="30.334" height="108.423"/>
</g>
<circle style="fill:#FFE477;" cx="93.542" cy="181.905" r="30.334"/>
<g>
	
		<rect x="442.205" y="297.945" transform="matrix(-0.9897 0.1432 -0.1432 -0.9897 938.5161 543.3444)" style="fill:#FFFFFF;" width="15" height="15"/>
	
		<rect x="450.167" y="322.378" transform="matrix(-0.9897 0.1432 -0.1432 -0.9897 962.2402 651.7262)" style="fill:#FFFFFF;" width="15" height="76.222"/>
	
		<rect x="438.628" y="273.201" transform="matrix(-0.9897 0.1432 -0.1432 -0.9897 927.8556 494.6233)" style="fill:#FFFFFF;" width="15" height="15"/>
</g>
<g>
	<path style="fill:#1D1D1F;" d="M482.168,267.893c-4.676-32.306-20.843-61.864-45.522-83.229
		c-13.054-11.301-28.038-19.915-44.087-25.524v-16.106h12.783c13.51,0,24.501-10.991,24.501-24.501c0-5.238,4.262-9.5,9.5-9.5
		h29.669v-15h-29.668c-13.51,0-24.501,10.991-24.501,24.501c0,5.238-4.262,9.5-9.5,9.5h-21.126
		c7.41-7.367,12.626-17.024,14.497-28.014l10.567-62.06l-35.568,13.701l-25.962-10l-25.959,10L286.23,37.959l10.567,62.061
		c1.872,10.989,7.087,20.647,14.498,28.014h-8.342v23.501h-47.614c-13.51,0-24.501,10.991-24.501,24.501c0,5.238-4.262,9.5-9.5,9.5
		h-13.667v15h13.667c13.51,0,24.501-10.991,24.501-24.501c0-5.238,4.262-9.5,9.5-9.5h30.392
		c-9.579,4.917-18.609,10.984-26.865,18.13c-24.68,21.365-40.846,50.922-45.521,83.229l-29.832,206.148h328.487L482.168,267.893z
		 M305.445,61.437l16.35,6.298l18.458-7.111v19.909h15V60.625l18.461,7.111l16.354-6.299l-6.142,36.065
		c-1.748,10.266-7.609,18.891-15.724,24.33c2.064-6.368,3.459-13.975,4.03-22.574l-14.967-0.994
		c-1.273,19.158-7.111,28.716-9.51,29.735c-2.398-1.019-8.236-10.576-9.509-29.735l-14.967,0.994
		c0.571,8.598,1.966,16.205,4.03,22.574c-8.115-5.438-13.976-14.063-15.724-24.33L305.445,61.437z M377.56,143.034v8.5h-59.605v-8.5
		H377.56z M228.193,270.042c6.591-45.549,38.723-82.445,80.46-96.911c-6.488,8.016-11.42,17.063-14.984,24.97l13.675,6.164
		c5.806-12.88,12.841-22.932,20.449-29.409c-2.686,8.61-4.649,16.939-5.946,25.241l14.82,2.315
		c1.59-10.177,4.285-20.449,8.236-31.387c0.899-1.728,1.771-2.898,2.467-3.626c5.965,7.874,8.114,18.509,10.374,29.691
		c0.387,1.915,0.773,3.829,1.18,5.73l14.67-3.132c-0.395-1.849-0.771-3.709-1.146-5.57c-1.299-6.425-2.624-12.947-4.697-19.202
		c1.214,1.019,2.41,2.119,3.58,3.319c6.306,6.471,11.973,15.229,16.843,26.031l13.674-6.165
		c-4.385-9.726-9.426-18.095-15.029-24.985c41.758,14.455,73.911,51.361,80.504,96.926l27.352,189H200.84L228.193,270.042z"/>
	
		<rect x="234.293" y="272.649" transform="matrix(0.9897 0.1432 -0.1432 0.9897 50.181 -31.1924)" style="fill:#1D1D1F;" width="15" height="120.754"/>
	<rect x="264.257" y="429.041" style="fill:#1D1D1F;" width="15" height="15"/>
	<rect x="289.257" y="429.041" style="fill:#1D1D1F;" width="15" height="15"/>
	<rect x="314.258" y="429.041" style="fill:#1D1D1F;" width="15" height="15"/>
	<path style="fill:#1D1D1F;" d="M93.502,269.393l26.186-26.186h61.896V119.783H5.421v123.425h61.897L93.502,269.393z
		 M20.422,134.783h146.161v93.424h-53.107l-19.973,19.972L73.53,228.207H20.422V134.783z"/>
	<path style="fill:#1D1D1F;" d="M131.336,181.702c0-20.862-16.972-37.834-37.834-37.834s-37.835,16.972-37.835,37.834
		s16.973,37.834,37.835,37.834S131.336,202.563,131.336,181.702z M70.668,181.702c0-12.59,10.243-22.834,22.835-22.834
		c12.59,0,22.834,10.243,22.834,22.834s-10.243,22.834-22.834,22.834C80.911,204.535,70.668,194.292,70.668,181.702z"/>
	<rect x="86.002" y="169.704" style="fill:#1D1D1F;" width="15" height="24.001"/>
	<path style="fill:#1D1D1F;" d="M129.669,423.541h57.335v-88.752h-72.336v48.501H72.335v-75.752H0v166.504h171.968v-15h-42.299
		v-10.25h49.835v-15h-49.835V423.541z M57.334,358.039H15v-10.25h42.334V358.039z M57.334,373.039v10.25H15v-10.25H57.334z
		 M57.334,398.29v10.25H15v-10.25H57.334z M57.334,423.541v10.25H15v-10.25H57.334z M72.335,423.541h42.334v10.25H72.335V423.541z
		 M129.669,408.54v-10.25h42.335v10.25H129.669z M129.669,373.039h42.335v10.25h-42.335V373.039z M172.004,349.789v8.25h-42.335
		v-8.25H172.004z M114.669,398.29v10.25H72.335v-10.25H114.669z M57.334,322.538v10.25H15v-10.25H57.334z M15,459.042v-10.25h42.334
		v10.25H15z M72.335,459.042v-10.25h42.334v10.25H72.335z"/>
</g>
<g>
</g>
<g>
</g>
<g>
</g>
<g>
</g>
<g>
</g>
<g>
</g>
<g>
</g>
<g>
</g>
<g>
</g>
<g>
</g>
<g>
</g>
<g>
</g>
<g>
</g>
<g>
</g>
<g>
</g>
</svg>
