<svg xmlns="http://www.w3.org/2000/svg" viewBox="0 0 512 512"><g fill="#c6c5ca"><path d="M285.438 504.5h185.834l-22.755-391.238H308.193zM322.535 7.5v47.524h37.271V7.5h37.098v47.524h37.271V7.5h37.097v105.762H285.438V7.5zM40.728 504.5h185.834l-22.755-391.238H63.483z"/></g><g fill="#898890"><path d="M183.883 312.987H126.39v-54.934c0-15.876 12.87-28.746 28.746-28.746s28.746 12.87 28.746 28.746l.001 54.934zM113.37 312.99h83.53v25.633h-83.53zM428.593 312.987H371.1v-54.934c0-15.876 12.87-28.746 28.746-28.746s28.746 12.87 28.746 28.746l.001 54.934zM358.08 312.99h83.53v25.633h-83.53z"/></g><path fill="#c6c5ca" d="M77.825 7.5v47.524h37.271V7.5h37.098v47.524h37.271V7.5h37.097v105.762H40.728V7.5z"/><path d="M162.391 312.987h-57.492v-54.934c0-15.876 12.87-28.746 28.746-28.746s28.746 12.87 28.746 28.746v54.934z" fill="#898890"/><path fill="#e0e0e2" d="M91.87 312.99h83.53v25.633H91.87z"/><path d="M407.101 312.987h-57.492v-54.934c0-15.876 12.87-28.746 28.746-28.746s28.746 12.87 28.746 28.746v54.934z" fill="#898890"/><path fill="#e0e0e2" d="M336.58 312.99h83.53v25.633h-83.53z"/><g fill="#898890"><path d="M189.47 7.5h34v47.524h-34zM359.81 7.5h34v47.524h-34zM434.18 7.5h34v47.524h-34zM115.1 7.5h34v47.524h-34zM74.728 113.262V7.5h-34v105.762h22.755L40.728 504.5h34l22.755-391.238zM319.438 113.262V7.5h-34v105.762h22.755L285.438 504.5h34l22.755-391.238z"/></g><g fill="#fff"><path d="M194.851 369.329l3.651 62.734-14.974.871-3.651-62.734zM186.453 482.88l-.872-14.974 14.975-.871.871 14.974zM199.094 442.047l.871 14.975-14.974.871-.872-14.974zM439.553 369.332l3.651 62.734-14.974.871-3.651-62.734zM443.795 442.05l.871 14.975-14.974.871-.872-14.974zM431.17 482.876L430.3 467.9l14.974-.871.872 14.974z"/></g><g fill="#1d1d1f"><path d="M89.01 77.69h15v15h-15zM64.01 77.69h15v15h-15z"/><path d="M234.063 0h-52.098v47.524h-22.271V0h-52.097v47.524H85.325V0H33.228v120.762h200.835V0zM48.228 105.762V15h22.098v47.524h52.271V15h22.097v47.524h52.271V15h22.098v57.174h-50.26v15h50.26v18.588H48.228zM142.97 149.17h15v15h-15zM167.97 149.17h15v15h-15zM117.97 149.17h15v15h-15zM95.94 378.12h15v15h-15zM70.943 378.12h15v15h-15zM120.94 378.12h15v15h-15zM182.909 305.487h-13.018v-47.435c0-19.986-16.261-36.246-36.247-36.246-19.985 0-36.245 16.26-36.245 36.246v47.435H84.374v40.633h98.535v-40.633zm-70.51-47.435c0-11.715 9.531-21.246 21.246-21.246 11.715 0 21.246 9.531 21.246 21.246v47.435h-42.492v-47.435zm55.51 73.068H99.374v-10.633h68.535v10.633zM412.08 75.18h15v15h-15zM387.08 75.18h15v15h-15zM437.08 75.18h15v15h-15zM457.167 132.826l-14.975.871 3.156 54.256h-53.961v15h54.833L463.323 497H293.387l5.879-101.082h67.441v-15h-66.569l5.376-92.425H327.9v-15h-21.514l8.131-139.796-14.975-.871L277.488 512h201.734z"/><path d="M478.772 0h-52.098v47.524h-22.271V0h-52.097v47.524h-22.271V0h-52.098v120.762h200.835V0zm-15 105.762H292.938V83.666h18.637v-15h-18.637V15h22.098v47.524h52.271V15h22.097v47.524h52.271V15h22.098l-.001 90.762zM322.93 135.83h15v15h-15zM372.93 135.83h15v15h-15zM347.93 135.83h15v15h-15zM313.17 460.11h15v15h-15zM338.17 460.11h15v15h-15zM363.17 460.11h15v15h-15zM378.354 221.806c-19.985 0-36.245 16.26-36.245 36.246v47.435h-13.025v40.633h98.535v-40.633h-13.018v-47.435c.001-19.986-16.26-36.246-36.247-36.246zm-21.245 36.246c0-11.715 9.531-21.246 21.246-21.246s21.246 9.531 21.246 21.246v47.435h-42.492v-47.435zm55.51 73.068h-68.535v-10.633h68.535v10.633zM197.483 133.697l8.131 139.796H184.1v15h22.386L218.613 497H48.677l2.604-44.779h31.24v-15H52.154L65.78 202.953h54.833v-15H66.652l3.156-54.256-14.975-.871L32.778 512h201.734l-22.054-379.174z"/></g></svg>