<svg xmlns="http://www.w3.org/2000/svg" viewBox="0 0 512 512"><path d="M256 152.526s-140.664 62.977-140.664 140.663v190.544h52.671V293.188c0-9.991 12.714-30.86 48.544-56.798 14.049-10.168 28.275-18.647 39.45-24.796 11.492 6.324 26.217 15.115 40.668 25.686 34.928 25.549 47.322 46.085 47.322 55.908v190.544h52.672V293.189C396.663 215.503 256 152.526 256 152.526z" fill="#898890"/><g fill="#57565c"><path d="M329.329 237.281c-14.451-10.571-29.176-19.362-40.668-25.686a419.992 419.992 0 0 0-16.331 9.467c7.769 4.743 16.098 10.19 24.339 16.219 34.928 25.549 47.322 46.085 47.322 55.908v190.544h32.659V293.188c.001-9.822-12.393-30.358-47.321-55.907zM272.33 160.582c-9.981-5.211-16.33-8.056-16.33-8.056s-140.664 62.977-140.664 140.663v190.544h32.659V293.189c0-61.201 87.284-113.263 124.335-132.607z"/></g><path d="M433.5 28.266v71h-71v-71h-71v71h-71v-71h-71v71h-71v-71h-71v455.467h107.836V293.189C115.336 215.503 256 152.525 256 152.525s140.663 62.977 140.663 140.663v190.544H504.5V28.266h-71z" fill="#c6c5ca"/><g fill="#898890"><path d="M149.5 28.269h39.51v71H149.5zM433.5 28.269h39.51v71H433.5zM291.5 28.269h39.51v71H291.5zM295.51 152.525s-7.815 3.5-19.755 9.862c38.731 20.638 120.908 71.421 120.908 130.801v190.544h39.51V293.189c0-77.686-140.663-140.664-140.663-140.664zM7.5 28.269h39.51v455.47H7.5z"/></g><g fill="#1d1d1f"><path d="M113.57 125.729h15v15h-15zM88.57 125.729h15v15h-15zM188.57 125.729h15v15h-15zM163.57 125.729h15v15h-15zM138.57 125.729h15v15h-15zM23.994 218.699h15v15h-15zM73.994 218.699h15v15h-15zM98.99 218.699h14.343v15H98.99zM48.994 218.699h15v15h-15zM25.994 425.069h15v15h-15zM75.994 425.069h15v15h-15zM50.994 425.069h15v15h-15zM469.11 310.629h15v15h-15zM444.11 310.629h15v15h-15zM419.11 310.629h15v15h-15zM467.33 450.729h15v15h-15zM442.33 450.729h15v15h-15z"/><path d="M426 20.766v71h-56v-71h-86v71h-56v-71h-86v71H86v-71H0v470.466h95.336v-15H15v-77.429h39.5v-15H15V134.399h42v-15H15V95.732h22v-15H15V35.766h56v71h86v-71h56v26.966h-26.234v15H213v29.034h86V90.399h30v-15h-30V35.766h56v71h86v-71h56v32.966h-25.62v15H497v21.667h-38.333v15H497v98.303h-66v15h66v242.53h-80.337v15H512V20.766z"/><path d="M424.139 431.869v-15h-19.976v-25.804h47.451v-15h-47.451v-82.877c0-81.606-139.174-144.855-145.099-147.509l-3.064-1.37-3.064 1.372c-1.892.847-17.387 7.885-37.589 19.72h-69.013v15h45.156c-39.594 26.769-83.652 66.873-83.652 112.789v10.465H57v15h50.837v23.065H85v15h22.837v134.514h67.671V293.188c0-4.959 8.164-23.737 45.442-50.723a324.53 324.53 0 0 1 9.514-6.614v12.566h18.038v30.862h-28.997v-19.53h-15v19.531h-15.201v15h15.201v30.863h-16.497v15h16.497v30.863h-16.497v15h16.497v30.862h-16.497v15h16.497v26.819h15v-26.818h28.997v26.363h15v-26.363h28.997v26.819h15v-26.819h16.492v-15h-16.492v-30.862h16.492v-15h-16.492v-30.863h16.492v-15h-16.492v-30.863h15.196v-15h-15.196v-19.532h-15v19.531h-28.997v-30.862h18.033v-12.565a321.522 321.522 0 0 1 10.707 7.482c36.3 26.551 44.249 44.989 44.249 49.854v198.044h67.672v-59.364h19.976zM219.505 294.28h28.997v30.863h-28.997V294.28zm0 45.864h28.997v30.863h-28.997v-30.863zm0 76.725v-30.862h28.997v30.862h-28.997zm72.994 0h-28.997v-30.862h28.997v30.862zm0-45.862h-28.997v-30.863h28.997v30.863zm0-76.727v30.863h-28.997V294.28h28.997zm58.992 89.523v-74.08l37.672-11.564v85.645h-37.672v-.001zm-190.983 0h-14.675v-28.237h-15v28.237h-7.996v-85.645l37.671 11.564v74.081zm-37.671 92.429v-77.43h37.671v77.43h-37.671zm37.671-183.044v.842l-36.723-11.273c4.211-23.829 22.215-46.177 43.798-65.131l26.734 26.734c-21.464 18.496-33.809 36.073-33.809 48.828zm51.647-62.873a296.201 296.201 0 0 0-6.119 4.55l-26.86-26.86c26.017-20.462 54.387-35.943 69.325-43.505v42.696c-13.146 7.408-25.364 15.171-36.346 23.119zm51.347 3.104v-1.823h-15v1.823H234.14a391.686 391.686 0 0 1 21.862-13.24 391.633 391.633 0 0 1 21.854 13.24h-14.354zm0-26.22v-11.433l28.122 17.997 8.086-12.635-36.208-23.171v-13.469c12.876 6.501 35.731 18.882 58.432 35.313a324.07 324.07 0 0 1 10.872 8.224l-26.844 26.844a294.63 294.63 0 0 0-4.863-3.641c-11.301-8.266-23.94-16.335-37.597-24.029zm54.182 37.161l26.686-26.686c20.686 18.263 39.479 40.867 43.841 65.085l-36.719 11.272v-.843c-.001-12.726-12.356-30.334-33.808-48.828zm33.807 231.872v-77.43H359v31.43h15v-31.43h15.163v77.43h-37.672z"/><path d="M369 337.229h15v15h-15zM369 312.229h15v15h-15zM369 362.229h15v14.274h-15z"/></g><g fill="#fff"><path d="M384.5 155.729h90.78v15H384.5zM359.5 155.729h15v15h-15zM334.5 155.729h15v15h-15z"/></g></svg>