<?xml version="1.0" encoding="iso-8859-1"?>
<!-- Generator: Adobe Illustrator 19.0.0, SVG Export Plug-In . SVG Version: 6.00 Build 0)  -->
<svg version="1.1" id="Capa_1" xmlns="http://www.w3.org/2000/svg" xmlns:xlink="http://www.w3.org/1999/xlink" x="0px" y="0px"
	 viewBox="0 0 511.999 511.999" style="enable-background:new 0 0 511.999 511.999;" xml:space="preserve">
<polygon style="fill:#C6C5CA;" points="500.672,11.333 447.257,11.333 174.53,284.06 227.945,337.474 500.672,64.747 "/>
<polygon style="fill:#898890;" points="202.012,284.06 474.738,11.333 447.257,11.333 174.53,284.06 227.945,337.474 
	241.686,323.733 "/>
<g>
	
		<rect x="91.616" y="305.245" transform="matrix(-0.7071 -0.7071 0.7071 -0.7071 91.6093 686.1531)" style="fill:#FFE477;" width="192.592" height="37.716"/>
	
		<rect x="7.635" y="445.162" transform="matrix(-0.7071 -0.7071 0.7071 -0.7071 -233.6352 820.8486)" style="fill:#FFE477;" width="91.101" height="27.3"/>
</g>
<g>
	
		<rect x="87.509" y="314.294" transform="matrix(-0.7071 -0.7071 0.7071 -0.7071 -75.4512 755.3367)" style="fill:#FFB655;" width="62.401" height="158.002"/>
	<polygon style="fill:#FFB655;" points="134.5,269.346 147.158,256.687 133.148,242.676 106.477,269.346 242.659,405.528 
		256.67,391.517 	"/>
	<polygon style="fill:#FFB655;" points="30.48,436.258 40.206,426.531 30.631,416.956 11.328,436.258 75.746,500.676 
		85.323,491.101 	"/>
</g>
<polygon style="fill:#FF7956;" points="59.927,427.101 162.08,324.949 152.505,315.373 40.777,427.101 84.903,471.228 
	94.478,461.653 "/>
<rect x="413.267" y="445.161" transform="matrix(0.7071 -0.7071 0.7071 0.7071 -190.0439 458.8152)" style="fill:#FFE477;" width="91.101" height="27.3"/>
<rect x="362.107" y="314.306" transform="matrix(0.7071 -0.7071 0.7071 0.7071 -162.9129 393.3069)" style="fill:#FFB655;" width="62.401" height="158.002"/>
<polygon style="fill:#FFE477;" points="378.853,242.676 256,365.528 269.329,378.857 256,392.186 269.341,405.527 405.523,269.345 
	"/>
<polygon style="fill:#FFB655;" points="435.543,481.374 490.666,426.251 481.369,416.956 416.951,481.374 436.254,500.676 
	445.549,491.381 "/>
<polygon style="fill:#FF7956;" points="338.294,359.5 370.957,326.835 359.495,315.373 315.369,359.5 427.097,471.228 
	438.56,459.766 "/>
<polygon style="fill:#FFB655;" points="294.132,380.736 278.924,365.528 390.315,254.138 378.853,242.676 256,365.528 
	269.329,378.857 256,392.186 269.341,405.528 "/>
<g>
	<polygon style="fill:#C6C5CA;" points="256,202.59 64.743,11.333 11.329,11.333 11.329,64.747 202.586,256.004 	"/>
	
		<rect x="276.9" y="258.981" transform="matrix(0.7071 0.7071 -0.7071 0.7071 296.7471 -122.9088)" style="fill:#C6C5CA;" width="39.675" height="75.541"/>
</g>
<g>
	<polygon style="fill:#898890;" points="40.207,64.747 40.207,11.333 11.328,11.333 11.328,64.747 202.586,256.004 217.025,241.566 
			"/>
	<polygon style="fill:#898890;" points="284.879,309.419 323.853,270.443 309.414,256.004 256,309.419 284.056,337.474 
		298.494,323.034 	"/>
</g>
<polygon style="fill:#FFFFFF;" points="195.908,11.333 195.908,90.111 237.688,90.111 254.456,106.879 271.224,90.111 
	313.003,90.111 313.003,11.333 "/>
<rect x="195.914" y="11.333" style="fill:#D8D7DA;" width="18.474" height="78.782"/>
<g>
	
		<rect x="447.331" y="48.112" transform="matrix(-0.7071 -0.7071 0.7071 -0.7071 737.1222 416.5504)" style="fill:#FFFFFF;" width="15" height="15"/>
	
		<rect x="429.649" y="65.792" transform="matrix(-0.7071 -0.7071 0.7071 -0.7071 694.4345 434.2278)" style="fill:#FFFFFF;" width="15" height="15"/>
	
		<rect x="371.934" y="66.877" transform="matrix(-0.7071 -0.7071 0.7071 -0.7071 555.1086 491.9195)" style="fill:#FFFFFF;" width="15" height="128.231"/>
	
		<rect x="147.406" y="145.838" transform="matrix(-0.7071 -0.7071 0.7071 -0.7071 156.0146 371.3003)" style="fill:#FFFFFF;" width="15" height="15"/>
	
		<rect x="165.086" y="163.524" transform="matrix(-0.7071 -0.7071 0.7071 -0.7071 173.6913 413.9931)" style="fill:#FFFFFF;" width="15" height="15"/>
	
		<rect x="33.077" y="88.141" transform="matrix(0.7071 0.7071 -0.7071 0.7071 96.0957 -40.7127)" style="fill:#FFFFFF;" width="128.231" height="15"/>
</g>
<g>
	
		<rect x="162.587" y="297.612" transform="matrix(-0.7071 0.7071 -0.7071 -0.7071 506.1037 400.5885)" style="fill:#1D1D1F;" width="15" height="15"/>
	
		<rect x="197.885" y="333.033" transform="matrix(0.7071 -0.7071 0.7071 0.7071 -180.5751 244.943)" style="fill:#1D1D1F;" width="15" height="14.823"/>
	
		<rect x="180.261" y="315.292" transform="matrix(-0.7071 0.7071 -0.7071 -0.7071 548.7759 418.2737)" style="fill:#1D1D1F;" width="15" height="15"/>
	
		<rect x="315.007" y="316.653" transform="matrix(0.7071 0.7071 -0.7071 0.7071 323.6711 -133.1047)" style="fill:#1D1D1F;" width="15" height="15"/>
	
		<rect x="332.632" y="298.97" transform="matrix(-0.7071 -0.7071 0.7071 -0.7071 363.9342 763.6865)" style="fill:#1D1D1F;" width="15" height="15"/>
	
		<rect x="297.389" y="334.358" transform="matrix(0.7071 0.7071 -0.7071 0.7071 330.9676 -115.4871)" style="fill:#1D1D1F;" width="15" height="14.823"/>
	<path style="fill:#1D1D1F;" d="M482.033,405.265l-10.175,10.175L370.407,313.99l46.163-46.163l-37.355-37.355l-41.506,41.506
		l-8.78-8.781l-10.607,10.606l8.781,8.781l-16.179,16.179l-17.531-17.53L508.894,65.731V1.553h-64.179l-215.5,215.5l-19.722-19.721
		l-10.607,10.606l19.722,19.722l-44.317,44.317l-41.506-41.506L95.43,267.826l46.163,46.163L40.142,415.441l-10.175-10.175L0,435.23
		l75.215,75.214l29.966-29.966l-10.176-10.176l101.451-101.451l46.163,46.163l37.356-37.355l-41.506-41.506l44.317-44.317
		l17.53,17.53l-16.18,16.179l-8.78-8.781l-10.607,10.606l8.781,8.781l-8.781,8.781l10.607,10.606l103.858-103.858l16.142,16.142
		l-103.858,103.86l10.607,10.606l13.438-13.438l101.451,101.451l-10.176,10.176l29.966,29.966l75.215-75.214L482.033,405.265z
		 M450.928,16.553h42.966v42.965l-266.031,266.03l-16.179-16.179l101.432-101.432l-10.607-10.606L201.076,298.762l-16.179-16.178
		L450.928,16.553z M87.698,389.098l8.472-8.472l33.65,33.65l-8.473,8.473L87.698,389.098z M110.74,433.355l-8.472,8.472
		l-33.65-33.651l8.472-8.472L110.74,433.355z M106.777,370.018l8.472-8.472l33.65,33.65l-8.472,8.472L106.777,370.018z
		 M125.856,350.939l8.472-8.472l33.65,33.65l-8.472,8.472L125.856,350.939z M21.213,435.23l8.752-8.751l54.001,54.001l-8.752,8.752
		L21.213,435.23z M50.749,426.047l7.263-7.263l33.65,33.651l-7.262,7.262L50.749,426.047z M178.586,365.509l-33.65-33.65
		l7.262-7.262l16.825,16.824l16.825,16.825L178.586,365.509z M242.619,393.803l-35.557-35.557l0,0l-27.432-27.432l-62.988-62.988
		l16.142-16.142l30.899,30.899l0,0l32.09,32.09l62.988,62.988L242.619,393.803z M396.751,361.546l8.472,8.472l-33.65,33.65
		l-8.472-8.472L396.751,361.546z M352.493,384.589l-8.472-8.472l33.65-33.65l8.472,8.472L352.493,384.589z M415.83,380.625
		l8.472,8.472l-33.65,33.651l-8.473-8.473L415.83,380.625z M434.91,399.705l8.472,8.472l-33.65,33.651l-8.472-8.472L434.91,399.705z
		 M359.801,324.596l7.262,7.262l-33.65,33.65l-7.263-7.263L359.801,324.596z M420.339,452.435l33.65-33.651l7.263,7.263
		l-33.65,33.65L420.339,452.435z M428.032,480.48l54.001-54.001l8.752,8.751l-54.002,54.001L428.032,480.48z"/>
	<path style="fill:#1D1D1F;" d="M254.451,115.487l19.924-19.924h46.296V1.553h-132.44v94.011h46.296L254.451,115.487z
		 M203.232,16.553h102.44v64.01h-37.509l-13.711,13.711l-13.711-13.711h-37.509L203.232,16.553L203.232,16.553z"/>
	<polygon style="fill:#1D1D1F;" points="280.831,35.012 268.116,27.054 254.448,48.894 240.779,27.054 228.064,35.012 
		254.448,77.168 	"/>
	<polygon style="fill:#1D1D1F;" points="193.679,235.089 18.107,59.518 18.107,16.553 61.072,16.553 236.643,192.124 
		247.25,181.518 67.285,1.553 3.107,1.553 3.107,65.731 183.071,245.696 	"/>
</g>
<g>
</g>
<g>
</g>
<g>
</g>
<g>
</g>
<g>
</g>
<g>
</g>
<g>
</g>
<g>
</g>
<g>
</g>
<g>
</g>
<g>
</g>
<g>
</g>
<g>
</g>
<g>
</g>
<g>
</g>
</svg>
