<svg xmlns="http://www.w3.org/2000/svg" viewBox="0 0 511.999 511.999"><path fill="#c6c5ca" d="M500.672 11.333h-53.415L174.53 284.06l53.415 53.414L500.672 64.747z"/><path fill="#898890" d="M202.012 284.06L474.738 11.333h-27.481L174.53 284.06l53.415 53.414 13.741-13.741z"/><g fill="#ffe477"><path d="M242.666 405.533L106.485 269.35l26.669-26.67 136.181 136.183zM75.74 500.676l-64.417-64.418 19.303-19.304 64.418 64.418z"/></g><g fill="#ffb655"><path d="M84.908 471.222l-44.123-44.124 111.723-111.723 44.124 44.124z"/><path d="M134.5 269.346l12.658-12.659-14.01-14.011-26.671 26.67 136.182 136.182 14.011-14.011zM30.48 436.258l9.726-9.727-9.575-9.575-19.303 19.302 64.418 64.418 9.577-9.575z"/></g><path fill="#ff7956" d="M59.927 427.101L162.08 324.949l-9.575-9.576L40.777 427.101l44.126 44.127 9.575-9.575z"/><path fill="#ffe477" d="M416.95 481.367l64.418-64.417 19.304 19.304-64.418 64.417z"/><path fill="#ffb655" d="M315.379 359.507l44.123-44.124 111.724 111.723-44.124 44.124z"/><path fill="#ffe477" d="M378.853 242.676L256 365.528l13.329 13.329L256 392.186l13.341 13.341 136.182-136.182z"/><path fill="#ffb655" d="M435.543 481.374l55.123-55.123-9.297-9.295-64.418 64.418 19.303 19.302 9.295-9.295z"/><path fill="#ff7956" d="M338.294 359.5l32.663-32.665-11.462-11.462-44.126 44.127 111.728 111.728 11.463-11.462z"/><path fill="#ffb655" d="M294.132 380.736l-15.208-15.208 111.391-111.39-11.462-11.462L256 365.528l13.329 13.329L256 392.186l13.341 13.342z"/><g fill="#c6c5ca"><path d="M256 202.59L64.743 11.333H11.329v53.414l191.257 191.257zM309.418 256.013l28.054 28.054-53.415 53.415-28.054-28.054z"/></g><g fill="#898890"><path d="M40.207 64.747V11.333H11.328v53.414l191.258 191.257 14.439-14.438zM284.879 309.419l38.974-38.976-14.439-14.439L256 309.419l28.056 28.055 14.438-14.44z"/></g><path fill="#fff" d="M195.908 11.333v78.778h41.78l16.768 16.768 16.768-16.768h41.779V11.333z"/><path fill="#d8d7da" d="M195.914 11.333h18.474v78.782h-18.474z"/><g fill="#fff"><path d="M454.834 66.223l-10.606-10.607 10.606-10.606 10.607 10.606zM437.151 83.901l-10.606-10.606 10.606-10.607 10.607 10.607zM339.403 181.636l-10.607-10.606 90.672-90.672 10.607 10.606zM154.906 163.947l-10.607-10.606 10.607-10.607 10.606 10.607zM172.587 181.633l-10.607-10.607 10.607-10.606 10.606 10.606zM57.16 45l90.672 90.673-10.606 10.606-90.673-90.672z"/></g><g fill="#1d1d1f"><path d="M180.697 305.112L170.09 315.72l-10.606-10.607 10.606-10.606zM194.837 340.506l10.607-10.606 10.48 10.481-10.606 10.606zM198.37 322.793L187.764 333.4l-10.607-10.607 10.607-10.606zM322.507 313.542l10.607 10.607-10.607 10.606-10.606-10.606zM340.132 317.08l-10.607-10.606 10.607-10.606 10.606 10.606zM304.827 331.221l10.606 10.607-10.481 10.481-10.607-10.606z"/><path d="M482.033 405.265l-10.175 10.175-101.451-101.45 46.163-46.163-37.355-37.355-41.506 41.506-8.78-8.781-10.607 10.606 8.781 8.781-16.179 16.179-17.531-17.53L508.894 65.731V1.553h-64.179l-215.5 215.5-19.722-19.721-10.607 10.606 19.722 19.722-44.317 44.317-41.506-41.506-37.355 37.355 46.163 46.163L40.142 415.441l-10.175-10.175L0 435.23l75.215 75.214 29.966-29.966-10.176-10.176 101.451-101.451 46.163 46.163 37.356-37.355-41.506-41.506 44.317-44.317 17.53 17.53-16.18 16.179-8.78-8.781-10.607 10.606 8.781 8.781-8.781 8.781 10.607 10.606L379.214 251.68l16.142 16.142-103.858 103.86 10.607 10.606 13.438-13.438 101.451 101.451-10.176 10.176 29.966 29.966 75.215-75.214-29.966-29.964zM450.928 16.553h42.966v42.965l-266.031 266.03-16.179-16.179 101.432-101.432-10.607-10.606-101.433 101.431-16.179-16.178L450.928 16.553zM87.698 389.098l8.472-8.472 33.65 33.65-8.473 8.473-33.649-33.651zm23.042 44.257l-8.472 8.472-33.65-33.651 8.472-8.472 33.65 33.651zm-3.963-63.337l8.472-8.472 33.65 33.65-8.472 8.472-33.65-33.65zm19.079-19.079l8.472-8.472 33.65 33.65-8.472 8.472-33.65-33.65zM21.213 435.23l8.752-8.751 54.001 54.001-8.752 8.752-54.001-54.002zm29.536-9.183l7.263-7.263 33.65 33.651-7.262 7.262-33.651-33.65zm127.837-60.538l-33.65-33.65 7.262-7.262 16.825 16.824 16.825 16.825-7.262 7.263zm64.033 28.294l-35.557-35.557-27.432-27.432-62.988-62.988 16.142-16.142 30.899 30.899 32.09 32.09 62.988 62.988-16.142 16.142zm154.132-32.257l8.472 8.472-33.65 33.65-8.472-8.472 33.65-33.65zm-44.258 23.043l-8.472-8.472 33.65-33.65 8.472 8.472-33.65 33.65zm63.337-3.964l8.472 8.472-33.65 33.651-8.473-8.473 33.651-33.65zm19.08 19.08l8.472 8.472-33.65 33.651-8.472-8.472 33.65-33.651zm-75.109-75.109l7.262 7.262-33.65 33.65-7.263-7.263 33.651-33.649zm60.538 127.839l33.65-33.651 7.263 7.263-33.65 33.65-7.263-7.262zm7.693 28.045l54.001-54.001 8.752 8.751-54.002 54.001-8.751-8.751z"/><path d="M254.451 115.487l19.924-19.924h46.296V1.553h-132.44v94.011h46.296l19.924 19.923zm-51.219-98.934h102.44v64.01h-37.509l-13.711 13.711-13.711-13.711h-37.509v-64.01z"/><path d="M280.831 35.012l-12.715-7.958-13.668 21.84-13.669-21.84-12.715 7.958 26.384 42.156zM193.679 235.089L18.107 59.518V16.553h42.965l175.571 175.571 10.607-10.606L67.285 1.553H3.107v64.178l179.964 179.965z"/></g></svg>