<?xml version="1.0" encoding="iso-8859-1"?>
<!-- Generator: Adobe Illustrator 19.0.0, SVG Export Plug-In . SVG Version: 6.00 Build 0)  -->
<svg version="1.1" id="Capa_1" xmlns="http://www.w3.org/2000/svg" xmlns:xlink="http://www.w3.org/1999/xlink" x="0px" y="0px"
	 viewBox="0 0 512 512" style="enable-background:new 0 0 512 512;" xml:space="preserve">
<g>
	<g transform="translate(1 1)">
		<g>
			<path style="fill:#4E342E;" d="M84.333,255l187.733,0c21.839-0.024,42.646,9.293,57.173,25.6h0.085
				c4.579,5.154,8.452,10.893,11.52,17.067c4.03,8.009,6.575,16.683,7.509,25.6c0.683,5.668,0.683,11.398,0,17.067
				c-0.935,8.917-3.479,17.591-7.509,25.6c-3.067,6.194-6.972,11.937-11.605,17.067c-14.527,16.307-35.334,25.624-57.173,25.6
				l-187.733,0V255z"/>
			<path style="fill:#4E342E;" d="M425.667,178.2c0.002,2.852-0.169,5.702-0.512,8.533c-0.934,8.917-3.479,17.591-7.509,25.6
				c-3.067,6.194-6.972,11.937-11.605,17.067c-14.527,16.307-35.334,25.624-57.173,25.6l-187.733,0V101.4l187.733,0
				c21.839-0.024,42.646,9.293,57.173,25.6h0.085c4.579,5.154,8.452,10.893,11.52,17.067c4.031,8.009,6.575,16.683,7.509,25.6
				C425.498,172.498,425.669,175.348,425.667,178.2z"/>
		</g>
		<g>
			<path style="fill:#774B2C;" d="M323.267,135.533c0,4.713-3.821,8.533-8.533,8.533h-84.821
				c-3.067-6.194-6.972-11.937-11.605-17.067h96.427C319.446,127,323.267,130.821,323.267,135.533z"/>
			<path style="fill:#774B2C;" d="M417.645,144.067h-68.779c-4.713,0-8.533-3.821-8.533-8.533s3.821-8.533,8.533-8.533h57.259
				C410.704,132.154,414.578,137.893,417.645,144.067z"/>
			<path style="fill:#774B2C;" d="M323.267,220.867c0,4.713-3.821,8.533-8.533,8.533h-96.427
				c4.633-5.129,8.538-10.872,11.605-17.067h84.821C319.446,212.333,323.267,216.154,323.267,220.867z"/>
			<path style="fill:#774B2C;" d="M417.645,212.333c-3.067,6.194-6.972,11.937-11.605,17.067h-57.173
				c-4.713,0-8.533-3.821-8.533-8.533s3.821-8.533,8.533-8.533H417.645z"/>
			<path style="fill:#774B2C;" d="M340.333,178.2c0,4.713-3.82,8.533-8.533,8.533h-94.379c0.683-5.668,0.683-11.398,0-17.067H331.8
				C336.513,169.667,340.333,173.487,340.333,178.2z"/>
			<path style="fill:#774B2C;" d="M425.667,178.2c0.002,2.852-0.169,5.702-0.512,8.533h-59.221c-4.713,0-8.533-3.82-8.533-8.533
				c0-4.713,3.82-8.533,8.533-8.533h59.221C425.498,172.498,425.669,175.348,425.667,178.2z"/>
		</g>
		<path style="fill:#4E342E;" d="M502.467,331.8c0.002,2.852-0.169,5.702-0.512,8.533c-0.935,8.917-3.479,17.591-7.509,25.6
			c-3.067,6.194-6.972,11.937-11.605,17.067c-14.527,16.307-35.334,25.624-57.173,25.6l-187.733,0V255l187.733,0
			c21.839-0.024,42.646,9.293,57.173,25.6h0.085c4.579,5.154,8.452,10.893,11.52,17.067c4.03,8.009,6.575,16.683,7.509,25.6
			C502.298,326.098,502.469,328.948,502.467,331.8z"/>
		<g>
			<path style="fill:#795548;" d="M400.067,178.2c0.002,2.852-0.169,5.702-0.512,8.533c-0.935,8.917-3.479,17.591-7.509,25.6
				c-3.067,6.194-6.972,11.937-11.605,17.067c-14.527,16.307-35.334,25.624-57.173,25.6l-162.133,0V101.4l162.133,0
				c21.839-0.024,42.646,9.293,57.173,25.6h0.085c4.579,5.154,8.452,10.893,11.52,17.067c4.03,8.009,6.575,16.683,7.509,25.6
				C399.898,172.498,400.069,175.348,400.067,178.2z"/>
			<path style="fill:#795548;" d="M476.867,331.8c0.002,2.852-0.169,5.702-0.512,8.533c-0.935,8.917-3.479,17.591-7.509,25.6
				c-3.067,6.194-6.972,11.937-11.605,17.067c-14.527,16.307-35.334,25.624-57.173,25.6l-162.133,0V255l162.133,0
				c21.839-0.024,42.646,9.293,57.173,25.6h0.085c4.579,5.154,8.452,10.893,11.52,17.067c4.031,8.009,6.575,16.683,7.509,25.6
				C476.698,326.098,476.869,328.948,476.867,331.8z"/>
		</g>
		<g>
			<path style="fill:#774B2C;" d="M400.067,289.133c0,4.713-3.82,8.533-8.533,8.533h-84.821
				c-3.067-6.194-6.972-11.937-11.605-17.067h96.427C396.246,280.6,400.067,284.421,400.067,289.133z"/>
			<path style="fill:#774B2C;" d="M494.445,297.667h-68.779c-4.713,0-8.533-3.82-8.533-8.533s3.82-8.533,8.533-8.533h57.259
				C487.504,285.754,491.378,291.493,494.445,297.667z"/>
			<path style="fill:#774B2C;" d="M400.067,374.467c0,4.713-3.82,8.533-8.533,8.533h-96.427c4.633-5.129,8.538-10.872,11.605-17.067
				h84.821C396.246,365.933,400.067,369.754,400.067,374.467z"/>
			<path style="fill:#774B2C;" d="M494.445,365.933c-3.067,6.194-6.972,11.937-11.605,17.067h-57.173
				c-4.713,0-8.533-3.821-8.533-8.533c0-4.713,3.82-8.533,8.533-8.533H494.445z"/>
		</g>
		<path style="fill:#4E342E;" d="M417.133,331.8c0,4.713-3.821,8.533-8.533,8.533h-94.379c0.683-5.668,0.683-11.398,0-17.067H408.6
			C413.313,323.267,417.133,327.087,417.133,331.8z"/>
		<path style="fill:#774B2C;" d="M502.467,331.8c0.002,2.852-0.169,5.702-0.512,8.533h-59.221c-4.713,0-8.533-3.82-8.533-8.533
			s3.821-8.533,8.533-8.533h59.221C502.298,326.098,502.469,328.948,502.467,331.8z"/>
		<g>
			<path style="fill:#F57C00;" d="M161.133,331.8c0.036,14.297-3.957,28.315-11.52,40.448c-0.427,0.683-0.853,1.365-1.28,1.963
				c-7.826,11.832-18.787,21.257-31.659,27.221c-10.12,4.746-21.164,7.194-32.341,7.168c-4.287,0.005-8.568-0.337-12.8-1.024h-0.085
				c-36.935-6.315-63.934-38.341-63.913-75.812c0.021-37.471,27.057-69.466,63.999-75.74c4.232-0.687,8.513-1.029,12.8-1.024
				C126.735,255.033,161.1,289.398,161.133,331.8z"/>
			<path style="fill:#F57C00;" d="M237.933,178.2c0.036,14.297-3.957,28.315-11.52,40.448c-7.902,12.729-19.35,22.873-32.939,29.184
				c-10.12,4.746-21.164,7.194-32.341,7.168c-4.287,0.005-8.568-0.337-12.8-1.024h-0.085c-36.935-6.315-63.934-38.341-63.913-75.812
				c0.021-37.471,27.057-69.466,63.999-75.74c4.232-0.687,8.513-1.029,12.8-1.024C203.549,101.4,237.933,135.785,237.933,178.2z"/>
			<path style="fill:#F57C00;" d="M314.733,331.8c0.036,14.297-3.957,28.315-11.52,40.448c-7.902,12.729-19.35,22.873-32.939,29.184
				c-10.12,4.746-21.164,7.194-32.341,7.168c-4.287,0.005-8.568-0.337-12.8-1.024h-0.085c-36.935-6.315-63.934-38.341-63.913-75.812
				c0.021-37.471,27.057-69.466,63.999-75.74c4.232-0.687,8.513-1.029,12.8-1.024C280.349,255,314.733,289.385,314.733,331.8z"/>
		</g>
		<g>
			<path style="fill:#FF9801;" d="M135.533,331.8c0.036,14.297-3.957,28.315-11.52,40.448c-7.902,12.729-19.35,22.873-32.939,29.184
				c-6.205,2.925-12.779,4.992-19.541,6.144h-0.085c-36.935-6.315-63.934-38.341-63.913-75.812
				c0.021-37.471,27.057-69.466,63.999-75.74C108.489,262.299,135.53,294.315,135.533,331.8z"/>
			<path style="fill:#FF9801;" d="M212.333,178.2c0.036,14.297-3.957,28.315-11.52,40.448c-7.902,12.729-19.35,22.873-32.939,29.184
				c-6.205,2.925-12.779,4.992-19.541,6.144h-0.085c-36.935-6.315-63.934-38.341-63.913-75.812
				c0.021-37.471,27.057-69.466,63.999-75.74C185.289,108.699,212.33,140.715,212.333,178.2z"/>
			<path style="fill:#FF9801;" d="M289.133,331.8c0.036,14.297-3.957,28.315-11.52,40.448c-7.902,12.729-19.35,22.873-32.939,29.184
				c-6.205,2.925-12.779,4.992-19.541,6.144h-0.085c-36.935-6.315-63.934-38.341-63.913-75.812
				c0.021-37.471,27.057-69.466,63.999-75.74C262.089,262.299,289.13,294.315,289.133,331.8z"/>
		</g>
	</g>
	<path d="M85.333,418.133h341.333c47.128,0,85.333-38.205,85.333-85.333s-38.205-85.333-85.333-85.333h-25.822
		c29.498-21.943,41.599-60.329,30.018-95.222c-11.581-34.893-44.232-58.426-80.996-58.378H162.133
		c-36.764-0.048-69.416,23.485-80.996,58.378s0.52,73.279,30.018,95.222H85.333C38.205,247.467,0,285.672,0,332.8
		S38.205,418.133,85.333,418.133z M136.311,401.067c10.989-8.223,19.844-18.963,25.822-31.317
		c5.978,12.354,14.833,23.094,25.822,31.317H136.311z M238.933,264.533c26.232-0.028,50.154,14.994,61.524,38.633
		c11.37,23.639,8.172,51.705-8.225,72.181c-23.131,15.862-54.217,13.326-74.47-6.076c-8.296-7.959-12.986-18.959-12.986-30.455
		c0-11.497,4.69-22.496,12.986-30.455c13.458-12.887,34.679-12.887,48.137,0c4.689,4.538,7.336,10.784,7.336,17.31
		c0,6.525-2.647,12.772-7.336,17.31c-7.448,7.117-19.176,7.117-26.624,0c-3.389-3.278-8.793-3.188-12.07,0.201
		c-3.278,3.389-3.188,8.793,0.201,12.07c14.108,13.457,36.299,13.457,50.406,0c7.982-7.753,12.485-18.407,12.485-29.534
		c0-11.127-4.504-21.781-12.485-29.534c-20.117-19.287-51.862-19.287-71.979,0c-11.58,11.174-18.122,26.575-18.122,42.667
		s6.541,31.493,18.122,42.667c10.09,9.749,22.715,16.47,36.437,19.396c-1.118,0.06-2.219,0.171-3.345,0.171
		c-37.703,0-68.267-30.564-68.267-68.267c0-37.703,30.564-68.267,68.267-68.267L238.933,264.533z M426.667,264.533
		c16.582,0.003,32.59,6.073,45.005,17.067h-45.005c-4.713,0-8.533,3.82-8.533,8.533s3.82,8.533,8.533,8.533h59.025
		c4.575,7.865,7.518,16.572,8.653,25.6h-50.611c-4.713,0-8.533,3.82-8.533,8.533s3.821,8.533,8.533,8.533h50.611
		c-1.135,9.028-4.078,17.735-8.653,25.6h-59.025c-4.713,0-8.533,3.821-8.533,8.533c0,4.713,3.82,8.533,8.533,8.533h45.005
		c-12.414,10.994-28.422,17.064-45.005,17.067H289.911c6.483-4.855,12.249-10.6,17.126-17.067h85.495
		c4.713,0,8.533-3.821,8.533-8.533c0-4.713-3.82-8.533-8.533-8.533H317.09c3.579-8.126,5.854-16.765,6.741-25.6H409.6
		c4.713,0,8.533-3.82,8.533-8.533s-3.821-8.533-8.533-8.533h-85.769c-0.887-8.835-3.162-17.474-6.741-25.6h75.443
		c4.713,0,8.533-3.82,8.533-8.533s-3.82-8.533-8.533-8.533h-85.495c-4.877-6.466-10.643-12.212-17.126-17.067H426.667z
		 M349.867,110.933c16.582,0.003,32.59,6.073,45.005,17.067h-45.005c-4.713,0-8.533,3.82-8.533,8.533s3.821,8.533,8.533,8.533
		h59.025c4.575,7.865,7.518,16.572,8.653,25.6h-50.611c-4.713,0-8.533,3.82-8.533,8.533s3.82,8.533,8.533,8.533h50.611
		c-1.135,9.028-4.078,17.735-8.653,25.6h-59.025c-4.713,0-8.533,3.82-8.533,8.533s3.821,8.533,8.533,8.533h45.005
		c-12.414,10.994-28.422,17.064-45.005,17.067H213.111c6.483-4.855,12.249-10.6,17.126-17.067h85.495
		c4.713,0,8.533-3.821,8.533-8.533s-3.821-8.533-8.533-8.533H240.29c3.579-8.126,5.854-16.765,6.741-25.6H332.8
		c4.713,0,8.533-3.821,8.533-8.533s-3.82-8.533-8.533-8.533h-85.769c-0.887-8.835-3.162-17.474-6.741-25.6h75.443
		c4.713,0,8.533-3.821,8.533-8.533S320.446,128,315.733,128h-85.495c-4.877-6.466-10.643-12.212-17.126-17.067H349.867z
		 M93.867,179.2c-0.048-29.98,19.47-56.482,48.113-65.333s59.709,2.022,76.582,26.803s15.603,57.67-3.129,81.077
		c-23.131,15.862-54.217,13.326-74.47-6.076c-8.296-7.959-12.986-18.959-12.986-30.455c0-11.497,4.69-22.496,12.986-30.455
		c13.458-12.887,34.679-12.887,48.137,0c4.689,4.538,7.336,10.784,7.336,17.31s-2.647,12.772-7.336,17.31
		c-7.449,7.113-19.174,7.113-26.624,0c-3.389-3.278-8.793-3.188-12.07,0.201c-3.278,3.389-3.188,8.793,0.201,12.07
		c14.108,13.457,36.299,13.457,50.406,0c7.982-7.753,12.485-18.407,12.485-29.534c0-11.127-4.504-21.781-12.485-29.534
		c-20.117-19.287-51.862-19.287-71.979,0c-11.58,11.174-18.122,26.575-18.122,42.667s6.541,31.493,18.122,42.667
		c10.09,9.749,22.715,16.47,36.437,19.396c-1.118,0.06-2.219,0.171-3.345,0.171C124.436,247.437,93.9,216.888,93.867,179.2z
		 M162.133,264.533h25.822c-10.989,8.223-19.844,18.963-25.822,31.317c-5.978-12.354-14.833-23.094-25.822-31.317H162.133z
		 M85.333,264.533c26.232-0.028,50.154,14.994,61.524,38.633c11.37,23.639,8.172,51.705-8.225,72.181
		c-23.131,15.862-54.216,13.326-74.47-6.076c-8.296-7.959-12.986-18.959-12.986-30.455c0-11.497,4.69-22.496,12.986-30.455
		c13.458-12.887,34.679-12.887,48.137,0c4.689,4.538,7.336,10.784,7.336,17.31c0,6.525-2.647,12.772-7.336,17.31
		c-7.448,7.117-19.176,7.117-26.624,0c-3.389-3.278-8.793-3.188-12.07,0.201s-3.188,8.793,0.201,12.07
		c14.108,13.457,36.299,13.457,50.406,0c7.982-7.753,12.485-18.407,12.485-29.534c0-11.127-4.504-21.781-12.485-29.534
		c-20.117-19.287-51.862-19.287-71.979,0c-11.58,11.174-18.122,26.575-18.122,42.667s6.541,31.493,18.122,42.667
		c10.09,9.749,22.715,16.47,36.437,19.396c-1.118,0.06-2.219,0.171-3.345,0.171c-37.703,0-68.267-30.564-68.267-68.267
		c0-37.703,30.564-68.267,68.267-68.267L85.333,264.533z"/>
</g>
<g>
</g>
<g>
</g>
<g>
</g>
<g>
</g>
<g>
</g>
<g>
</g>
<g>
</g>
<g>
</g>
<g>
</g>
<g>
</g>
<g>
</g>
<g>
</g>
<g>
</g>
<g>
</g>
<g>
</g>
</svg>
