<svg xmlns="http://www.w3.org/2000/svg" viewBox="0 0 512 512"><g fill="#4e342e"><path d="M85.333 256h187.733a76.457 76.457 0 0 1 57.173 25.6h.085a77.866 77.866 0 0 1 11.52 17.067 74.138 74.138 0 0 1 7.509 25.6 71.335 71.335 0 0 1 0 17.067 74.16 74.16 0 0 1-7.509 25.6 75.35 75.35 0 0 1-11.605 17.067 76.457 76.457 0 0 1-57.173 25.6H85.333V256z"/><path d="M426.667 179.2a70.538 70.538 0 0 1-.512 8.533 74.138 74.138 0 0 1-7.509 25.6 75.35 75.35 0 0 1-11.605 17.067 76.457 76.457 0 0 1-57.173 25.6H162.135V102.4h187.733a76.457 76.457 0 0 1 57.173 25.6h.085a77.866 77.866 0 0 1 11.52 17.067 74.117 74.117 0 0 1 7.509 25.6c.343 2.831.514 5.681.512 8.533z"/></g><g fill="#774b2c"><path d="M324.267 136.533a8.533 8.533 0 0 1-8.533 8.533h-84.821a75.35 75.35 0 0 0-11.605-17.067h96.427a8.535 8.535 0 0 1 8.532 8.534zM418.645 145.067h-68.779a8.533 8.533 0 0 1 0-17.066h57.259a77.801 77.801 0 0 1 11.52 17.066zM324.267 221.867a8.533 8.533 0 0 1-8.533 8.533h-96.427a75.306 75.306 0 0 0 11.605-17.067h84.821a8.534 8.534 0 0 1 8.534 8.534zM418.645 213.333A75.35 75.35 0 0 1 407.04 230.4h-57.173a8.533 8.533 0 0 1 0-17.066h68.778zM341.333 179.2a8.533 8.533 0 0 1-8.533 8.533h-94.379a71.335 71.335 0 0 0 0-17.067H332.8a8.534 8.534 0 0 1 8.533 8.534zM426.667 179.2a70.538 70.538 0 0 1-.512 8.533h-59.221a8.533 8.533 0 0 1-8.533-8.533 8.533 8.533 0 0 1 8.533-8.533h59.221c.343 2.831.514 5.681.512 8.533z"/></g><path d="M503.467 332.8a70.538 70.538 0 0 1-.512 8.533 74.16 74.16 0 0 1-7.509 25.6A75.35 75.35 0 0 1 483.841 384a76.457 76.457 0 0 1-57.173 25.6H238.935V256h187.733a76.457 76.457 0 0 1 57.173 25.6h.085a77.866 77.866 0 0 1 11.52 17.067 74.138 74.138 0 0 1 7.509 25.6c.343 2.831.514 5.681.512 8.533z" fill="#4e342e"/><g fill="#795548"><path d="M401.067 179.2a70.538 70.538 0 0 1-.512 8.533 74.16 74.16 0 0 1-7.509 25.6 75.35 75.35 0 0 1-11.605 17.067 76.457 76.457 0 0 1-57.173 25.6H162.135V102.4h162.133a76.457 76.457 0 0 1 57.173 25.6h.085a77.866 77.866 0 0 1 11.52 17.067 74.138 74.138 0 0 1 7.509 25.6c.343 2.831.514 5.681.512 8.533z"/><path d="M477.867 332.8a70.538 70.538 0 0 1-.512 8.533 74.16 74.16 0 0 1-7.509 25.6A75.35 75.35 0 0 1 458.241 384a76.457 76.457 0 0 1-57.173 25.6H238.935V256h162.133a76.457 76.457 0 0 1 57.173 25.6h.085a77.866 77.866 0 0 1 11.52 17.067 74.117 74.117 0 0 1 7.509 25.6c.343 2.831.514 5.681.512 8.533z"/></g><g fill="#774b2c"><path d="M401.067 290.133a8.533 8.533 0 0 1-8.533 8.533h-84.821a75.35 75.35 0 0 0-11.605-17.067h96.427a8.535 8.535 0 0 1 8.532 8.534zM495.445 298.667h-68.779c-4.713 0-8.533-3.82-8.533-8.533s3.82-8.533 8.533-8.533h57.259a77.801 77.801 0 0 1 11.52 17.066zM401.067 375.467a8.533 8.533 0 0 1-8.533 8.533h-96.427a75.306 75.306 0 0 0 11.605-17.067h84.821a8.534 8.534 0 0 1 8.534 8.534zM495.445 366.933A75.35 75.35 0 0 1 483.84 384h-57.173a8.533 8.533 0 0 1 0-17.066h68.778z"/></g><path d="M418.133 332.8a8.533 8.533 0 0 1-8.533 8.533h-94.379a71.335 71.335 0 0 0 0-17.067H409.6a8.534 8.534 0 0 1 8.533 8.534z" fill="#4e342e"/><path d="M503.467 332.8a70.538 70.538 0 0 1-.512 8.533h-59.221a8.533 8.533 0 0 1 0-17.066h59.221c.343 2.831.514 5.681.512 8.533z" fill="#774b2c"/><g fill="#f57c00"><path d="M162.133 332.8a76.102 76.102 0 0 1-11.52 40.448c-.427.683-.853 1.365-1.28 1.963a76.535 76.535 0 0 1-31.659 27.221 75.753 75.753 0 0 1-32.341 7.168 79.307 79.307 0 0 1-12.8-1.024h-.085c-36.935-6.315-63.934-38.341-63.913-75.812.021-37.471 27.057-69.466 63.999-75.74a79.307 79.307 0 0 1 12.8-1.024c42.401.033 76.766 34.398 76.799 76.8zM238.933 179.2a76.102 76.102 0 0 1-11.52 40.448 76.89 76.89 0 0 1-32.939 29.184A75.753 75.753 0 0 1 162.133 256a79.307 79.307 0 0 1-12.8-1.024h-.085c-36.935-6.315-63.934-38.341-63.913-75.812.021-37.471 27.057-69.466 63.999-75.74a79.307 79.307 0 0 1 12.8-1.024c42.415 0 76.799 34.385 76.799 76.8z"/><path d="M315.733 332.8a76.102 76.102 0 0 1-11.52 40.448 76.89 76.89 0 0 1-32.939 29.184 75.753 75.753 0 0 1-32.341 7.168 79.307 79.307 0 0 1-12.8-1.024h-.085c-36.935-6.315-63.934-38.341-63.913-75.812.021-37.471 27.057-69.466 63.999-75.74a79.307 79.307 0 0 1 12.8-1.024c42.415 0 76.799 34.385 76.799 76.8z"/></g><g fill="#ff9801"><path d="M136.533 332.8a76.102 76.102 0 0 1-11.52 40.448 76.89 76.89 0 0 1-32.939 29.184 75.609 75.609 0 0 1-19.541 6.144h-.085c-36.935-6.315-63.934-38.341-63.913-75.812.021-37.471 27.057-69.466 63.999-75.74 36.955 6.275 63.996 38.291 63.999 75.776zM213.333 179.2a76.102 76.102 0 0 1-11.52 40.448 76.89 76.89 0 0 1-32.939 29.184 75.609 75.609 0 0 1-19.541 6.144h-.085c-36.935-6.315-63.934-38.341-63.913-75.812.021-37.471 27.057-69.466 63.999-75.74 36.955 6.275 63.996 38.291 63.999 75.776zM290.133 332.8a76.102 76.102 0 0 1-11.52 40.448 76.89 76.89 0 0 1-32.939 29.184 75.609 75.609 0 0 1-19.541 6.144h-.085c-36.935-6.315-63.934-38.341-63.913-75.812.021-37.471 27.057-69.466 63.999-75.74 36.955 6.275 63.996 38.291 63.999 75.776z"/></g><path d="M85.333 418.133h341.333c47.128 0 85.333-38.205 85.333-85.333s-38.205-85.333-85.333-85.333h-25.822c29.498-21.943 41.599-60.329 30.018-95.222-11.581-34.893-44.232-58.426-80.996-58.378H162.133c-36.764-.048-69.416 23.485-80.996 58.378s.52 73.279 30.018 95.222H85.333C38.205 247.467 0 285.672 0 332.8s38.205 85.333 85.333 85.333zm50.978-17.066a85.781 85.781 0 0 0 25.822-31.317 85.781 85.781 0 0 0 25.822 31.317h-51.644zm102.622-136.534a68.19 68.19 0 0 1 53.299 110.814c-23.131 15.862-54.217 13.326-74.47-6.076a42.205 42.205 0 0 1 0-60.91c13.458-12.887 34.679-12.887 48.137 0a24.088 24.088 0 0 1 0 34.62c-7.448 7.117-19.176 7.117-26.624 0a8.535 8.535 0 0 0-12.07.201 8.535 8.535 0 0 0 .201 12.07c14.108 13.457 36.299 13.457 50.406 0a41.172 41.172 0 0 0 0-59.068c-20.117-19.287-51.862-19.287-71.979 0a59.293 59.293 0 0 0 0 85.334 74.928 74.928 0 0 0 36.437 19.396c-1.118.06-2.219.171-3.345.171-37.703 0-68.267-30.564-68.267-68.267 0-37.703 30.564-68.267 68.267-68.267l.008-.018zm187.734 0a67.902 67.902 0 0 1 45.005 17.067h-45.005c-4.713 0-8.533 3.82-8.533 8.533s3.82 8.533 8.533 8.533h59.025a67.713 67.713 0 0 1 8.653 25.6h-50.611a8.533 8.533 0 0 0 0 17.066h50.611a67.713 67.713 0 0 1-8.653 25.6h-59.025a8.533 8.533 0 0 0 0 17.066h45.005a67.898 67.898 0 0 1-45.005 17.067H289.911a86.062 86.062 0 0 0 17.126-17.067h85.495a8.533 8.533 0 0 0 0-17.066H317.09a84.436 84.436 0 0 0 6.741-25.6H409.6a8.533 8.533 0 0 0 0-17.066h-85.769a84.436 84.436 0 0 0-6.741-25.6h75.443c4.713 0 8.533-3.82 8.533-8.533s-3.82-8.533-8.533-8.533h-85.495a86.088 86.088 0 0 0-17.126-17.067h136.755zm-76.8-153.6A67.902 67.902 0 0 1 394.872 128h-45.005a8.533 8.533 0 0 0 0 17.066h59.025a67.713 67.713 0 0 1 8.653 25.6h-50.611c-4.713 0-8.533 3.82-8.533 8.533s3.82 8.533 8.533 8.533h50.611a67.713 67.713 0 0 1-8.653 25.6h-59.025a8.533 8.533 0 0 0 0 17.066h45.005a67.898 67.898 0 0 1-45.005 17.067H213.111a86.062 86.062 0 0 0 17.126-17.067h85.495a8.533 8.533 0 0 0 0-17.066H240.29a84.436 84.436 0 0 0 6.741-25.6H332.8a8.533 8.533 0 0 0 0-17.066h-85.769a84.436 84.436 0 0 0-6.741-25.6h75.443a8.533 8.533 0 0 0 0-17.066h-85.495a86.088 86.088 0 0 0-17.126-17.067h136.755zm-256 68.267c-.048-29.98 19.47-56.482 48.113-65.333s59.709 2.022 76.582 26.803 15.603 57.67-3.129 81.077c-23.131 15.862-54.217 13.326-74.47-6.076a42.205 42.205 0 0 1 0-60.91c13.458-12.887 34.679-12.887 48.137 0a24.088 24.088 0 0 1 0 34.62c-7.449 7.113-19.174 7.113-26.624 0a8.535 8.535 0 0 0-12.07.201 8.535 8.535 0 0 0 .201 12.07c14.108 13.457 36.299 13.457 50.406 0a41.172 41.172 0 0 0 0-59.068c-20.117-19.287-51.862-19.287-71.979 0a59.293 59.293 0 0 0 0 85.334 74.928 74.928 0 0 0 36.437 19.396c-1.118.06-2.219.171-3.345.171-37.69-.048-68.226-30.597-68.259-68.285zm68.266 85.333h25.822a85.781 85.781 0 0 0-25.822 31.317 85.781 85.781 0 0 0-25.822-31.317h25.822zm-76.8 0a68.19 68.19 0 0 1 53.299 110.814c-23.131 15.862-54.216 13.326-74.47-6.076a42.205 42.205 0 0 1 0-60.91c13.458-12.887 34.679-12.887 48.137 0a24.088 24.088 0 0 1 0 34.62c-7.448 7.117-19.176 7.117-26.624 0-3.389-3.278-8.793-3.188-12.07.201s-3.188 8.793.201 12.07c14.108 13.457 36.299 13.457 50.406 0a41.172 41.172 0 0 0 0-59.068c-20.117-19.287-51.862-19.287-71.979 0a59.293 59.293 0 0 0 0 85.334 74.928 74.928 0 0 0 36.437 19.396c-1.118.06-2.219.171-3.345.171-37.703 0-68.267-30.564-68.267-68.267 0-37.703 30.564-68.267 68.267-68.267l.008-.018z"/></svg>