<svg height="512pt" viewBox="0 0 512 512" width="512pt" xmlns="http://www.w3.org/2000/svg"><path d="M89.602 128H51.199a37.562 37.562 0 0 1-26.625-11.008 8.659 8.659 0 0 1 0-12.117A37.562 37.562 0 0 1 51.2 93.867h38.403zm0 0M422.398 128h38.403a37.562 37.562 0 0 0 26.625-11.008 8.659 8.659 0 0 0 0-12.117A37.562 37.562 0 0 0 460.8 93.867h-38.403zm0 0" fill="#4caf50"/><path d="M375.125 318.89c-1.621 14.848-8.191 77.739-8.191 107.778a129.078 129.078 0 0 0-25.602-2.219c-3.93-.004-7.863.196-11.773.598h-.172A90.526 90.526 0 0 0 256 469.332a83.97 83.97 0 0 0-12.8-17.152c-27.22-28.328-66.645-28.926-86.188-27.133h-.168c-3.953.332-7.883.875-11.778 1.621v-2.219c-.34-30.804-6.57-91.05-8.191-105.558l9.727-2.391c19.125-4.66 32.59-21.785 32.597-41.469V260.18h153.602v14.593c-.008 19.747 13.437 36.957 32.597 41.727l1.024.258zm0 0" fill="#bfa885"/><path d="M369.066 172.8l23.47-113.066a34.101 34.101 0 0 1 24.148 9.985 34.095 34.095 0 0 1 9.984 24.148v170.668c0 14.137 11.46 25.598 25.598 25.598h11.437a34.134 34.134 0 0 1 24.149 9.984l1.023 1.024c3.328 3.355 3.328 8.765 0 12.117l-1.023 1.023a34.118 34.118 0 0 1-24.149 9.985H435.2c-23.562 0-42.664-19.102-42.664-42.664v-26.454zm0 0M119.465 255.148v26.454a42.655 42.655 0 0 1-12.496 30.168A42.648 42.648 0 0 1 76.8 324.266H48.297a34.118 34.118 0 0 1-24.149-9.985l-1.023-1.023c-3.328-3.352-3.328-8.762 0-12.117l1.023-1.024a34.134 34.134 0 0 1 24.149-9.984h11.437c14.137 0 25.598-11.461 25.598-25.598V93.867c0-18.851 15.285-34.133 34.133-34.133v8.532L135.109 192zm0 0" fill="#8bc34a"/><path d="M119.465 448l-8.531 55.465H17.066a8.532 8.532 0 0 1-8.53-8.531v-98.047c-.005-27.59 18.91-51.586 45.737-58.028l48.895-11.863A534.179 534.179 0 0 1 119.465 448zm0 0" fill="#ffe0b2"/><path d="M503.465 396.887v98.047c0 4.71-3.82 8.53-8.531 8.53h-93.868l-19.199-58.28s10.238-55.551 25.43-112.383c.512-1.965 1.023-3.84 1.535-5.805l8.106 1.965 40.789 9.898c26.828 6.442 45.742 30.438 45.738 58.028zm0 0M358.398 102.398v113.41a51.202 51.202 0 0 1-28.328 45.825l-51.199 25.597a50.762 50.762 0 0 1-35.672 3.672 43.211 43.211 0 0 1-10.07-3.672l-51.2-25.597a51.202 51.202 0 0 1-28.327-45.824V85.332c0-33.023 27.304-56.148 60.328-56.148h89.004c33.023 0 55.464 40.191 55.464 73.214zm0 0" fill="#bfa885"/><path d="M332.8 102.398v113.41a51.205 51.205 0 0 1-28.331 45.825l-51.2 25.597a43.211 43.211 0 0 1-10.07 3.672 43.211 43.211 0 0 1-10.07-3.672l-51.2-25.597a51.202 51.202 0 0 1-28.327-45.824V85.332c0-33.023 27.304-56.148 60.328-56.148h63.402c33.027 0 55.469 40.191 55.469 73.214zm0 0" fill="#ffe0b2"/><path d="M454.742 244.992l-1.023 1.024A34.136 34.136 0 0 1 429.566 256h-28.5c-23.562 0-42.668-19.102-42.668-42.668V102.398c0-32.988-26.742-59.73-59.73-59.73h-85.336c-32.988 0-59.73 26.742-59.73 59.73v110.934c0 23.566-19.106 42.668-42.668 42.668h-28.5a34.143 34.143 0 0 1-24.153-9.984l-1.023-1.024c-3.328-3.355-3.328-8.765 0-12.117l1.023-1.023a34.127 34.127 0 0 1 24.153-9.985h11.433c14.137 0 25.598-11.46 25.598-25.601v-128c0-32.989 26.746-59.73 59.734-59.73h170.668a42.648 42.648 0 0 1 30.168 12.495c8.004 8 12.5 18.852 12.5 30.168v145.067c0 14.14 11.461 25.601 25.598 25.601h11.433a34.12 34.12 0 0 1 24.153 9.985l1.023 1.023c3.328 3.352 3.328 8.762 0 12.117zm0 0" fill="#2e7d32"/><path d="M349.527 318.89c-1.625 14.508-7.851 74.755-8.195 105.56v2.218a112.805 112.805 0 0 0-11.773-1.621h-.172c-19.543-1.793-58.965-1.195-86.188 27.133-27.219-28.328-66.644-28.926-86.187-27.133h-.168a114.048 114.048 0 0 0-11.778-.598c-.34-30.804-6.57-91.05-8.191-105.558l9.727-2.391c19.125-4.66 32.59-21.785 32.597-41.469V260.18h128v14.593c-.008 19.747 13.438 36.957 32.598 41.727l1.023.258zm0 0M477.867 396.887v98.047c0 4.71-3.82 8.53-8.535 8.53h-68.266l-19.199-58.28s10.238-55.551 25.43-112.383l24.832 6.058c26.828 6.442 45.738 30.438 45.738 58.028zm0 0" fill="#ffe0b2"/><path d="M429.14 244.992l-1.023 1.024A34.134 34.134 0 0 1 403.97 256h-2.903c-23.562 0-42.668-19.102-42.668-42.668V102.398c0-32.988-26.742-59.73-59.73-59.73H187.734c-32.992 0-59.734 26.742-59.734 59.73v110.934C128 236.898 108.898 256 85.332 256h-2.898a34.143 34.143 0 0 1-24.153-9.984l-1.023-1.024c-3.328-3.355-3.328-8.765 0-12.117l1.023-1.023a34.127 34.127 0 0 1 24.153-9.985h11.433c14.137 0 25.598-11.46 25.598-25.601v-128c0-32.989 26.746-59.73 59.734-59.73h145.067c23.566 0 42.668 19.1 42.668 42.663v145.067c0 14.14 11.46 25.601 25.601 25.601h11.434a34.118 34.118 0 0 1 24.148 9.985l1.024 1.023c3.328 3.352 3.328 8.762 0 12.117zm0 0" fill="#4caf50"/><path d="M401.066 443.734v59.73H110.934v-59.73a324.7 324.7 0 0 0-7.766-116.738l33.707-8.105c1.621 14.847 8.191 77.738 8.191 107.777 0 0 76.801-17.066 110.934 42.664 34.133-59.73 110.934-42.664 110.934-42.664 0-30.04 6.57-92.93 8.191-107.777l33.707 8.105a324.7 324.7 0 0 0-7.766 116.738zm0 0" fill="#795548"/><path d="M460.8 136.535a45.857 45.857 0 0 0 32.657-13.512 16.548 16.548 0 0 0 2.629-3.558h7.379a8.533 8.533 0 1 0 0-17.067h-7.38a16.743 16.743 0 0 0-2.628-3.558 45.87 45.87 0 0 0-32.656-13.508h-26.453a42.483 42.483 0 0 0-33.282-33.277v-.856C401.04 22.934 378.133.027 349.867 0H179.2c-31.344.055-58.629 21.43-66.183 51.848a42.673 42.673 0 0 0-35.364 33.484H51.2A45.87 45.87 0 0 0 18.543 98.84a16.743 16.743 0 0 0-2.629 3.558H8.535a8.534 8.534 0 1 0 0 17.067h7.38a16.548 16.548 0 0 0 2.628 3.558 45.857 45.857 0 0 0 32.656 13.512h25.602v77.344a42.22 42.22 0 0 0-24.559 11.95l-1.043 1.038a17.122 17.122 0 0 0-2.637 3.531h-22.96a8.534 8.534 0 1 0 0 17.067h22.96A17.042 17.042 0 0 0 51.2 251l1.043 1.04a42.22 42.22 0 0 0 24.559 11.948v.547c0 9.426-7.64 17.067-17.067 17.067H48.297a42.95 42.95 0 0 0-30.18 12.484l-1.023 1.023a16.634 16.634 0 0 0-2.649 3.559h-5.91a8.533 8.533 0 1 0 0 17.066h5.91a16.732 16.732 0 0 0 2.649 3.559l1.023 1.023a42.811 42.811 0 0 0 27.563 12.22C18.293 342.054-.05 367.89 0 396.885v98.048C0 504.359 7.64 512 17.066 512h477.868c9.425 0 17.066-7.64 17.066-17.066v-98.047c.05-28.996-18.29-54.832-45.68-64.352a42.811 42.811 0 0 0 27.563-12.219l1.023-1.023a16.732 16.732 0 0 0 2.649-3.559h5.91a8.534 8.534 0 1 0 0-17.066h-5.91a16.634 16.634 0 0 0-2.649-3.559l-1.023-1.023a42.95 42.95 0 0 0-30.18-12.484h-11.437c-9.426 0-17.067-7.641-17.067-17.067v-.547a42.22 42.22 0 0 0 24.559-11.949L460.8 251a17.042 17.042 0 0 0 2.636-3.535h22.961a8.533 8.533 0 1 0 0-17.067h-22.96a17.122 17.122 0 0 0-2.637-3.53l-1.043-1.04a42.22 42.22 0 0 0-24.559-11.95v-77.343zm17.571-28.078a8.271 8.271 0 0 0-.504 2.477c.04.855.211 1.703.504 2.507a28.817 28.817 0 0 1-17.57 6.024h-25.602v-17.067h25.602a28.672 28.672 0 0 1 17.57 6.059zm-67.766-32.75a25.748 25.748 0 0 1 7.528 18.16v119.465c-9.426 0-17.067-7.64-17.067-17.066V69.726a25.923 25.923 0 0 1 9.54 5.981zm-299.671-5.98v126.539c0 9.425-7.641 17.066-17.067 17.066V93.867a25.648 25.648 0 0 1 17.067-24.14zm-59.735 49.738a28.743 28.743 0 0 1-20.59-8.531 28.934 28.934 0 0 1 20.59-8.536h25.602v17.067zM29.16 307.199l1.024-1.023a25.79 25.79 0 0 1 18.113-7.508h11.437c18.852 0 34.133-15.285 34.133-34.133h17.067v17.067c0 18.851-15.282 34.132-34.133 34.132H48.297a25.798 25.798 0 0 1-18.113-7.484zm122.88-63.48a59.171 59.171 0 0 0 18.628 21.12v10.192c.004 15.746-10.766 29.453-26.07 33.176l-29.364 7.11A50.92 50.92 0 0 0 128 281.601v-20.055a51.334 51.334 0 0 0 24.062-17.852zM384 261.547v20.055a50.92 50.92 0 0 0 12.8 33.722l-28.26-6.828-1.044-.254c-15.379-3.812-26.176-17.625-26.164-33.469v-9.933a59.208 59.208 0 0 0 18.606-21.145A51.334 51.334 0 0 0 384 261.547zm8.535 182.765v50.622h-273.07v-50.622a334.537 334.537 0 0 0-5.973-111.027l15.883-3.84c2.277 21.555 7.16 71.563 7.16 97.223a8.535 8.535 0 0 0 3.192 6.656 8.539 8.539 0 0 0 7.191 1.672c.7-.156 71.016-15.098 101.676 38.57.308.407.617.809.93 1.211a8.466 8.466 0 0 0 2.234 1.965c.648.371 1.34.656 2.058.852.711.183 1.446.277 2.184.273.73 0 1.46-.094 2.168-.281a8.53 8.53 0 0 0 2.055-.856 8.399 8.399 0 0 0 2.238-1.96l.93-1.211c30.547-53.446 98.797-39.204 101.691-38.563a8.539 8.539 0 0 0 7.191-1.672 8.535 8.535 0 0 0 3.192-6.656c0-25.66 4.883-75.668 7.117-97.223l15.883 3.84a334.534 334.534 0 0 0-5.93 111.027zm-204.8-169.28v-.958l26.195 13.098a8.444 8.444 0 0 0-.598 2.96c0 8.536-2.617 33.223-14.566 45.169a8.528 8.528 0 0 0-2.325 8.297 8.535 8.535 0 0 0 6.094 6.097 8.536 8.536 0 0 0 8.297-2.328c15.309-15.308 18.629-41.199 19.356-52.129a59.74 59.74 0 0 0 52.523-.386l41.555-20.778v.7c-.032 23.667 16.074 44.308 39.043 50.03l2.558.614c-1.894 18.082-6.324 62.559-7.27 91.453-19.628-2.058-63.32-2.383-94.046 27.672v-34.941a8.534 8.534 0 1 0-17.067 0v34.925c-30.718-30.054-74.437-29.722-94.046-27.683-.946-28.895-5.375-73.387-7.27-91.45l2.484-.605c22.942-5.59 39.086-26.144 39.082-49.758zm162.132-61.7v2.492a42.432 42.432 0 0 1-23.586 38.16l-51.199 25.602a42.883 42.883 0 0 1-38.164 0l-51.2-25.602a42.432 42.432 0 0 1-23.585-38.16V102.398c.027-28.261 22.933-51.171 51.199-51.199h85.336c28.266.028 51.172 22.938 51.2 51.2zm-332.8 183.555c-.036-23.676 16.214-44.27 39.253-49.735l40.66-9.847a323.33 323.33 0 0 1 5.547 105.226c-.07.395-.113.797-.129 1.203v51.2H17.066zm477.867 0v98.047h-85.332v-51.2a8.27 8.27 0 0 0-.086-1.203 323.33 323.33 0 0 1 5.547-105.226l40.667 9.847c23.016 5.489 39.243 26.075 39.204 49.735zm-42.668-98.219h11.437a25.781 25.781 0 0 1 18.113 7.484l1.024 1.075-1.024 1.023a25.798 25.798 0 0 1-18.113 7.484H435.2c-18.851 0-34.133-15.28-34.133-34.132v-17.067h17.067c0 18.848 15.281 34.133 34.133 34.133zm-3.532-59.734l-1.043 1.039a25.738 25.738 0 0 1-18.097 7.492h-28.528c-18.851 0-34.132-15.281-34.132-34.133V102.398c-.043-37.683-30.582-68.222-68.266-68.265h-85.336c-37.684.043-68.223 30.582-68.266 68.265v110.934c0 18.852-15.28 34.133-34.132 34.133H82.406a25.738 25.738 0 0 1-18.097-7.492l-1.043-1.04 1.043-1.042a25.772 25.772 0 0 1 18.097-7.493h11.461c18.852 0 34.133-15.28 34.133-34.132v-128c.027-28.266 22.934-51.172 51.2-51.2h170.667C368.72 17.066 384 32.348 384 51.2v145.067c0 18.851 15.281 34.132 34.133 34.132h11.46c6.786.02 13.29 2.711 18.098 7.493zm0 0"/><path d="M221.867 145.066v-8.53c4.711 0 8.531-3.821 8.531-8.536 0-4.71-3.82-8.535-8.53-8.535h-25.602c-4.711 0-8.532 3.824-8.532 8.535a8.533 8.533 0 0 0 8.532 8.535h8.535v8.531a8.533 8.533 0 1 0 17.066 0zm0 0M290.133 221.867h-68.266a8.533 8.533 0 1 0 0 17.067h68.266a8.534 8.534 0 1 0 0-17.067zm0 0M315.734 119.465h-25.601c-4.711 0-8.531 3.824-8.531 8.535a8.533 8.533 0 0 0 8.53 8.535v8.531a8.534 8.534 0 1 0 17.067 0v-8.53h8.535c4.711 0 8.532-3.821 8.532-8.536 0-4.71-3.82-8.535-8.532-8.535zm0 0"/></svg>